<?xml version="1.0" encoding="utf-8"?>
<!-- Generator: Adobe Illustrator 16.0.0, SVG Export Plug-In . SVG Version: 6.00 Build 0)  -->
<!DOCTYPE svg PUBLIC "-//W3C//DTD SVG 1.1//EN" "http://www.w3.org/Graphics/SVG/1.1/DTD/svg11.dtd">
<svg version="1.1" id="Layer_1" xmlns="http://www.w3.org/2000/svg" xmlns:xlink="http://www.w3.org/1999/xlink" x="0px" y="0px"
	 viewBox="0 0 431.169 81.312" enable-background="new 0 0 431.169 81.312"
	 xml:space="preserve">
<text transform="matrix(1 0 0 1 319.6733 81.3115)"><tspan x="0" y="0" fill="#233262" font-family="'Oxygen'" font-size="19.7315" letter-spacing="1">s</tspan><tspan x="10.497" y="0" fill="#233262" font-family="'Oxygen'" font-size="19.7315" letter-spacing="1">w</tspan><tspan x="27.545" y="0" fill="#233262" font-family="'Oxygen'" font-size="19.7315" letter-spacing="1">it</tspan><tspan x="41.633" y="0" fill="#233262" font-family="'Oxygen'" font-size="19.7315" letter-spacing="1">z</tspan><tspan x="51.38" y="0" fill="#233262" font-family="'Oxygen'" font-size="19.7315" letter-spacing="1">erl</tspan><tspan x="77.839" y="0" fill="#233262" font-family="'Oxygen'" font-size="19.7315" letter-spacing="1">a</tspan><tspan x="89.362" y="0" fill="#233262" font-family="'Oxygen'" font-size="19.7315" letter-spacing="1">n</tspan><tspan x="101.536" y="0" fill="#233262" font-family="'Oxygen'" font-size="19.7315">d</tspan></text>
<g>
	<defs>
		<rect id="SVGID_1_" x="-30.329" y="-132" width="504" height="360"/>
	</defs>
	<clipPath id="SVGID_2_">
		<use xlink:href="#SVGID_1_"  overflow="visible"/>
	</clipPath>
	<path clip-path="url(#SVGID_2_)" fill="#233262" d="M105.171,37.566h12.091v11.423c-2.484,1.321-5.787,2.019-9.577,2.019
		c-10.07,0-15.846-7.048-15.846-19.338v-0.314c0.076-12.471,6.013-19.339,16.719-19.339c6.007,0,13.946,2.277,17.592,4.404
		l0.734,0.429l0.191-9.22l-0.192-0.153c-4.678-3.759-10.854-5.585-18.88-5.585c-17.29,0-28.907,11.807-28.907,29.382
		c0,18.042,11.378,29.7,28.986,29.7c8.762,0,14.792-2.612,20.217-5.289l0.279-0.138V28.552h-22.872L105.171,37.566z"/>
	<path clip-path="url(#SVGID_2_)" fill="#233262" d="M154.812,51.019l-0.677,0.339c-0.016,0.006-0.41,0.126-2.122,0.126
		c-5.345,0-5.927-1.601-5.927-7.911V2.166l-11.95-0.02v39.919c0,11.479,2.5,18.592,14.942,18.592c3.584,0,5.732-0.469,5.821-0.488
		l0.416-0.093l-0.502-8.281L154.812,51.019z"/>
	<path clip-path="url(#SVGID_2_)" fill="#233262" d="M176.028,16.412c-12.838,0-20.813,8.583-20.813,22.4
		c0,13.669,7.975,22.162,20.813,22.162c12.838,0,20.813-8.492,20.813-22.162C196.841,24.995,188.866,16.412,176.028,16.412
		 M185.367,38.812c0,8.232-3.491,13.147-9.339,13.147c-5.885,0-9.26-4.792-9.26-13.147c0-8.457,3.375-13.307,9.26-13.307
		C181.876,25.505,185.367,30.48,185.367,38.812"/>
	<path clip-path="url(#SVGID_2_)" fill="#233262" d="M224.561,16.412h-0.323c-6.051,0.068-10.001,2.45-12.031,5.055V2.165h-11.949
		V60.18h11.776l0.127-4.618c2.499,3.461,6.665,5.412,11.687,5.412h0.556c10.68,0,18.432-9.454,18.432-22.479
		C242.834,23.322,233.362,16.412,224.561,16.412 M231.282,38.812c0,11.794-6.863,13.068-9.814,13.068
		c-2.641,0-7.363-0.853-9.417-6.548l0.071-13.142c1.578-4.188,5.066-6.685,9.346-6.685
		C225.132,25.505,231.282,27.234,231.282,38.812"/>
	<path clip-path="url(#SVGID_2_)" fill="#233262" d="M265.104,16.412h-0.966c-6.44,0.15-11.846,1.207-16.064,3.141l-0.293,0.134
		l0.03,7.674l0.642-0.194c8.717-2.64,15.211-1.67,15.221-1.668c5.094,0.844,5.611,2.014,5.611,6.648v1.479l-2.508,0.407
		c-13.651,1.984-21.375,3.641-21.375,14.618c0,7.371,5.43,12.323,13.512,12.323c4.994,0,8.501-1.916,12.087-4.845l1.013,4.051h9.302
		V30.322C281.315,21.481,275.407,16.412,265.104,16.412 M269.285,40.828v8.906c-2.933,1.975-4.972,3.178-8.466,3.178
		c-2.909,0-4.578-1.696-4.578-4.657c0-5.133,4.229-6.121,10.688-7.044L269.285,40.828z"/>
	<path clip-path="url(#SVGID_2_)" fill="#233262" d="M318.11,49.037c-2.198,1.571-7.427,3.002-10.968,3.002
		c-7.145,0-10.768-4.53-10.768-13.465c0-8.306,3.838-13.069,10.529-13.069c3.645,0,9.552,1.774,11.048,2.843l0.802,0.572
		l-0.09-8.426l-0.202-0.147c-3.718-2.722-7.363-3.862-12.589-3.935h-0.318c-10.319,0-20.732,6.729-20.732,21.765
		c0,14.274,8.047,22.796,21.526,22.796h0.159c5.543,0,8.769-1.408,12.177-3.68l0.223-0.148l-0.007-8.673L318.11,49.037z"/>
	<path clip-path="url(#SVGID_2_)" fill="#233262" d="M342.02,16.412c-12.838,0-20.812,8.583-20.812,22.4
		c0,13.669,7.975,22.162,20.812,22.162s20.812-8.492,20.812-22.162C362.833,24.995,354.858,16.412,342.02,16.412 M351.358,38.812
		c0,8.232-3.491,13.147-9.338,13.147c-5.886,0-9.261-4.792-9.261-13.147c0-8.457,3.375-13.307,9.261-13.307
		C347.867,25.505,351.358,30.48,351.358,38.812"/>
	<path clip-path="url(#SVGID_2_)" fill="#233262" d="M417.102,16.412h-0.477c-5.569,0-10.228,2.146-14.215,6.557
		c-1.986-4.294-5.696-6.557-10.779-6.557h-0.488c-5.156,0.136-10.173,2.508-13.632,6.4l-0.768-4.813h-10.21V60.18h11.95V31.647
		c2.41-4.076,5.392-6.142,8.863-6.142c4.758,0,5.688,3.861,5.688,10.529V60.18h11.949V31.721c1.578-2.838,4.037-6.061,9.022-6.215
		h0.238c4.223,0,4.975,2.946,4.975,11.243V60.18h11.949V34.448C431.169,22.648,426.305,16.412,417.102,16.412"/>
	<path clip-path="url(#SVGID_2_)" fill="#233262" d="M41.895,34.492h23.283v-28.6c0,0-13.118-4.279-29.634-4.827v27.076
		C35.544,31.648,38.387,34.492,41.895,34.492"/>
	<path clip-path="url(#SVGID_2_)" fill="#233262" d="M35.543,46.142v33.792c16.434-1.543,29.308-15.319,29.425-32.13h0.209v-7.211
		H41.093C38.027,40.593,35.543,43.078,35.543,46.142"/>
	<path clip-path="url(#SVGID_2_)" fill="#233262" d="M23.283,34.339H0v-28.6c0,0,13.118-4.279,29.634-4.827v27.076
		C29.633,31.495,26.791,34.339,23.283,34.339"/>
	<path clip-path="url(#SVGID_2_)" fill="#233262" d="M29.634,45.99v33.792C13.2,78.238,0.326,64.463,0.209,47.652H0v-7.211h24.085
		C27.15,40.441,29.634,42.926,29.634,45.99"/>
</g>
<text transform="matrix(1 0 0 1 0.6714 -60)" font-family="'Oxygen'" font-size="9">Logo One Color on light background (bg)</text>
</svg>
