<?xml version="1.0" encoding="utf-8"?>
<!-- Generator: Adobe Illustrator 16.0.0, SVG Export Plug-In . SVG Version: 6.00 Build 0)  -->
<!DOCTYPE svg PUBLIC "-//W3C//DTD SVG 1.1//EN" "http://www.w3.org/Graphics/SVG/1.1/DTD/svg11.dtd">
<svg version="1.1" id="Layer_1" xmlns="http://www.w3.org/2000/svg" xmlns:xlink="http://www.w3.org/1999/xlink" x="0px" y="0px"
	 viewBox="0 0 35.5 42.964" enable-background="new 0 0 35.5 42.964" xml:space="preserve">
<rect x="-95" y="101.5" fill="#233262" width="504" height="152"/>
<text transform="matrix(1 0 0 1 -31.0024 -46.501)" fill="#58595B" font-family="'Oxygen'" font-size="9">Shield Icon scaled:</text>
<g>
	<defs>
		<rect id="SVGID_1_" x="-95" y="-106.5" width="504" height="360"/>
	</defs>
	<clipPath id="SVGID_2_">
		<use xlink:href="#SVGID_1_"  overflow="visible"/>
	</clipPath>
	<path clip-path="url(#SVGID_2_)" fill="#00AEEF" d="M22.953,19.232h12.566V3.796c0,0-7.079-2.31-15.994-2.606v14.614
		C19.525,17.697,21.06,19.232,22.953,19.232"/>
	<path clip-path="url(#SVGID_2_)" fill="#233262" d="M19.525,25.521v18.239c8.87-0.834,15.819-8.268,15.882-17.342h0.112v-3.892
		H22.52C20.866,22.525,19.525,23.866,19.525,25.521"/>
	<path clip-path="url(#SVGID_2_)" fill="#00AEEF" d="M12.907,19.15H0.341V3.714c0,0,7.079-2.31,15.994-2.606v14.614
		C16.335,17.615,14.8,19.15,12.907,19.15"/>
	<path clip-path="url(#SVGID_2_)" fill="#233262" d="M16.335,25.438v18.239c-8.87-0.834-15.819-8.268-15.882-17.342H0.341v-3.892
		H13.34C14.994,22.443,16.335,23.784,16.335,25.438"/>
	<path clip-path="url(#SVGID_2_)" fill="#00AEEF" d="M167.941,31.496h6.283v-7.718c0,0-3.54-1.155-7.997-1.303v7.307
		C166.228,30.729,166.994,31.496,167.941,31.496"/>
	<path clip-path="url(#SVGID_2_)" fill="#233262" d="M166.228,34.64v9.119c4.435-0.416,7.909-4.134,7.941-8.67h0.056v-1.946h-6.5
		C166.897,33.143,166.228,33.812,166.228,34.64"/>
	<path clip-path="url(#SVGID_2_)" fill="#00AEEF" d="M162.919,31.455h-6.283v-7.718c0,0,3.54-1.155,7.997-1.303v7.307
		C164.633,30.688,163.865,31.455,162.919,31.455"/>
	<path clip-path="url(#SVGID_2_)" fill="#233262" d="M164.633,34.599v9.119c-4.436-0.416-7.909-4.134-7.941-8.67h-0.056v-1.946h6.5
		C163.963,33.102,164.633,33.771,164.633,34.599"/>
	<path clip-path="url(#SVGID_2_)" fill="#00AEEF" d="M298.686,37.627h3.143v-3.859c0,0-1.771-0.577-3.999-0.651v3.653
		C297.829,37.243,298.213,37.627,298.686,37.627"/>
	<path clip-path="url(#SVGID_2_)" fill="none" stroke="#FFFFFF" stroke-width="0.25" stroke-miterlimit="10" d="M298.686,37.627
		h3.143v-3.859c0,0-1.771-0.577-3.999-0.651v3.653C297.829,37.243,298.213,37.627,298.686,37.627z"/>
	<path clip-path="url(#SVGID_2_)" fill="#233262" d="M297.829,39.199v4.56c2.218-0.209,3.955-2.067,3.97-4.336h0.029V38.45h-3.25
		C298.164,38.45,297.829,38.787,297.829,39.199"/>
	<path clip-path="url(#SVGID_2_)" fill="none" stroke="#FFFFFF" stroke-width="0.25" stroke-miterlimit="10" d="M297.829,39.199
		v4.56c2.218-0.209,3.955-2.067,3.97-4.336h0.029V38.45h-3.25C298.164,38.45,297.829,38.787,297.829,39.199z"/>
	<path clip-path="url(#SVGID_2_)" fill="#00AEEF" d="M296.175,37.607h-3.143v-3.859c0,0,1.771-0.577,3.999-0.651v3.653
		C297.031,37.223,296.647,37.607,296.175,37.607"/>
	<path clip-path="url(#SVGID_2_)" fill="none" stroke="#FFFFFF" stroke-width="0.25" stroke-miterlimit="10" d="M296.175,37.607
		h-3.143v-3.859c0,0,1.771-0.577,3.999-0.651v3.653C297.031,37.223,296.647,37.607,296.175,37.607z"/>
	<path clip-path="url(#SVGID_2_)" fill="#233262" d="M297.031,39.179v4.56c-2.217-0.209-3.955-2.067-3.97-4.336h-0.029V38.43h3.25
		C296.696,38.43,297.031,38.766,297.031,39.179"/>
	<path clip-path="url(#SVGID_2_)" fill="none" stroke="#FFFFFF" stroke-width="0.25" stroke-miterlimit="10" d="M297.031,39.179
		v4.56c-2.217-0.209-3.955-2.067-3.97-4.336h-0.029V38.43h3.25C296.696,38.43,297.031,38.766,297.031,39.179z"/>
	<path clip-path="url(#SVGID_2_)" fill="#FFFFFF" d="M22.953,164.565h12.566V149.13c0,0-7.079-2.311-15.994-2.606v14.614
		C19.525,163.03,21.06,164.565,22.953,164.565"/>
	<path clip-path="url(#SVGID_2_)" fill="#FFFFFF" d="M19.525,170.854v18.239c8.87-0.834,15.819-8.269,15.882-17.342h0.112v-3.893
		H22.52C20.866,167.858,19.525,169.199,19.525,170.854"/>
	<path clip-path="url(#SVGID_2_)" fill="#FFFFFF" d="M12.907,164.483H0.341v-15.437c0,0,7.079-2.31,15.994-2.605v14.614
		C16.335,162.948,14.8,164.483,12.907,164.483"/>
	<path clip-path="url(#SVGID_2_)" fill="#FFFFFF" d="M16.335,170.771v18.239c-8.87-0.834-15.819-8.269-15.882-17.343H0.341v-3.892
		H13.34C14.994,167.776,16.335,169.117,16.335,170.771"/>
	<path clip-path="url(#SVGID_2_)" fill="#FFFFFF" d="M167.941,176.829h6.283v-7.718c0,0-3.54-1.155-7.997-1.304v7.308
		C166.228,176.062,166.994,176.829,167.941,176.829"/>
	<path clip-path="url(#SVGID_2_)" fill="#FFFFFF" d="M166.228,179.973v9.119c4.435-0.416,7.909-4.134,7.941-8.67h0.056v-1.946h-6.5
		C166.897,178.476,166.228,179.146,166.228,179.973"/>
	<path clip-path="url(#SVGID_2_)" fill="#FFFFFF" d="M162.919,176.788h-6.283v-7.718c0,0,3.54-1.155,7.997-1.304v7.308
		C164.633,176.021,163.865,176.788,162.919,176.788"/>
	<path clip-path="url(#SVGID_2_)" fill="#FFFFFF" d="M164.633,179.932v9.119c-4.436-0.416-7.909-4.134-7.941-8.67h-0.056v-1.946h6.5
		C163.963,178.435,164.633,179.104,164.633,179.932"/>
	<path clip-path="url(#SVGID_2_)" fill="#FFFFFF" d="M298.686,182.961h3.143v-3.859c0,0-1.771-0.577-3.999-0.65v3.652
		C297.829,182.577,298.213,182.961,298.686,182.961"/>
	<path clip-path="url(#SVGID_2_)" fill="#FFFFFF" d="M297.829,184.532v4.561c2.218-0.209,3.955-2.067,3.97-4.336h0.029v-0.973h-3.25
		C298.164,183.784,297.829,184.12,297.829,184.532"/>
	<path clip-path="url(#SVGID_2_)" fill="#FFFFFF" d="M296.175,182.94h-3.143v-3.859c0,0,1.771-0.577,3.999-0.651v3.653
		C297.031,182.556,296.647,182.94,296.175,182.94"/>
	<path clip-path="url(#SVGID_2_)" fill="#FFFFFF" d="M297.031,184.512v4.561c-2.217-0.209-3.955-2.067-3.97-4.336h-0.029v-0.974
		h3.25C296.696,183.763,297.031,184.099,297.031,184.512"/>
</g>
</svg>
