<?xml version="1.0" encoding="utf-8"?>
<!-- Generator: Adobe Illustrator 16.0.0, SVG Export Plug-In . SVG Version: 6.00 Build 0)  -->
<!DOCTYPE svg PUBLIC "-//W3C//DTD SVG 1.1//EN" "http://www.w3.org/Graphics/SVG/1.1/DTD/svg11.dtd">
<svg version="1.1" id="Layer_1" xmlns="http://www.w3.org/2000/svg" xmlns:xlink="http://www.w3.org/1999/xlink" x="0px" y="0px"
	 viewBox="0 0 288 288" enable-background="new 0 0 288 288" xml:space="preserve">
<rect fill="#DCDBC7" width="288" height="288"/>
<text transform="matrix(1 0 0 1 33.1084 62.2954)" fill="#231F20" font-family="'Oxygen'" font-size="36">Oxygen</text>
<text transform="matrix(1 0 0 1 33.9531 99.7622)" fill="#231F20" font-family="'Oxygen'" font-size="26.1818">Aa  Qq  Rr</text>
<text transform="matrix(1 0 0 1 170.9902 131.2334)" fill="#FFFFFF" font-family="'Oxygen'" font-size="97.3439">a</text>
<text transform="matrix(1 0 0 1 33.3799 130.9565)" fill="#231F20" font-family="'Oxygen-Bold'" font-size="26.1818">Aa  Qq  Rr</text>
<text transform="matrix(1 0 0 1 65.6685 171.7715)" fill="#9F392A" font-family="'Oxygen'" font-size="30.2654">Verbindung</text>
<text transform="matrix(1 0 0 1 73.019 202.6826)"><tspan x="0" y="0" fill="#231F20" font-family="'Oxygen'" font-size="18" letter-spacing="1">ab</tspan><tspan x="23.022" y="0" fill="#231F20" font-family="'Oxygen'" font-size="18" letter-spacing="1">c</tspan><tspan x="33.192" y="0" fill="#231F20" font-family="'Oxygen'" font-size="18" letter-spacing="1">de</tspan><tspan x="56.574" y="0" fill="#231F20" font-family="'Oxygen'" font-size="18" letter-spacing="1">f</tspan><tspan x="63.989" y="0" fill="#231F20" font-family="'Oxygen'" font-size="18" letter-spacing="1">ghij</tspan><tspan x="99.089" y="0" fill="#231F20" font-family="'Oxygen'" font-size="18" letter-spacing="1">k</tspan><tspan x="109.727" y="0" fill="#231F20" font-family="'Oxygen'" font-size="18" letter-spacing="1">l</tspan><tspan x="116.333" y="0" fill="#231F20" font-family="'Oxygen'" font-size="18">m</tspan></text>
<text transform="matrix(1 0 0 1 73.019 224.2822)"><tspan x="0" y="0" fill="#231F20" font-family="'Oxygen'" font-size="18" letter-spacing="1">nopqr</tspan><tspan x="55.295" y="0" fill="#231F20" font-family="'Oxygen'" font-size="18" letter-spacing="1">st</tspan><tspan x="73.187" y="0" fill="#231F20" font-family="'Oxygen'" font-size="18" letter-spacing="1">u</tspan><tspan x="84.617" y="0" fill="#231F20" font-family="'Oxygen'" font-size="18" letter-spacing="1">v</tspan><tspan x="95.506" y="0" fill="#231F20" font-family="'Oxygen'" font-size="18" letter-spacing="1">w</tspan><tspan x="111.508" y="0" fill="#231F20" font-family="'Oxygen'" font-size="18" letter-spacing="1">xy</tspan><tspan x="133.144" y="0" fill="#231F20" font-family="'Oxygen'" font-size="18">z</tspan></text>
<text transform="matrix(1 0 0 1 94.7251 251.4443)"><tspan x="0" y="0" fill="#FFFFFF" font-family="'Oxygen'" font-size="15" letter-spacing="2">012345678</tspan><tspan x="92.878" y="0" fill="#FFFFFF" font-family="'Oxygen'" font-size="15">9</tspan></text>
</svg>
