<?xml version="1.0" encoding="utf-8"?>
<!-- Generator: Adobe Illustrator 16.0.0, SVG Export Plug-In . SVG Version: 6.00 Build 0)  -->
<!DOCTYPE svg PUBLIC "-//W3C//DTD SVG 1.1//EN" "http://www.w3.org/Graphics/SVG/1.1/DTD/svg11.dtd">
<svg version="1.1" id="Layer_1" xmlns="http://www.w3.org/2000/svg" xmlns:xlink="http://www.w3.org/1999/xlink" x="0px" y="0px"
	 viewBox="0 0 288 288" enable-background="new 0 0 288 288" xml:space="preserve">
<rect fill="#DCDBC7" width="288" height="288"/>
<text transform="matrix(1 0 0 1 33.1084 62.2954)" fill="#231F20" font-family="'SourceSansPro-Regular'" font-size="33">Source Sans Pro</text>
<text transform="matrix(1 0 0 1 33.9531 99.7622)" fill="#231F20" font-family="'SourceSansPro-Light'" font-size="26.1818">Aa  Qq  Rr</text>
<text transform="matrix(1 0 0 1 170.9902 131.2334)" fill="#FFFFFF" font-family="'SourceSansPro-Regular'" font-size="97.3439">a</text>
<text transform="matrix(1 0 0 1 33.3799 130.9565)" fill="#231F20" font-family="'SourceSansPro-Bold'" font-size="26.1818">Aa  Qq  Rr</text>
<text transform="matrix(1 0 0 1 115.6685 171.7715)" fill="#9F392A" font-family="'SourceSansPro-Regular'" font-size="30.2654">Beauté</text>
<text transform="matrix(1 0 0 1 73.019 202.6826)"><tspan x="0" y="0" fill="#231F20" font-family="'SourceSansPro-Regular'" font-size="18" letter-spacing="1">ab</tspan><tspan x="22.77" y="0" fill="#231F20" font-family="'SourceSansPro-Regular'" font-size="18" letter-spacing="1">c</tspan><tspan x="32.778" y="0" fill="#231F20" font-family="'SourceSansPro-Regular'" font-size="18" letter-spacing="1">de</tspan><tspan x="55.259" y="0" fill="#231F20" font-family="'SourceSansPro-Regular'" font-size="18" letter-spacing="1">f</tspan><tspan x="62.315" y="0" fill="#231F20" font-family="'SourceSansPro-Regular'" font-size="18" letter-spacing="1">ghij</tspan><tspan x="97.18" y="0" fill="#231F20" font-family="'SourceSansPro-Regular'" font-size="18" letter-spacing="1">k</tspan><tspan x="107.89" y="0" fill="#231F20" font-family="'SourceSansPro-Regular'" font-size="18" letter-spacing="1">l</tspan><tspan x="114.262" y="0" fill="#231F20" font-family="'SourceSansPro-Regular'" font-size="18">m</tspan></text>
<text transform="matrix(1 0 0 1 73.019 224.2822)"><tspan x="0" y="0" fill="#231F20" font-family="'SourceSansPro-Regular'" font-size="18" letter-spacing="1">nopqr</tspan><tspan x="54.647" y="0" fill="#231F20" font-family="'SourceSansPro-Regular'" font-size="18" letter-spacing="1">st</tspan><tspan x="71.873" y="0" fill="#231F20" font-family="'SourceSansPro-Regular'" font-size="18" letter-spacing="1">u</tspan><tspan x="83.447" y="0" fill="#231F20" font-family="'SourceSansPro-Regular'" font-size="18" letter-spacing="1">v</tspan><tspan x="93.653" y="0" fill="#231F20" font-family="'SourceSansPro-Regular'" font-size="18" letter-spacing="1">w</tspan><tspan x="108.359" y="0" fill="#231F20" font-family="'SourceSansPro-Regular'" font-size="18" letter-spacing="1">xy</tspan><tspan x="128.392" y="0" fill="#231F20" font-family="'SourceSansPro-Regular'" font-size="18">z</tspan></text>
<text transform="matrix(1 0 0 1 94.7251 251.4443)"><tspan x="0" y="0" fill="#FFFFFF" font-family="'SourceSansPro-Regular'" font-size="15" letter-spacing="2">012345678</tspan><tspan x="87.209" y="0" fill="#FFFFFF" font-family="'SourceSansPro-Regular'" font-size="15">9</tspan></text>
</svg>
