<?xml version="1.0" encoding="utf-8"?>
<!-- Generator: Adobe Illustrator 16.0.0, SVG Export Plug-In . SVG Version: 6.00 Build 0)  -->
<!DOCTYPE svg PUBLIC "-//W3C//DTD SVG 1.1//EN" "http://www.w3.org/Graphics/SVG/1.1/DTD/svg11.dtd">
<svg version="1.1" id="Layer_1" xmlns="http://www.w3.org/2000/svg" xmlns:xlink="http://www.w3.org/1999/xlink" x="0px" y="0px"
	 width="60px" height="73px" viewBox="0 0 60 73" enable-background="new 0 0 60 73" xml:space="preserve">
<rect x="-395" y="-306.168" fill="#D1D3D4" width="612" height="13.274"/>
<rect x="-395" y="-82.274" fill="#D1D3D4" width="612" height="13.274"/>
<text transform="matrix(1 0 0 1 9.0322 -403.1631)"><tspan x="0" y="0" fill="#233262" font-family="'Oxygen'" font-size="18" letter-spacing="1">switzerl</tspan><tspan x="71.045" y="0" fill="#233262" font-family="'Oxygen'" font-size="18" letter-spacing="1">a</tspan><tspan x="81.557" y="0" fill="#233262" font-family="'Oxygen'" font-size="18" letter-spacing="1">n</tspan><tspan x="92.662" y="0" fill="#233262" font-family="'Oxygen'" font-size="18">d</tspan></text>
<text transform="matrix(1 0 0 1 -283.918 -369.5029)"><tspan x="0" y="0" fill="#233262" font-family="'LibreBaskerville-Italic'" font-size="18" letter-spacing="1">T</tspan><tspan x="15.12" y="0" fill="#233262" font-family="'LibreBaskerville-Italic'" font-size="18" letter-spacing="1">he</tspan><tspan x="36.18" y="0" fill="#233262" font-family="'LibreBaskerville-Italic'" font-size="18" letter-spacing="1"> s</tspan><tspan x="50.472" y="0" fill="#233262" font-family="'LibreBaskerville-Italic'" font-size="18" letter-spacing="1">a</tspan><tspan x="61.991" y="0" fill="#233262" font-family="'LibreBaskerville-Italic'" font-size="18" letter-spacing="1">f</tspan><tspan x="69.083" y="0" fill="#233262" font-family="'LibreBaskerville-Italic'" font-size="18" letter-spacing="1">e</tspan><tspan x="78.551" y="0" fill="#233262" font-family="'LibreBaskerville-Italic'" font-size="18" letter-spacing="1">s</tspan><tspan x="86.651" y="0" fill="#233262" font-family="'LibreBaskerville-Italic'" font-size="18">t</tspan><tspan x="94.193" y="0" fill="#233262" font-family="'LibreBaskerville-Italic'" font-size="18"> </tspan><tspan x="99.917" y="0" fill="#233262" font-family="'LibreBaskerville-Italic'" font-size="18" letter-spacing="1">phon</tspan><tspan x="146.123" y="0" fill="#233262" font-family="'LibreBaskerville-Italic'" font-size="18" letter-spacing="1">e </tspan><tspan x="161.764" y="0" fill="#233262" font-family="'LibreBaskerville-Italic'" font-size="18" letter-spacing="1">co</tspan><tspan x="181.636" y="0" fill="#233262" font-family="'LibreBaskerville-Italic'" font-size="18" letter-spacing="1">nn</tspan><tspan x="206.692" y="0" fill="#233262" font-family="'LibreBaskerville-Italic'" font-size="18" letter-spacing="1">e</tspan><tspan x="216.16" y="0" fill="#233262" font-family="'LibreBaskerville-Italic'" font-size="18" letter-spacing="1">c</tspan><tspan x="225.34" y="0" fill="#233262" font-family="'LibreBaskerville-Italic'" font-size="18" letter-spacing="1">t</tspan><tspan x="233.17" y="0" fill="#233262" font-family="'LibreBaskerville-Italic'" font-size="18" letter-spacing="1">i</tspan><tspan x="240.604" y="0" fill="#233262" font-family="'LibreBaskerville-Italic'" font-size="18" letter-spacing="1">on</tspan><tspan x="263.823" y="0" fill="#233262" font-family="'LibreBaskerville-Italic'" font-size="18" letter-spacing="1">s</tspan><tspan x="271.923" y="0" fill="#233262" font-family="'LibreBaskerville-Italic'" font-size="18" letter-spacing="1"> </tspan><tspan x="277.899" y="0" fill="#233262" font-family="'LibreBaskerville-Italic'" font-size="18" letter-spacing="1">i</tspan><tspan x="285.352" y="0" fill="#233262" font-family="'LibreBaskerville-Italic'" font-size="18">n</tspan><tspan x="297.357" y="0" fill="#233262" font-family="'LibreBaskerville-Italic'" font-size="18" letter-spacing="1"> th</tspan><tspan x="322.988" y="0" fill="#233262" font-family="'LibreBaskerville-Italic'" font-size="18" letter-spacing="1">e</tspan><tspan x="332.438" y="0" fill="#233262" font-family="'LibreBaskerville-Italic'" font-size="18"> </tspan><tspan x="338.234" y="0" fill="#233262" font-family="'LibreBaskerville-Italic'" font-size="18" letter-spacing="1">w</tspan><tspan x="354.794" y="0" fill="#233262" font-family="'LibreBaskerville-Italic'" font-size="18" letter-spacing="1">o</tspan><tspan x="365.45" y="0" fill="#233262" font-family="'LibreBaskerville-Italic'" font-size="18" letter-spacing="1">r</tspan><tspan x="374.954" y="0" fill="#233262" font-family="'LibreBaskerville-Italic'" font-size="18" letter-spacing="1">ld</tspan><tspan x="393.872" y="0" fill="#233262" font-family="'LibreBaskerville-Italic'" font-size="18">.</tspan></text>
<g>
	<defs>
		<rect id="SVGID_1_" x="-395" y="-645" width="612" height="792"/>
	</defs>
	<clipPath id="SVGID_2_">
		<use xlink:href="#SVGID_1_"  overflow="visible"/>
	</clipPath>
	<path clip-path="url(#SVGID_2_)" fill="#233262" d="M-186.78-443.026h11.033v10.35c-2.257,1.194-5.254,1.824-8.693,1.824
		c-9.159,0-14.411-6.414-14.411-17.596v-0.286c0.068-11.35,5.469-17.6,15.207-17.6c5.472,0,12.705,2.075,16.027,4.013l0.734,0.428
		l0.175-8.506l-0.192-0.154c-4.275-3.435-9.918-5.105-17.251-5.105c-15.798,0-26.413,10.789-26.413,26.848
		c0,16.485,10.396,27.137,26.486,27.137c8.003,0,13.508-2.386,18.462-4.829l0.279-0.137v-24.698h-20.95L-186.78-443.026z"/>
	<path clip-path="url(#SVGID_2_)" fill="#233262" d="M-141.403-430.868l-0.677,0.338c-0.014,0.004-0.376,0.112-1.922,0.112
		c-4.836,0-5.363-1.452-5.363-7.173v-37.817l-10.989-0.018v36.46c0,8.227,1.056,17.004,13.674,17.004
		c3.274,0,5.238-0.428,5.32-0.447l0.416-0.092l-0.46-7.592L-141.403-430.868z"/>
	<path clip-path="url(#SVGID_2_)" fill="#233262" d="M-122.096-462.412c-11.738,0-19.03,7.847-19.03,20.479
		c0,12.497,7.292,20.26,19.03,20.26c11.739,0,19.031-7.763,19.031-20.26C-103.064-454.565-110.356-462.412-122.096-462.412
		 M-113.62-441.933c0,7.482-3.168,11.95-8.476,11.95c-5.34,0-8.402-4.356-8.402-11.95c0-7.687,3.062-12.095,8.402-12.095
		C-116.788-454.028-113.62-449.507-113.62-441.933"/>
	<path clip-path="url(#SVGID_2_)" fill="#233262" d="M-77.821-462.412h-0.295c-5.458,0.063-9.05,2.183-10.93,4.529v-17.525h-10.99
		v53.012h10.83l0.114-4.128c2.294,3.104,6.075,4.851,10.62,4.851h0.507c9.769,0,16.859-8.642,16.859-20.55
		C-61.106-456.094-69.771-462.412-77.821-462.412 M-71.734-441.933c0,10.72-6.23,11.877-8.909,11.877
		c-2.396,0-6.68-0.773-8.547-5.937l0.065-11.972c1.435-3.799,4.6-6.063,8.482-6.063C-77.316-454.028-71.734-452.457-71.734-441.933"
		/>
	<path clip-path="url(#SVGID_2_)" fill="#233262" d="M-40.836-462.411h-0.881c-5.881,0.136-10.817,1.102-14.673,2.868l-0.293,0.134
		l0.027,7.089l0.642-0.194c7.94-2.405,13.858-1.522,13.865-1.521c4.645,0.77,5.083,1.757,5.083,6.021v1.313l-2.25,0.364
		c-12.479,1.814-19.538,3.33-19.538,13.379c0,6.75,4.972,11.285,12.371,11.285c4.543,0,7.739-1.732,11-4.385l0.915,3.662h8.563
		v-27.283C-26.004-457.77-31.41-462.411-40.836-462.411 M-37.065-431.993c-2.658,1.789-4.512,2.878-7.68,2.878
		c-2.626,0-4.134-1.532-4.134-4.205c0-4.647,3.844-5.544,9.716-6.382l2.098-0.341V-431.993z"/>
	<path clip-path="url(#SVGID_2_)" fill="#233262" d="M7.493-432.641c-2,1.429-6.757,2.73-9.979,2.73c-6.49,0-9.78-4.118-9.78-12.239
		c0-7.549,3.485-11.878,9.562-11.878c3.316,0,8.691,1.613,10.054,2.585l0.801,0.572l-0.083-7.795l-0.202-0.147
		c-3.399-2.489-6.731-3.531-11.51-3.599h-0.29c-9.437,0-18.958,6.153-18.958,19.9c0,13.049,7.357,20.839,19.682,20.839h0.145
		c5.068,0,8.018-1.287,11.133-3.364l0.223-0.148l-0.006-8.02L7.493-432.641z"/>
	<path clip-path="url(#SVGID_2_)" fill="#233262" d="M29.33-462.412c-11.738,0-19.03,7.847-19.03,20.479
		c0,12.497,7.292,20.26,19.03,20.26s19.03-7.763,19.03-20.26C48.36-454.565,41.068-462.412,29.33-462.412 M37.806-441.933
		c0,7.482-3.168,11.95-8.476,11.95c-5.341,0-8.403-4.356-8.403-11.95c0-7.687,3.062-12.095,8.403-12.095
		C34.638-454.028,37.806-449.507,37.806-441.933"/>
	<path clip-path="url(#SVGID_2_)" fill="#233262" d="M97.823-462.412H97.39c-5.073,0-9.319,1.947-12.956,5.947
		c-1.826-3.895-5.214-5.947-9.845-5.947h-0.447c-4.685,0.123-9.244,2.266-12.405,5.784l-0.691-4.336h-9.396v38.567h10.989v-26.06
		c2.189-3.697,4.894-5.572,8.041-5.572c4.325,0,5.146,3.361,5.146,9.562v22.07h10.989v-25.995c1.435-2.576,3.669-5.498,8.187-5.637
		h0.217c3.815,0,4.494,2.676,4.494,10.213v21.419h10.989v-23.518C110.701-456.707,106.248-462.412,97.823-462.412"/>
	<path clip-path="url(#SVGID_2_)" fill="#00AEEF" d="M-244.458-445.875h21.24v-26.09c0,0-11.967-3.904-27.034-4.404v24.7
		C-250.252-448.468-247.658-445.875-244.458-445.875"/>
	<path clip-path="url(#SVGID_2_)" fill="#233262" d="M-250.251-435.246v30.827c14.992-1.408,26.737-13.975,26.843-29.311h0.191
		v-6.578h-21.972C-247.986-440.308-250.251-438.042-250.251-435.246"/>
	<path clip-path="url(#SVGID_2_)" fill="#00AEEF" d="M-261.437-446.014h-21.24v-26.09c0,0,11.967-3.904,27.034-4.404v24.7
		C-255.643-448.607-258.237-446.014-261.437-446.014"/>
	<path clip-path="url(#SVGID_2_)" fill="#233262" d="M-255.643-435.385v30.827c-14.992-1.408-26.737-13.975-26.843-29.311h-0.191
		v-6.578h21.972C-257.909-440.447-255.643-438.181-255.643-435.385"/>
</g>
<text transform="matrix(1 0 0 1 -175.9238 -168.5703)"><tspan x="0" y="0" fill="#233262" font-family="'Oxygen'" font-size="10.8523">s</tspan><tspan x="5.773" y="0" fill="#233262" font-family="'Oxygen'" font-size="10.8523">w</tspan><tspan x="15.149" y="0" fill="#233262" font-family="'Oxygen'" font-size="10.8523">itzerl</tspan><tspan x="42.822" y="0" fill="#233262" font-family="'Oxygen'" font-size="10.8523">a</tspan><tspan x="49.16" y="0" fill="#233262" font-family="'Oxygen'" font-size="10.8523">n</tspan><tspan x="55.855" y="0" fill="#233262" font-family="'Oxygen'" font-size="10.8523">d</tspan></text>
<g>
	<defs>
		<rect id="SVGID_3_" x="-395" y="-645" width="612" height="792"/>
	</defs>
	<clipPath id="SVGID_4_">
		<use xlink:href="#SVGID_3_"  overflow="visible"/>
	</clipPath>
	<path clip-path="url(#SVGID_4_)" fill="#233262" d="M-294.589-192.406h6.664v5.921c-1.319,0.67-3.054,1.022-5.042,1.022
		c-5.396,0-8.49-3.794-8.49-10.41v-0.172c0.04-6.715,3.225-10.413,8.97-10.413c3.267,0,7.582,1.237,9.562,2.392l0.734,0.43
		l0.115-5.564l-0.192-0.154c-2.613-2.101-6.056-3.121-10.525-3.121c-9.644,0-16.123,6.585-16.123,16.385
		c0,10.06,6.346,16.56,16.167,16.56c4.868,0,8.211-1.448,11.219-2.932l0.278-0.138v-15.212h-13.016L-294.589-192.406z"/>
	<path clip-path="url(#SVGID_4_)" fill="#233262" d="M-266.806-185.604l-0.678,0.343c-0.009,0.002-0.232,0.06-1.103,0.06
		c-2.773,0-3.035-0.729-3.035-4.126v-22.998l-7.022-0.012v22.181c0,5.056,0.652,10.45,8.442,10.45c1.996,0,3.201-0.263,3.251-0.273
		l0.416-0.093l-0.288-4.747L-266.806-185.604z"/>
	<path clip-path="url(#SVGID_4_)" fill="#233262" d="M-255.379-204.49c-7.199,0-11.671,4.807-11.671,12.545
		c0,7.656,4.472,12.413,11.671,12.413c7.2,0,11.672-4.757,11.672-12.413C-243.708-199.684-248.179-204.49-255.379-204.49
		 M-250.467-191.945c0,4.452-1.79,7.006-4.912,7.006c-3.093,0-4.867-2.554-4.867-7.006c0-4.508,1.774-7.094,4.867-7.094
		C-252.257-199.039-250.467-196.453-250.467-191.945"/>
	<path clip-path="url(#SVGID_4_)" fill="#233262" d="M-228.686-204.49h-0.18c-3.047,0.034-5.154,1.117-6.39,2.403v-10.239h-7.022
		v32.359h6.921l0.059-2.143c1.439,1.654,3.628,2.577,6.219,2.577h0.305c6.005,0,10.363-5.294,10.363-12.588
		C-218.411-198.078-221.625-204.49-228.686-204.49 M-225.214-191.945c0,6.283-3.618,6.962-5.173,6.962
		c-1.387,0-3.863-0.446-4.954-3.415l0.039-7.147c1.205-3.15,3.834-3.493,4.915-3.493
		C-228.027-199.039-225.214-197.809-225.214-191.945"/>
	<path clip-path="url(#SVGID_4_)" fill="#233262" d="M-206.387-204.49h-0.536c-3.575,0.083-6.578,0.671-8.925,1.748l-0.293,0.134
		l0.018,4.668l0.643-0.194c4.729-1.435,8.269-0.911,8.269-0.911c2.666,0.442,2.898,0.966,2.898,3.435v0.621l-1.186,0.192
		c-7.409,1.078-11.949,2.054-11.949,8.264c0,4.188,3.077,7.002,7.656,7.002c2.685,0,4.599-0.978,6.515-2.493l0.515,2.058h5.515
		v-16.647C-197.247-201.62-200.578-204.49-206.387-204.49 M-204.313-186.058c-1.524,1.021-2.612,1.642-4.431,1.642
		c-1.995,0-2.293-1.464-2.293-2.337c0-2.647,2.146-3.146,5.69-3.652l1.034-0.167V-186.058z"/>
	<path clip-path="url(#SVGID_4_)" fill="#233262" d="M-177.364-186.505c-1.063,0.76-3.813,1.609-5.902,1.609
		c-3.78,0-5.697-2.416-5.697-7.181c0-4.425,2.029-6.963,5.566-6.963c1.967,0,5.144,0.949,5.946,1.521l0.801,0.571l-0.055-5.189
		l-0.202-0.147c-2.088-1.527-4.13-2.166-7.057-2.207h-0.175c-5.788,0-11.628,3.771-11.628,12.195c0,7.991,4.51,12.763,12.064,12.763
		h0.088c3.107,0,4.914-0.789,6.822-2.062l0.222-0.148l-0.003-5.326L-177.364-186.505z"/>
	<path clip-path="url(#SVGID_4_)" fill="#233262" d="M-164.083-204.49c-7.2,0-11.672,4.807-11.672,12.545
		c0,7.656,4.472,12.413,11.672,12.413c7.2,0,11.672-4.757,11.672-12.413C-152.412-199.684-156.883-204.49-164.083-204.49
		 M-159.172-191.945c0,4.452-1.79,7.006-4.911,7.006c-3.094,0-4.868-2.554-4.868-7.006c0-4.508,1.774-7.094,4.868-7.094
		C-160.962-199.039-159.172-196.453-159.172-191.945"/>
	<path clip-path="url(#SVGID_4_)" fill="#233262" d="M-122.789-204.49h-0.262c-3.027,0-5.572,1.126-7.76,3.438
		c-1.161-2.252-3.215-3.438-5.986-3.438h-0.276c-2.743,0.072-5.416,1.271-7.341,3.253l-0.38-2.381h-6.032v23.65h7.022v-15.856
		c1.277-2.134,2.841-3.215,4.65-3.215c2.441,0,2.904,1.956,2.904,5.566v13.505h7.022v-15.819c0.839-1.496,2.144-3.172,4.737-3.252
		h0.131c2.018,0,2.511,1.17,2.511,5.959v13.112h7.022v-14.377C-114.827-200.982-117.58-204.49-122.789-204.49"/>
	<path clip-path="url(#SVGID_4_)" fill="#233262" d="M-329.152-194.321h12.806v-15.73c0,0-7.215-2.353-16.299-2.655v14.893
		C-332.645-195.886-331.081-194.321-329.152-194.321"/>
	<path clip-path="url(#SVGID_4_)" fill="#233262" d="M-332.645-187.914v18.586c9.039-0.849,16.12-8.426,16.184-17.672h0.115v-3.966
		h-13.247C-331.279-190.966-332.645-189.599-332.645-187.914"/>
	<path clip-path="url(#SVGID_4_)" fill="#233262" d="M-339.389-194.405h-12.806v-15.73c0,0,7.215-2.353,16.299-2.655v14.893
		C-335.896-195.97-337.46-194.405-339.389-194.405"/>
	<path clip-path="url(#SVGID_4_)" fill="#233262" d="M-335.896-187.998v18.586c-9.039-0.849-16.12-8.426-16.184-17.672h-0.115
		v-3.966h13.247C-337.262-191.05-335.896-189.683-335.896-187.998"/>
	<path clip-path="url(#SVGID_4_)" fill="#00AEEF" d="M-218.366,31.59h20.665V6.206c0,0-11.643-3.797-26.302-4.284v24.031
		C-224.002,29.066-221.479,31.59-218.366,31.59"/>
	<path clip-path="url(#SVGID_4_)" fill="#233262" d="M-224.002,41.931v29.991c14.586-1.369,26.012-13.596,26.116-28.517h0.186v-6.4
		h-21.377C-221.798,37.005-224.002,39.21-224.002,41.931"/>
	<path clip-path="url(#SVGID_4_)" fill="#00AEEF" d="M-234.885,31.455h-20.665V6.071c0,0,11.643-3.798,26.302-4.284v24.03
		C-229.248,28.931-231.772,31.455-234.885,31.455"/>
	<path clip-path="url(#SVGID_4_)" fill="#233262" d="M-229.248,41.795v29.992c-14.586-1.37-26.012-13.597-26.116-28.518h-0.186
		V36.87h21.377C-231.453,36.87-229.248,39.075-229.248,41.795"/>
	<path clip-path="url(#SVGID_4_)" fill="#DCDDCC" d="M38.635,31.59H59.3V6.206c0,0-11.644-3.797-26.303-4.284v24.031
		C32.997,29.066,35.521,31.59,38.635,31.59"/>
	<path clip-path="url(#SVGID_4_)" fill="#DCDDCC" d="M32.997,41.931v29.991c14.586-1.369,26.013-13.596,26.116-28.517H59.3v-6.4
		H37.923C35.202,37.005,32.997,39.21,32.997,41.931"/>
	<path clip-path="url(#SVGID_4_)" fill="#DCDDCC" d="M22.115,31.455H1.45V6.071c0,0,11.643-3.798,26.302-4.284v24.03
		C27.752,28.931,25.229,31.455,22.115,31.455"/>
	<path clip-path="url(#SVGID_4_)" fill="#DCDDCC" d="M27.752,41.795v29.992C13.166,70.417,1.74,58.19,1.636,43.27H1.45V36.87h21.377
		C25.547,36.87,27.752,39.075,27.752,41.795"/>
</g>
<text transform="matrix(1 0 0 1 111.0898 -168.5703)"><tspan x="0" y="0" fill="#00AEEF" font-family="'Oxygen'" font-size="10.8523">swit</tspan><tspan x="22.909" y="0" fill="#00AEEF" font-family="'Oxygen'" font-size="10.8523">z</tspan><tspan x="28.27" y="0" fill="#00AEEF" font-family="'Oxygen'" font-size="10.8523">erl</tspan><tspan x="42.822" y="0" fill="#00AEEF" font-family="'Oxygen'" font-size="10.8523">a</tspan><tspan x="49.16" y="0" fill="#00AEEF" font-family="'Oxygen'" font-size="10.8523">n</tspan><tspan x="55.855" y="0" fill="#00AEEF" font-family="'Oxygen'" font-size="10.8523">d</tspan></text>
<g>
	<defs>
		<rect id="SVGID_5_" x="-395" y="-645" width="612" height="792"/>
	</defs>
	<clipPath id="SVGID_6_">
		<use xlink:href="#SVGID_5_"  overflow="visible"/>
	</clipPath>
	<path clip-path="url(#SVGID_6_)" fill="#00AEEF" d="M-7.575-192.406h6.663v5.921c-1.318,0.67-3.054,1.022-5.042,1.022
		c-5.396,0-8.49-3.794-8.49-10.41v-0.172c0.041-6.715,3.227-10.413,8.97-10.413c3.267,0,7.582,1.237,9.562,2.392l0.734,0.43
		l0.115-5.564l-0.191-0.154c-2.614-2.101-6.058-3.121-10.525-3.121c-9.645,0-16.124,6.585-16.124,16.385
		c0,10.06,6.346,16.56,16.167,16.56c4.867,0,8.211-1.448,11.219-2.932l0.279-0.138v-15.212H-7.254L-7.575-192.406z"/>
	<path clip-path="url(#SVGID_6_)" fill="#00AEEF" d="M20.207-185.604l-0.679,0.344c-0.009,0.002-0.231,0.06-1.102,0.06
		c-2.773,0-3.035-0.729-3.035-4.126v-22.998l-7.022-0.012v22.181c0,5.056,0.652,10.45,8.441,10.45c1.997,0,3.201-0.263,3.251-0.273
		l0.417-0.093l-0.288-4.747L20.207-185.604z"/>
	<path clip-path="url(#SVGID_6_)" fill="#00AEEF" d="M31.634-204.49c-7.199,0-11.672,4.807-11.672,12.545
		c0,7.656,4.473,12.413,11.672,12.413s11.672-4.757,11.672-12.413C43.306-199.684,38.833-204.49,31.634-204.49 M36.546-191.945
		c0,4.452-1.79,7.006-4.912,7.006c-3.093,0-4.867-2.554-4.867-7.006c0-4.508,1.774-7.094,4.867-7.094
		C34.756-199.039,36.546-196.453,36.546-191.945"/>
	<path clip-path="url(#SVGID_6_)" fill="#00AEEF" d="M58.327-204.49h-0.181c-3.046,0.034-5.152,1.117-6.389,2.403v-10.239h-7.022
		v32.359h6.921l0.06-2.143c1.438,1.654,3.628,2.577,6.219,2.577h0.306c6.004,0,10.362-5.294,10.362-12.588
		C68.603-198.078,65.387-204.49,58.327-204.49 M61.799-191.945c0,6.283-3.618,6.962-5.174,6.962c-1.387,0-3.862-0.446-4.954-3.415
		l0.039-7.147c1.205-3.15,3.834-3.493,4.915-3.493C58.985-199.039,61.799-197.809,61.799-191.945"/>
	<path clip-path="url(#SVGID_6_)" fill="#00AEEF" d="M80.626-204.49H80.09c-3.574,0.083-6.578,0.671-8.924,1.748l-0.293,0.134
		l0.018,4.668l0.642-0.194c4.731-1.435,8.269-0.911,8.27-0.911c2.666,0.442,2.898,0.966,2.898,3.435v0.621l-1.187,0.192
		c-7.408,1.078-11.949,2.054-11.949,8.264c0,4.188,3.077,7.002,7.656,7.002c2.685,0,4.599-0.978,6.515-2.493l0.515,2.058h5.517
		v-16.647C89.767-201.62,86.435-204.49,80.626-204.49 M82.7-186.058c-1.524,1.021-2.612,1.642-4.432,1.642
		c-1.995,0-2.293-1.464-2.293-2.337c0-2.647,2.146-3.146,5.69-3.652l1.034-0.167V-186.058z"/>
	<path clip-path="url(#SVGID_6_)" fill="#00AEEF" d="M109.648-186.505c-1.063,0.76-3.813,1.609-5.901,1.609
		c-3.78,0-5.697-2.416-5.697-7.181c0-4.425,2.029-6.963,5.566-6.963c1.967,0,5.144,0.949,5.946,1.521l0.801,0.571l-0.056-5.189
		l-0.202-0.147c-2.087-1.527-4.13-2.166-7.057-2.207h-0.175c-5.789,0-11.629,3.771-11.629,12.195
		c0,7.991,4.509,12.763,12.064,12.763h0.088c3.105,0,4.914-0.789,6.822-2.062l0.223-0.148l-0.004-5.326L109.648-186.505z"/>
	<path clip-path="url(#SVGID_6_)" fill="#00AEEF" d="M122.93-204.49c-7.199,0-11.672,4.807-11.672,12.545
		c0,7.656,4.473,12.413,11.672,12.413s11.672-4.757,11.672-12.413C134.602-199.684,130.129-204.49,122.93-204.49 M127.841-191.945
		c0,4.452-1.79,7.006-4.911,7.006c-3.094,0-4.868-2.554-4.868-7.006c0-4.508,1.774-7.094,4.868-7.094
		C126.051-199.039,127.841-196.453,127.841-191.945"/>
	<path clip-path="url(#SVGID_6_)" fill="#00AEEF" d="M164.225-204.49h-0.262c-3.026,0-5.572,1.126-7.761,3.438
		c-1.16-2.252-3.215-3.438-5.986-3.438h-0.274c-2.744,0.072-5.416,1.271-7.342,3.253l-0.38-2.381h-6.032v23.65h7.022v-15.856
		c1.276-2.134,2.841-3.215,4.649-3.215c2.44,0,2.903,1.956,2.903,5.566v13.505h7.022v-15.819c0.84-1.496,2.144-3.172,4.737-3.252
		h0.131c2.018,0,2.511,1.17,2.511,5.959v13.112h7.022v-14.377C172.187-200.982,169.434-204.49,164.225-204.49"/>
	<path clip-path="url(#SVGID_6_)" fill="#00AEEF" d="M-42.139-194.321h12.806v-15.73c0,0-7.215-2.353-16.299-2.655v14.893
		C-45.632-195.886-44.068-194.321-42.139-194.321"/>
	<path clip-path="url(#SVGID_6_)" fill="#00AEEF" d="M-45.632-187.914v18.586c9.038-0.849,16.119-8.426,16.184-17.672h0.115v-3.966
		H-42.58C-44.267-190.966-45.632-189.599-45.632-187.914"/>
	<path clip-path="url(#SVGID_6_)" fill="#00AEEF" d="M-52.376-194.405h-12.806v-15.73c0,0,7.215-2.353,16.299-2.655v14.893
		C-48.883-195.97-50.447-194.405-52.376-194.405"/>
	<path clip-path="url(#SVGID_6_)" fill="#00AEEF" d="M-48.883-187.998v18.586c-9.039-0.849-16.12-8.426-16.184-17.672h-0.115v-3.966
		h13.247C-50.249-191.05-48.883-189.683-48.883-187.998"/>
</g>
<text transform="matrix(1 0 0 1 -339.8496 -566.3457)" font-family="'Oxygen'" font-size="10">Logo full color</text>
<text transform="matrix(1 0 0 1 -339.8496 -554.3457)" font-family="'Oxygen'" font-size="10">with positioning statement</text>
<text transform="matrix(1 0 0 1 117.1504 -562.3457)" font-family="'Oxygen'" font-size="10">00adef</text>
<text transform="matrix(1 0 0 1 117.1504 -540.3457)" font-family="'Oxygen'" font-size="10">243262</text>
<text transform="matrix(1 0 0 1 -353.1196 -269.8857)" font-family="'Oxygen'" font-size="10">Logo one color</text>
<text transform="matrix(1 0 0 1 -353.1196 -34.8857)" font-family="'Oxygen'" font-size="10">Icon</text>
<text transform="matrix(1 0 0 1 -354.8896 -253.9556)" font-family="'Oxygen'" font-size="10">Primary </text>
<text transform="matrix(1 0 0 1 -66.3896 -253.9556)" font-family="'Oxygen'" font-size="10">Secondary </text>
<g>
	<defs>
		<rect id="SVGID_7_" x="-395" y="-645" width="612" height="792"/>
	</defs>
	<clipPath id="SVGID_8_">
		<use xlink:href="#SVGID_7_"  overflow="visible"/>
	</clipPath>
	<rect x="10" y="-581" clip-path="url(#SVGID_8_)" fill="#00AEEF" width="100.593" height="22.875"/>
	<rect x="10" y="-555.999" clip-path="url(#SVGID_8_)" fill="#233262" width="100.593" height="22.875"/>
</g>
</svg>
