<?xml version="1.0" encoding="utf-8"?>
<!-- Generator: Adobe Illustrator 16.0.0, SVG Export Plug-In . SVG Version: 6.00 Build 0)  -->
<!DOCTYPE svg PUBLIC "-//W3C//DTD SVG 1.1//EN" "http://www.w3.org/Graphics/SVG/1.1/DTD/svg11.dtd">
<svg version="1.1" id="Layer_1" xmlns="http://www.w3.org/2000/svg" xmlns:xlink="http://www.w3.org/1999/xlink" x="0px" y="0px"
	 viewBox="0 0 319.967 60.104" enable-background="new 0 0 319.967 60.104"
	 xml:space="preserve">
<rect x="-86.376" y="-235" fill="transparent" width="504" height="360"/>
<text transform="matrix(1 0 0 1 237.1865 -60.3955)"><tspan x="0" y="0" fill="#FFFFFF" font-family="'Oxygen'" font-size="14.6496" letter-spacing="1">s</tspan><tspan x="7.793" y="0" fill="#FFFFFF" font-family="'Oxygen'" font-size="14.6496" letter-spacing="1">w</tspan><tspan x="20.45" y="0" fill="#FFFFFF" font-family="'Oxygen'" font-size="14.6496" letter-spacing="1">itzerlan</tspan><tspan x="75.415" y="0" fill="#FFFFFF" font-family="'Oxygen'" font-size="14.6496">d</tspan></text>
<g>
	<defs>
		<rect id="SVGID_1_" x="-86.376" y="-235" width="504" height="360"/>
	</defs>
	<clipPath id="SVGID_2_">
		<use xlink:href="#SVGID_1_"  overflow="visible"/>
	</clipPath>
	<path clip-path="url(#SVGID_2_)" fill="#FFFFFF" d="M77.93-92.875h8.977v8.481c-1.844,0.981-4.296,1.499-7.11,1.499
		c-7.477,0-11.765-5.233-11.765-14.357v-0.234c0.056-9.259,4.464-14.358,12.413-14.358c4.459,0,10.354,1.691,13.061,3.27
		l0.545,0.318l0.141-6.845l-0.142-0.114c-3.473-2.79-8.059-4.146-14.017-4.146c-12.837,0-21.462,8.766-21.462,21.814
		c0,13.395,8.447,22.051,21.52,22.051c6.506,0,10.983-1.939,15.01-3.927l0.207-0.102v-20.042H78.327L77.93-92.875z"/>
	<path clip-path="url(#SVGID_2_)" fill="#FFFFFF" d="M114.786-82.886l-0.503,0.252c-0.012,0.004-0.304,0.093-1.575,0.093
		c-3.968,0-4.4-1.189-4.4-5.873v-30.743l-8.873-0.014v29.637c0,8.522,1.856,13.804,11.094,13.804c2.66,0,4.255-0.349,4.322-0.363
		l0.309-0.069l-0.373-6.148L114.786-82.886z"/>
	<path clip-path="url(#SVGID_2_)" fill="#FFFFFF" d="M130.537-108.58c-9.531,0-15.452,6.373-15.452,16.631
		c0,10.149,5.921,16.454,15.452,16.454c9.531,0,15.453-6.305,15.453-16.454C145.99-102.207,140.068-108.58,130.537-108.58
		 M137.471-91.949c0,6.112-2.592,9.761-6.934,9.761c-4.369,0-6.875-3.558-6.875-9.761c0-6.279,2.506-9.88,6.875-9.88
		C134.879-101.829,137.471-98.135,137.471-91.949"/>
	<path clip-path="url(#SVGID_2_)" fill="#FFFFFF" d="M166.57-108.58h-0.24c-4.492,0.051-7.425,1.819-8.932,3.753v-14.331h-8.872
		v43.073h8.744l0.094-3.428c1.855,2.569,4.948,4.018,8.676,4.018h0.413c7.93,0,13.685-7.019,13.685-16.69
		C180.138-103.45,173.104-108.58,166.57-108.58 M171.561-91.949c0,8.757-5.096,9.702-7.287,9.702c-1.96,0-5.466-0.633-6.991-4.861
		l0.053-9.757c1.172-3.11,3.761-4.964,6.938-4.964C166.994-101.829,171.561-100.545,171.561-91.949"/>
	<path clip-path="url(#SVGID_2_)" fill="#FFFFFF" d="M196.672-108.581h-0.716c-4.783,0.112-8.796,0.896-11.929,2.332l-0.218,0.1
		l0.023,5.698l0.476-0.145c6.472-1.96,11.294-1.239,11.301-1.238c3.782,0.627,4.166,1.495,4.166,4.936v1.098l-1.861,0.302
		c-10.136,1.473-15.87,2.703-15.87,10.853c0,5.473,4.031,9.149,10.032,9.149c3.708,0,6.312-1.422,8.974-3.597l0.752,3.008h6.906
		v-22.168C208.708-104.816,204.32-108.581,196.672-108.581 M199.775-90.453v6.612c-2.177,1.466-3.69,2.36-6.284,2.36
		c-2.16,0-3.399-1.26-3.399-3.458c0-3.812,3.139-4.545,7.935-5.23L199.775-90.453z"/>
	<path clip-path="url(#SVGID_2_)" fill="#FFFFFF" d="M236.026-84.357c-1.633,1.167-5.515,2.229-8.144,2.229
		c-5.304,0-7.994-3.364-7.994-9.998c0-6.166,2.85-9.702,7.817-9.702c2.706,0,7.092,1.317,8.203,2.11l0.595,0.425l-0.067-6.256
		l-0.149-0.109c-2.76-2.021-5.467-2.867-9.348-2.922h-0.235c-7.662,0-15.394,4.997-15.394,16.16
		c0,10.598,5.976,16.925,15.983,16.925h0.118c4.115,0,6.51-1.045,9.04-2.732l0.166-0.11l-0.005-6.439L236.026-84.357z"/>
	<path clip-path="url(#SVGID_2_)" fill="#FFFFFF" d="M253.778-108.58c-9.531,0-15.452,6.373-15.452,16.631
		c0,10.149,5.921,16.454,15.452,16.454s15.451-6.305,15.451-16.454C269.229-102.207,263.31-108.58,253.778-108.58 M260.711-91.949
		c0,6.112-2.592,9.761-6.933,9.761c-4.37,0-6.876-3.558-6.876-9.761c0-6.279,2.506-9.88,6.876-9.88
		C258.119-101.829,260.711-98.135,260.711-91.949"/>
	<path clip-path="url(#SVGID_2_)" fill="#FFFFFF" d="M309.522-108.58h-0.354c-4.135,0-7.593,1.594-10.555,4.868
		c-1.474-3.188-4.229-4.868-8.003-4.868h-0.361c-3.828,0.101-7.554,1.862-10.121,4.752l-0.57-3.573h-7.58v31.317h8.872v-21.184
		c1.789-3.026,4.003-4.56,6.581-4.56c3.532,0,4.223,2.866,4.223,7.817v17.927h8.872v-21.13c1.171-2.107,2.997-4.5,6.698-4.614h0.177
		c3.136,0,3.694,2.187,3.694,8.347v17.397h8.871v-19.105C319.967-103.949,316.355-108.58,309.522-108.58"/>
	<path clip-path="url(#SVGID_2_)" fill="#FFFFFF" d="M30.95-95.157h17.287v-21.234c0,0-9.74-3.177-22.003-3.584v20.102
		C26.234-97.268,28.346-95.157,30.95-95.157"/>
	<path clip-path="url(#SVGID_2_)" fill="#FFFFFF" d="M26.235-86.507v25.089c12.202-1.146,21.76-11.373,21.847-23.855h0.155v-5.354
		H30.355C28.079-90.627,26.235-88.782,26.235-86.507"/>
	<path clip-path="url(#SVGID_2_)" fill="#FFFFFF" d="M17.131-95.27H-0.155v-21.234c0,0,9.74-3.177,22.003-3.584v20.102
		C21.848-97.381,19.735-95.27,17.131-95.27"/>
	<path clip-path="url(#SVGID_2_)" fill="#FFFFFF" d="M21.847-86.62v25.089C9.645-62.677,0.087-72.904,0-85.386h-0.155v-5.354h17.882
		C20.003-90.74,21.847-88.895,21.847-86.62"/>
</g>
<text transform="matrix(1 0 0 1 237.1865 60.1045)"><tspan x="0" y="0" fill="#00AEEF" font-family="'Oxygen'" font-size="14.6496" letter-spacing="1">s</tspan><tspan x="7.793" y="0" fill="#00AEEF" font-family="'Oxygen'" font-size="14.6496" letter-spacing="1">w</tspan><tspan x="20.45" y="0" fill="#00AEEF" font-family="'Oxygen'" font-size="14.6496" letter-spacing="1">itzerlan</tspan><tspan x="75.415" y="0" fill="#00AEEF" font-family="'Oxygen'" font-size="14.6496">d</tspan></text>
<g>
	<defs>
		<rect id="SVGID_3_" x="-86.376" y="-235" width="504" height="360"/>
	</defs>
	<clipPath id="SVGID_4_">
		<use xlink:href="#SVGID_3_"  overflow="visible"/>
	</clipPath>
	<path clip-path="url(#SVGID_4_)" fill="#00AEEF" d="M77.93,27.626h8.977v8.48c-1.844,0.981-4.296,1.499-7.11,1.499
		c-7.477,0-11.765-5.232-11.765-14.356v-0.234c0.056-9.259,4.464-14.358,12.413-14.358c4.459,0,10.354,1.691,13.061,3.271
		l0.545,0.318l0.141-6.846L94.05,5.286c-3.473-2.79-8.059-4.146-14.017-4.146c-12.837,0-21.462,8.766-21.462,21.814
		c0,13.395,8.447,22.051,21.52,22.051c6.506,0,10.983-1.939,15.01-3.927l0.207-0.103V20.934H78.327L77.93,27.626z"/>
	<path clip-path="url(#SVGID_4_)" fill="#00AEEF" d="M114.786,37.613l-0.503,0.252c-0.012,0.004-0.304,0.094-1.575,0.094
		c-3.968,0-4.4-1.189-4.4-5.874V1.343l-8.873-0.015v29.638c0,8.521,1.856,13.804,11.094,13.804c2.66,0,4.255-0.349,4.322-0.363
		l0.309-0.068l-0.373-6.148L114.786,37.613z"/>
	<path clip-path="url(#SVGID_4_)" fill="#00AEEF" d="M130.537,11.92c-9.531,0-15.452,6.373-15.452,16.631
		c0,10.149,5.921,16.454,15.452,16.454c9.531,0,15.453-6.305,15.453-16.454C145.99,18.293,140.068,11.92,130.537,11.92
		 M137.471,28.551c0,6.112-2.592,9.761-6.934,9.761c-4.369,0-6.875-3.558-6.875-9.761c0-6.279,2.506-9.88,6.875-9.88
		C134.879,18.671,137.471,22.365,137.471,28.551"/>
	<path clip-path="url(#SVGID_4_)" fill="#00AEEF" d="M166.57,11.92h-0.24c-4.492,0.051-7.425,1.819-8.932,3.753V1.342h-8.872v43.073
		h8.744l0.094-3.428c1.855,2.568,4.948,4.018,8.676,4.018h0.413c7.93,0,13.685-7.019,13.685-16.69
		C180.138,17.05,173.104,11.92,166.57,11.92 M171.561,28.551c0,8.757-5.096,9.702-7.287,9.702c-1.96,0-5.466-0.633-6.991-4.861
		l0.053-9.757c1.172-3.109,3.761-4.964,6.938-4.964C166.994,18.671,171.561,19.955,171.561,28.551"/>
	<path clip-path="url(#SVGID_4_)" fill="#00AEEF" d="M196.672,11.919h-0.716c-4.783,0.112-8.796,0.896-11.929,2.332l-0.218,0.101
		l0.023,5.697l0.476-0.145c6.472-1.96,11.294-1.239,11.301-1.238c3.782,0.627,4.166,1.495,4.166,4.937V24.7l-1.861,0.302
		c-10.136,1.474-15.87,2.703-15.87,10.854c0,5.473,4.031,9.148,10.032,9.148c3.708,0,6.312-1.422,8.974-3.597l0.752,3.008h6.906
		V22.247C208.708,15.684,204.32,11.919,196.672,11.919 M199.775,30.047v6.612c-2.177,1.466-3.69,2.36-6.284,2.36
		c-2.16,0-3.399-1.26-3.399-3.458c0-3.812,3.139-4.545,7.935-5.23L199.775,30.047z"/>
	<path clip-path="url(#SVGID_4_)" fill="#00AEEF" d="M236.026,36.143c-1.633,1.167-5.515,2.229-8.144,2.229
		c-5.304,0-7.994-3.363-7.994-9.998c0-6.166,2.85-9.701,7.817-9.701c2.706,0,7.092,1.316,8.203,2.109l0.595,0.425l-0.067-6.256
		l-0.149-0.108c-2.76-2.021-5.467-2.867-9.348-2.922h-0.235c-7.662,0-15.394,4.996-15.394,16.159
		c0,10.599,5.976,16.926,15.983,16.926h0.118c4.115,0,6.51-1.045,9.04-2.732l0.166-0.11l-0.005-6.438L236.026,36.143z"/>
	<path clip-path="url(#SVGID_4_)" fill="#00AEEF" d="M253.778,11.92c-9.531,0-15.452,6.373-15.452,16.631
		c0,10.149,5.921,16.454,15.452,16.454s15.451-6.305,15.451-16.454C269.229,18.293,263.31,11.92,253.778,11.92 M260.711,28.551
		c0,6.112-2.592,9.761-6.933,9.761c-4.37,0-6.876-3.558-6.876-9.761c0-6.279,2.506-9.88,6.876-9.88
		C258.119,18.671,260.711,22.365,260.711,28.551"/>
	<path clip-path="url(#SVGID_4_)" fill="#00AEEF" d="M309.522,11.92h-0.354c-4.135,0-7.593,1.594-10.555,4.868
		c-1.474-3.188-4.229-4.868-8.003-4.868h-0.361c-3.828,0.101-7.554,1.861-10.121,4.752l-0.57-3.573h-7.58v31.317h8.872V23.231
		c1.789-3.025,4.003-4.56,6.581-4.56c3.532,0,4.223,2.866,4.223,7.816v17.928h8.872v-21.13c1.171-2.107,2.997-4.5,6.698-4.614h0.177
		c3.136,0,3.694,2.187,3.694,8.347v17.397h8.871V25.311C319.967,16.551,316.355,11.92,309.522,11.92"/>
	<path clip-path="url(#SVGID_4_)" fill="#00AEEF" d="M30.95,25.344h17.287V4.109c0,0-9.74-3.177-22.003-3.584v20.102
		C26.234,23.232,28.346,25.344,30.95,25.344"/>
	<path clip-path="url(#SVGID_4_)" fill="#00AEEF" d="M26.235,33.993v25.089c12.202-1.146,21.76-11.373,21.847-23.854h0.155v-5.354
		H30.355C28.079,29.873,26.235,31.718,26.235,33.993"/>
	<path clip-path="url(#SVGID_4_)" fill="#00AEEF" d="M17.131,25.23H-0.155V3.996c0,0,9.74-3.177,22.003-3.584v20.102
		C21.848,23.119,19.735,25.23,17.131,25.23"/>
	<path clip-path="url(#SVGID_4_)" fill="#00AEEF" d="M21.847,33.88v25.089C9.645,57.823,0.087,47.596,0,35.114h-0.155V29.76h17.882
		C20.003,29.76,21.847,31.604,21.847,33.88"/>
</g>
<text transform="matrix(1 0 0 1 -55.376 -163)" fill="#FFFFFF" font-family="'Oxygen'" font-size="9">Logo One Color on dark bg</text>
</svg>
