<?xml version="1.0" encoding="utf-8"?>
<!-- Generator: Adobe Illustrator 16.0.0, SVG Export Plug-In . SVG Version: 6.00 Build 0)  -->
<!DOCTYPE svg PUBLIC "-//W3C//DTD SVG 1.1//EN" "http://www.w3.org/Graphics/SVG/1.1/DTD/svg11.dtd">
<svg version="1.1" id="Layer_1" xmlns="http://www.w3.org/2000/svg" xmlns:xlink="http://www.w3.org/1999/xlink" x="0px" y="0px"
	 viewBox="0 0 35.25 43.011" enable-background="new 0 0 35.25 43.011" xml:space="preserve">
<rect x="-95.25" y="-44.5" fill="transparent" width="504" height="152"/>
<text transform="matrix(1 0 0 1 -31.2524 -192.501)" fill="#58595B" font-family="'Oxygen'" font-size="9">Shield Icon scaled:</text>
<g>
	<defs>
		<rect id="SVGID_1_" x="-95.25" y="-252.5" width="504" height="360"/>
	</defs>
	<clipPath id="SVGID_2_">
		<use xlink:href="#SVGID_1_"  overflow="visible"/>
	</clipPath>
	<path clip-path="url(#SVGID_2_)" fill="#00AEEF" d="M22.703-126.768h12.566v-15.436c0,0-7.079-2.31-15.994-2.606v14.614
		C19.275-128.303,20.81-126.768,22.703-126.768"/>
	<path clip-path="url(#SVGID_2_)" fill="#233262" d="M19.275-120.479v18.239c8.87-0.834,15.819-8.268,15.882-17.342h0.112v-3.892
		H22.27C20.616-123.475,19.275-122.134,19.275-120.479"/>
	<path clip-path="url(#SVGID_2_)" fill="#00AEEF" d="M12.657-126.85H0.091v-15.436c0,0,7.079-2.31,15.994-2.606v14.614
		C16.085-128.385,14.55-126.85,12.657-126.85"/>
	<path clip-path="url(#SVGID_2_)" fill="#233262" d="M16.085-120.562v18.239c-8.87-0.834-15.819-8.268-15.882-17.342H0.091v-3.892
		H13.09C14.744-123.557,16.085-122.216,16.085-120.562"/>
	<path clip-path="url(#SVGID_2_)" fill="#00AEEF" d="M167.691-114.504h6.283v-7.718c0,0-3.54-1.155-7.997-1.303v7.307
		C165.978-115.271,166.744-114.504,167.691-114.504"/>
	<path clip-path="url(#SVGID_2_)" fill="#233262" d="M165.978-111.36v9.119c4.435-0.416,7.909-4.134,7.941-8.67h0.056v-1.946h-6.5
		C166.647-112.857,165.978-112.188,165.978-111.36"/>
	<path clip-path="url(#SVGID_2_)" fill="#00AEEF" d="M162.669-114.545h-6.283v-7.718c0,0,3.54-1.155,7.997-1.303v7.307
		C164.383-115.312,163.615-114.545,162.669-114.545"/>
	<path clip-path="url(#SVGID_2_)" fill="#233262" d="M164.383-111.401v9.119c-4.436-0.416-7.909-4.134-7.941-8.67h-0.056v-1.946h6.5
		C163.713-112.898,164.383-112.229,164.383-111.401"/>
	<path clip-path="url(#SVGID_2_)" fill="#00AEEF" d="M298.436-108.373h3.143v-3.859c0,0-1.771-0.577-3.999-0.651v3.653
		C297.579-108.757,297.963-108.373,298.436-108.373"/>
	<path clip-path="url(#SVGID_2_)" fill="none" stroke="#FFFFFF" stroke-width="0.25" stroke-miterlimit="10" d="M298.436-108.373
		h3.143v-3.859c0,0-1.771-0.577-3.999-0.651v3.653C297.579-108.757,297.963-108.373,298.436-108.373z"/>
	<path clip-path="url(#SVGID_2_)" fill="#233262" d="M297.579-106.801v4.56c2.218-0.209,3.955-2.067,3.97-4.336h0.029v-0.973h-3.25
		C297.914-107.55,297.579-107.213,297.579-106.801"/>
	<path clip-path="url(#SVGID_2_)" fill="none" stroke="#FFFFFF" stroke-width="0.25" stroke-miterlimit="10" d="M297.579-106.801
		v4.56c2.218-0.209,3.955-2.067,3.97-4.336h0.029v-0.973h-3.25C297.914-107.55,297.579-107.213,297.579-106.801z"/>
	<path clip-path="url(#SVGID_2_)" fill="#00AEEF" d="M295.925-108.393h-3.143v-3.859c0,0,1.771-0.577,3.999-0.651v3.653
		C296.781-108.777,296.397-108.393,295.925-108.393"/>
	<path clip-path="url(#SVGID_2_)" fill="none" stroke="#FFFFFF" stroke-width="0.25" stroke-miterlimit="10" d="M295.925-108.393
		h-3.143v-3.859c0,0,1.771-0.577,3.999-0.651v3.653C296.781-108.777,296.397-108.393,295.925-108.393z"/>
	<path clip-path="url(#SVGID_2_)" fill="#233262" d="M296.781-106.821v4.56c-2.217-0.209-3.955-2.067-3.97-4.336h-0.029v-0.973h3.25
		C296.446-107.57,296.781-107.234,296.781-106.821"/>
	<path clip-path="url(#SVGID_2_)" fill="none" stroke="#FFFFFF" stroke-width="0.25" stroke-miterlimit="10" d="M296.781-106.821
		v4.56c-2.217-0.209-3.955-2.067-3.97-4.336h-0.029v-0.973h3.25C296.446-107.57,296.781-107.234,296.781-106.821z"/>
	<path clip-path="url(#SVGID_2_)" fill="#FFFFFF" d="M22.703,18.565h12.566V3.13c0,0-7.079-2.311-15.994-2.606v14.614
		C19.275,17.03,20.81,18.565,22.703,18.565"/>
	<path clip-path="url(#SVGID_2_)" fill="#FFFFFF" d="M19.275,24.854v18.239c8.87-0.834,15.819-8.269,15.882-17.342h0.112v-3.893
		H22.27C20.616,21.858,19.275,23.199,19.275,24.854"/>
	<path clip-path="url(#SVGID_2_)" fill="#FFFFFF" d="M12.657,18.483H0.091V3.047c0,0,7.079-2.31,15.994-2.605v14.614
		C16.085,16.948,14.55,18.483,12.657,18.483"/>
	<path clip-path="url(#SVGID_2_)" fill="#FFFFFF" d="M16.085,24.771v18.239c-8.87-0.834-15.819-8.269-15.882-17.343H0.091v-3.892
		H13.09C14.744,21.776,16.085,23.117,16.085,24.771"/>
	<path clip-path="url(#SVGID_2_)" fill="#FFFFFF" d="M167.691,30.829h6.283v-7.718c0,0-3.54-1.155-7.997-1.304v7.308
		C165.978,30.062,166.744,30.829,167.691,30.829"/>
	<path clip-path="url(#SVGID_2_)" fill="#FFFFFF" d="M165.978,33.973v9.119c4.435-0.416,7.909-4.134,7.941-8.67h0.056v-1.946h-6.5
		C166.647,32.476,165.978,33.146,165.978,33.973"/>
	<path clip-path="url(#SVGID_2_)" fill="#FFFFFF" d="M162.669,30.788h-6.283V23.07c0,0,3.54-1.155,7.997-1.304v7.308
		C164.383,30.021,163.615,30.788,162.669,30.788"/>
	<path clip-path="url(#SVGID_2_)" fill="#FFFFFF" d="M164.383,33.932v9.119c-4.436-0.416-7.909-4.134-7.941-8.67h-0.056v-1.946h6.5
		C163.713,32.435,164.383,33.104,164.383,33.932"/>
	<path clip-path="url(#SVGID_2_)" fill="#FFFFFF" d="M298.436,36.961h3.143v-3.859c0,0-1.771-0.577-3.999-0.65v3.652
		C297.579,36.577,297.963,36.961,298.436,36.961"/>
	<path clip-path="url(#SVGID_2_)" fill="#FFFFFF" d="M297.579,38.532v4.561c2.218-0.209,3.955-2.067,3.97-4.336h0.029v-0.973h-3.25
		C297.914,37.784,297.579,38.12,297.579,38.532"/>
	<path clip-path="url(#SVGID_2_)" fill="#FFFFFF" d="M295.925,36.94h-3.143v-3.859c0,0,1.771-0.577,3.999-0.651v3.653
		C296.781,36.556,296.397,36.94,295.925,36.94"/>
	<path clip-path="url(#SVGID_2_)" fill="#FFFFFF" d="M296.781,38.512v4.561c-2.217-0.209-3.955-2.067-3.97-4.336h-0.029v-0.974h3.25
		C296.446,37.763,296.781,38.099,296.781,38.512"/>
</g>
</svg>
