<?xml version="1.0" encoding="utf-8"?>
<!-- Generator: Adobe Illustrator 16.0.4, SVG Export Plug-In . SVG Version: 6.00 Build 0)  -->
<!DOCTYPE svg PUBLIC "-//W3C//DTD SVG 1.1//EN" "http://www.w3.org/Graphics/SVG/1.1/DTD/svg11.dtd">
<svg version="1.1" id="Layer_1" xmlns="http://www.w3.org/2000/svg" xmlns:xlink="http://www.w3.org/1999/xlink" x="0px" y="0px"
	 width="612px" height="614px" viewBox="0 88.5 612 614" enable-background="new 0 88.5 612 614" xml:space="preserve">
<rect y="90" fill="#DCDBC7" width="612" height="612"/>
<g enable-background="new    ">
	<path fill="#231F20" d="M74.028,194.528c0-17.367,10.022-29.149,27.313-29.149c17.291,0,27.237,11.782,27.237,29.149
		c0,16.373-9.334,28.69-27.237,28.69C83.438,223.219,74.028,210.901,74.028,194.528z M81.143,194.528
		c0,12.853,6.121,23.029,20.198,23.029c14.078,0,20.122-10.176,20.122-23.029c0-13.924-6.656-23.412-20.122-23.412
		S81.143,180.451,81.143,194.528z"/>
	<path fill="#231F20" d="M170.268,181.369l-14.689,20.351l14.689,20.657h-6.81l-11.552-16.373l-11.553,16.373h-7.192l14.996-20.733
		l-14.613-20.274h7.191l11.094,15.531l11.17-15.531H170.268z"/>
	<path fill="#231F20" d="M177.838,181.369l12.93,33.281c3.213-9.793,10.788-33.281,10.788-33.281h6.656l-14.919,42.768
		c-3.443,9.946-7.268,16.984-18.897,16.984h-1.913l-0.765-5.661h1.071c8.798,0,10.099-1.301,14.383-13.925l-15.914-40.166H177.838z"
		/>
	<path fill="#231F20" d="M220.142,235.46h7.651c12.853,0,14.307-5.891,14.307-16.22v-3.596c-2.678,3.902-6.197,6.732-12.624,6.732
		c-12.088,0-17.597-10.94-17.597-20.351c0-11.629,5.585-21.651,18.056-21.651c5.432,0,9.257,2.295,12.394,6.503v-5.508h6.044v38.024
		c0,10.635-1.607,21.728-20.734,21.728h-6.656L220.142,235.46z M242.329,203.097v-3.061c0-7.804-3.366-14.307-11.858-14.307
		c-8.798,0-12.165,8.798-12.165,15.914c0,7.039,3.672,15.378,12.088,15.378C239.192,217.021,242.329,210.442,242.329,203.097z"/>
	<path fill="#231F20" d="M274.075,223.295c-11.706,0-18.821-8.339-18.821-21.499c0-12.241,7.345-21.116,18.056-21.422
		c10.176,0,16.526,7.727,16.526,19.815c0,0.612-0.077,2.142-0.077,2.831h-28.078c0,9.257,5.432,14.919,12.624,14.919
		c5.815,0,10.099-2.142,13.006-4.131l1.913,4.59C285.857,221.306,280.654,223.295,274.075,223.295z M261.91,198.66h21.881
		c0-8.722-4.361-13.159-10.482-13.159C267.113,185.5,262.599,190.626,261.91,198.66z"/>
	<path fill="#231F20" d="M330.456,197.818v24.559h-6.273v-20.581c0-10.634-0.459-16.066-8.033-16.066
		c-6.886,0-11.782,4.973-12.777,8.645v28.002h-6.274v-31.062l-0.153-9.946h5.432l0.536,6.044c3.213-4.361,8.952-7.039,14.613-7.039
		C326.555,180.375,330.456,186.342,330.456,197.818z"/>
</g>
<g enable-background="new    ">
	<path fill="#231F20" d="M98.187,289.143H82.053l-4.84,12.852h-4.896l15.132-40.612h5.786l14.298,40.612h-4.896L98.187,289.143z
		 M96.574,285.416l-6.175-19.361l-6.843,19.361H96.574z"/>
	<path fill="#231F20" d="M119.106,302.662c-4.896,0-9.068-2.559-9.068-8.123c0-7.844,7.566-8.901,15.244-10.014l3.004-0.334v-3.394
		c0-3.616-1.78-5.508-5.897-5.508c-3.282,0-6.843,0.834-9.291,2.003l-1.28-3.561c2.281-1.224,6.231-2.281,10.459-2.281
		c5.897,0,10.515,1.947,10.515,8.624v21.919h-3.728l-0.667-3.282C125.783,301.66,122.222,302.662,119.106,302.662z M128.286,294.706
		v-7.344c0,0-2.67,0.39-2.726,0.39c-8.457,1.113-10.96,2.448-10.96,6.621c0,3.338,2.114,4.729,4.952,4.729
		C122.389,299.101,126.339,297.376,128.286,294.706z"/>
	<path fill="#231F20" d="M162.225,281.744c0-12.629,7.288-21.196,19.861-21.196s19.805,8.567,19.805,21.196
		c0,11.905-6.787,20.862-19.805,20.862C169.067,302.606,162.225,293.649,162.225,281.744z M167.398,281.744
		c0,9.346,4.451,16.746,14.688,16.746c10.236,0,14.631-7.399,14.631-16.746c0-10.125-4.84-17.024-14.631-17.024
		S167.398,271.507,167.398,281.744z M185.146,302.439c0.056,0,3.505-1.78,4.562-1.168c1.78,3.95,6.621,9.458,7.455,10.236
		l-3.171,3.227C192.935,313.677,187.482,307.168,185.146,302.439z"/>
	<path fill="#231F20" d="M219.195,302.662c-8.29,0-12.518-7.288-12.518-15.299c0-8.623,4.117-15.911,12.851-15.911
		c4.172,0,7.177,2.059,9.124,5.063v-4.339h4.451V313.9l-4.562,0.556v-17.08C226.65,300.659,223.368,302.662,219.195,302.662z
		 M228.653,287.029c0-6.287-2.67-11.572-8.957-11.572c-6.398,0-8.345,6.231-8.345,11.572c0,5.563,2.003,11.627,8.401,11.627
		C226.094,298.656,228.653,293.371,228.653,287.029z"/>
	<path fill="#231F20" d="M288.961,301.994l-5.507-12.629c-1.057-2.392-2.059-4.673-2.893-6.064
		c-0.779,0.056-3.728,0.111-4.673,0.111c-0.5,0-7.232-0.223-7.232-0.223v18.804h-4.784v-40.612h12.851c9.68,0,15.8,1.391,15.8,10.57
		c0,5.007-2.448,8.957-7.677,10.348c-0.056,0,2.059,3.449,3.004,5.508l6.564,14.187H288.961z M268.655,279.129l9.68,0.111
		c7.344,0.056,9.458-2.337,9.458-7.177c0-4.229-2.114-6.509-8.345-6.509h-10.793V279.129z"/>
	<path fill="#231F20" d="M299.534,301.994v-22.977c0-2.337-0.056-4.562-0.056-6.843h3.839l0.334,5.174
		c2.114-3.839,5.229-5.174,8.734-5.174h0.835l0.334,4.172h-1.113c-5.562,0-8.345,3.728-8.345,8.178v17.469H299.534z"/>
</g>
<g enable-background="new    ">
	<path fill="#FFFFFF" d="M405.761,371.354c-18.204,0-33.719-9.516-33.719-30.202c0-29.167,28.133-33.098,56.681-37.235l11.17-1.241
		v-12.619c0-13.446-6.619-20.479-21.927-20.479c-12.205,0-25.444,3.103-34.547,7.447l-4.758-13.239
		c8.481-4.551,23.169-8.481,38.891-8.481c21.928,0,39.097,7.24,39.097,32.063v81.504h-13.859l-2.482-12.205
		C430.584,367.63,417.345,371.354,405.761,371.354z M439.893,341.772v-27.306c0,0-9.929,1.448-10.136,1.448
		c-31.443,4.137-40.752,9.102-40.752,24.617c0,12.412,7.86,17.583,18.41,17.583C417.966,358.114,432.652,351.702,439.893,341.772z"
		/>
</g>
<g enable-background="new    ">
	<path fill="#231F20" d="M94.576,356.211H82.948l-4.284,12.072h-8.011l1.057-3.282l13.241-35.995h7.622l12.851,35.995l1.113,3.282
		H98.86L94.576,356.211z M92.685,351.259l-3.895-13.296l-4.117,13.296H92.685z"/>
	<path fill="#231F20" d="M117.165,368.839c-5.396,0-9.124-3.171-9.124-8.289c0-7.344,5.118-8.512,14.687-9.903l2.059-0.334v-1.335
		c0-3.394-0.278-4.84-4.228-5.007h-0.39c-2.837,0-7.677,1.558-8.957,2.003l-1.502-5.508c2.67-1.224,6.342-2.058,11.127-2.169h0.667
		c6.676,0,11.015,3.115,11.015,9.402v20.584h-5.897l-0.779-3.115C123.34,367.282,120.892,368.839,117.165,368.839z M124.786,361.496
		v-6.843l-2.059,0.334c-4.284,0.612-7.789,1.28-7.789,5.285c0,2.114,1.168,3.616,3.561,3.616
		C121.17,363.888,122.728,362.887,124.786,361.496z"/>
	<path fill="#231F20" d="M181.033,328.116c11.293,0,19.75,7.511,19.75,20.417c0,12.796-8.512,20.306-19.75,20.306
		c-11.238,0-19.694-7.51-19.694-20.306C161.339,335.626,169.795,328.116,181.033,328.116z M181.089,334.514
		c-7.733,0-11.516,5.841-11.516,14.131s3.838,13.908,11.516,13.908c7.733,0,11.627-5.619,11.627-13.908
		S188.877,334.514,181.089,334.514z M197.667,376.962l-4.117,4.062c-3.783-2.726-7.9-8.401-10.07-12.406l4.729-3.116
		C190.102,368.895,192.438,372.178,197.667,376.962z"/>
	<path fill="#231F20" d="M233.609,339.409v39.166l-7.677,0.835v-15.188c-1.78,2.893-4.006,4.617-8.679,4.617
		c-8.401-0.056-12.796-7.177-12.796-15.41c0-7.511,4.228-15.132,13.074-15.132c3.839,0,6.843,1.279,8.568,4.951l0.556-3.839H233.609
		z M226.043,353.651c0-7.343-3.561-9.68-7.01-9.68c-3.394,0-7.177,1.947-7.177,9.68c0,7.344,3.728,9.514,7.177,9.514
		C222.594,363.165,226.043,361.106,226.043,353.651z"/>
	<path fill="#231F20" d="M286.852,350.592c1.669,1.947,2.559,3.839,3.783,6.342l5.563,11.349h-8.512l-4.284-9.347
		c-1.001-2.114-3.449-6.787-3.449-6.787c-1.168-0.111-8.067-0.111-8.067-0.111v16.245h-8.123v-39.277h15.132
		c9.18,0,14.966,2.059,14.966,11.183C293.862,345.696,291.358,348.923,286.852,350.592z M279.286,334.903h-7.399v11.405h7.232
		c5.062,0,7.232-1.725,7.232-6.009C286.352,336.517,283.904,334.903,279.286,334.903z"/>
	<path fill="#231F20" d="M314.447,339.409l0.39,5.842h-2.059c-5.452,0-6.453,2.837-6.453,7.121v15.911h-7.678v-28.874h7.121
		l0.557,3.95c1.836-2.559,3.728-3.95,7.343-3.95H314.447z"/>
</g>
<g enable-background="new    ">
	<path fill="#9F392A" d="M173.761,408.063h5.853l-17.237,46.95h-5.981l-17.172-46.95h5.981l14.214,40.84
		C159.418,448.903,168.744,422.02,173.761,408.063z"/>
	<path fill="#9F392A" d="M197.492,455.785c-9.84,0-15.822-7.01-15.822-18.072c0-10.291,6.174-17.751,15.179-18.009
		c8.554,0,13.892,6.496,13.892,16.658c0,0.515-0.064,1.801-0.064,2.38h-23.604c0,7.782,4.566,12.541,10.612,12.541
		c4.888,0,8.49-1.801,10.934-3.473l1.608,3.858C207.396,454.113,203.023,455.785,197.492,455.785z M187.266,435.076h18.394
		c0-7.332-3.666-11.062-8.811-11.062C191.639,424.014,187.844,428.322,187.266,435.076z"/>
	<path fill="#9F392A" d="M217.106,455.014v-26.562c0-2.701-0.064-5.273-0.064-7.911h4.438l0.386,5.981
		c2.444-4.438,6.046-5.981,10.098-5.981h0.965l0.386,4.824h-1.286c-6.432,0-9.647,4.309-9.647,9.454v20.195H217.106z"/>
	<path fill="#9F392A" d="M253.508,455.785c-4.631,0-8.683-2.187-10.805-5.917v5.146h-5.209v-46.822l5.274-0.578v18.201
		c2.701-4.438,7.139-6.11,10.869-6.11c9.583,0,14.471,8.49,14.471,17.688C268.107,447.36,263.284,455.785,253.508,455.785z
		 M253.122,451.477c7.396,0,9.583-7.461,9.583-13.764c0-6.175-2.122-13.635-9.454-13.635c-6.046,0.064-10.548,5.531-10.548,13.635
		C242.703,445.174,245.854,451.477,253.122,451.477z"/>
	<path fill="#9F392A" d="M280.776,414.237h-5.274v-6.174h5.274V414.237z M280.776,455.014h-5.274V420.54h5.274V455.014z"/>
	<path fill="#9F392A" d="M316.728,434.368v20.646h-5.273v-17.301c0-8.94-0.386-13.507-6.753-13.507
		c-5.788,0-9.904,4.181-10.741,7.268v23.54h-5.274v-26.112l-0.128-8.361h4.566l0.45,5.081c2.701-3.666,7.525-5.917,12.284-5.917
		C313.447,419.704,316.728,424.721,316.728,434.368z"/>
	<path fill="#9F392A" d="M337.114,455.785c-9.325,0-14.728-7.653-14.728-18.394c0-9.776,5.788-17.688,14.535-17.688
		c4.566,0,9.068,2.187,10.869,5.853v-17.365l5.274-0.578v47.4h-4.695l-0.644-5.402C345.733,453.148,341.874,455.785,337.114,455.785
		z M337.437,451.091c7.074,0,10.354-5.981,10.354-13.378s-3.087-13.378-10.419-13.378c-7.011,0-9.583,6.946-9.583,13.185
		C327.789,444.337,330.297,451.091,337.437,451.091z"/>
	<path fill="#9F392A" d="M360.139,420.54h5.273v23.025c0,6.175,3.666,7.911,8.618,7.911c4.888,0,8.49-1.801,8.49-7.911V420.54h5.273
		v22.961c0,9.068-6.496,12.284-13.764,12.284s-13.892-3.28-13.892-12.284V420.54z"/>
	<path fill="#9F392A" d="M422.845,434.368v20.646h-5.274v-17.301c0-8.94-0.386-13.507-6.753-13.507
		c-5.788,0-9.904,4.181-10.74,7.268v23.54h-5.274v-26.112l-0.129-8.361h4.566l0.45,5.081c2.702-3.666,7.525-5.917,12.285-5.917
		C419.564,419.704,422.845,424.721,422.845,434.368z"/>
	<path fill="#9F392A" d="M435.513,466.012h6.432c10.806,0,12.027-4.952,12.027-13.635v-3.023c-2.251,3.28-5.21,5.66-10.612,5.66
		c-10.162,0-14.792-9.197-14.792-17.108c0-9.775,4.694-18.201,15.178-18.201c4.566,0,7.782,1.93,10.42,5.467v-4.631h5.08v31.965
		c0,8.94-1.351,18.267-17.429,18.267h-5.596L435.513,466.012z M454.165,438.806v-2.572c0-6.561-2.83-12.027-9.97-12.027
		c-7.396,0-10.226,7.396-10.226,13.378c0,5.917,3.087,12.928,10.161,12.928C451.527,450.512,454.165,444.98,454.165,438.806z"/>
</g>
<g enable-background="new    ">
	<path fill="#231F20" d="M163.008,521.16c-3.366,0-6.235-1.76-6.235-5.585c0-5.394,5.203-6.121,10.482-6.886l2.065-0.229v-2.333
		c0-2.487-1.224-3.787-4.055-3.787c-2.257,0-4.706,0.573-6.389,1.377l-0.88-2.448c1.569-0.842,4.285-1.568,7.192-1.568
		c4.055,0,7.23,1.339,7.23,5.929v15.072h-2.563l-0.459-2.257C167.599,520.472,165.15,521.16,163.008,521.16z M169.32,515.689v-5.049
		c0,0-1.836,0.268-1.875,0.268c-5.814,0.765-7.536,1.684-7.536,4.552c0,2.296,1.454,3.252,3.404,3.252
		C165.265,518.712,167.981,517.526,169.32,515.689z"/>
	<path fill="#231F20" d="M188.521,521.16c-2.754,0-5.165-1.301-6.427-3.52v3.061h-3.099v-27.849l3.137-0.345v10.826
		c1.607-2.64,4.246-3.634,6.465-3.634c5.7,0,8.607,5.049,8.607,10.52C197.205,516.149,194.335,521.16,188.521,521.16z
		 M188.291,518.598c4.399,0,5.7-4.438,5.7-8.187c0-3.673-1.263-8.11-5.624-8.11c-3.596,0.039-6.273,3.29-6.273,8.11
		C182.094,514.849,183.969,518.598,188.291,518.598z"/>
</g>
<g enable-background="new    ">
	<path fill="#231F20" d="M220.958,519.286c-1.339,1.262-3.52,1.874-5.547,1.874c-6.389,0-9.87-5.011-9.87-10.711
		c0.038-5.662,3.71-10.749,9.831-10.749c2.372,0,4.438,0.688,5.585,1.798l-0.804,2.219c-1.568-1.033-3.251-1.416-4.82-1.416
		c-3.749,0-6.618,3.481-6.618,8.225c0,4.705,2.754,8.072,6.847,8.072c1.836,0,3.481-0.728,4.629-1.53L220.958,519.286z"/>
</g>
<g enable-background="new    ">
	<path fill="#231F20" d="M235.913,521.16c-5.547,0-8.76-4.552-8.76-10.94c0-5.814,3.443-10.52,8.646-10.52
		c2.716,0,5.394,1.3,6.465,3.48v-10.328l3.137-0.345v28.193h-2.792l-0.383-3.213C241.039,519.592,238.744,521.16,235.913,521.16z
		 M236.104,518.368c4.208,0,6.159-3.558,6.159-7.957s-1.836-7.957-6.197-7.957c-4.169,0-5.7,4.132-5.7,7.842
		C230.366,514.351,231.858,518.368,236.104,518.368z"/>
	<path fill="#231F20" d="M260.546,521.16c-5.853,0-9.411-4.17-9.411-10.749c0-6.121,3.672-10.559,9.028-10.711
		c5.088,0,8.263,3.863,8.263,9.907c0,0.307-0.038,1.071-0.038,1.416h-14.039c0,4.628,2.716,7.459,6.312,7.459
		c2.907,0,5.049-1.071,6.503-2.065l0.957,2.295C266.437,520.166,263.835,521.16,260.546,521.16z M254.463,508.843h10.94
		c0-4.361-2.18-6.58-5.241-6.58C257.064,502.263,254.808,504.826,254.463,508.843z"/>
</g>
<g enable-background="new    ">
	<path fill="#231F20" d="M276.112,500.197h3.022v-0.612c0.115-6.082,1.721-7.574,6.656-7.574h1.377l0.382,2.372h-1.759
		c-3.252,0-3.52,1.301-3.52,5.202v0.612h4.628v2.181h-4.628v18.323h-3.137v-18.323h-3.022V500.197z"/>
</g>
<g enable-background="new    ">
	<path fill="#231F20" d="M296.766,527.242h3.825c6.426,0,7.154-2.945,7.154-8.109v-1.798c-1.339,1.951-3.099,3.366-6.312,3.366
		c-6.044,0-8.798-5.471-8.798-10.176c0-5.814,2.792-10.825,9.028-10.825c2.716,0,4.628,1.147,6.197,3.251v-2.754h3.022v19.012
		c0,5.317-0.804,10.864-10.367,10.864h-3.328L296.766,527.242z M307.859,511.062v-1.53c0-3.902-1.683-7.153-5.929-7.153
		c-4.399,0-6.083,4.398-6.083,7.956c0,3.52,1.836,7.689,6.044,7.689C306.291,518.023,307.859,514.733,307.859,511.062z"/>
	<path fill="#231F20" d="M320.251,520.701h-3.137v-27.849l3.137-0.345v10.481c1.721-2.104,4.169-3.289,7.307-3.289
		c4.284,0,6.235,3.213,6.235,8.606v12.395h-3.138v-11.515c0-4.629-0.649-6.809-4.131-6.809c-3.175,0-5.776,2.409-6.273,4.36V520.701
		z"/>
	<path fill="#231F20" d="M343.928,496.448h-3.138v-3.672h3.138V496.448z M343.928,520.701h-3.138v-20.504h3.138V520.701z"/>
	<path fill="#231F20" d="M354.752,523.303c0,5.011-1.109,6.771-6.197,6.771h-0.995l-0.421-2.831h0.995
		c3.404,0,3.481-1.186,3.481-4.284v-22.761h3.137V523.303z M354.752,496.448h-3.137v-3.672h3.137V496.448z"/>
</g>
<g enable-background="new    ">
	<path fill="#231F20" d="M371.01,492.508v16.373l9.104-8.684h4.246l-8.761,8.53l9.372,11.974h-4.017l-7.727-10.52l-2.219,1.912
		v8.607h-3.137v-27.849L371.01,492.508z"/>
</g>
<g enable-background="new    ">
	<path fill="#231F20" d="M394.149,512.668c0,4.476,0.115,5.853,2.257,5.853c0.459,0,0.728-0.038,1.684-0.114l0.191,2.448
		c-1.071,0.191-1.798,0.229-2.104,0.229c-5.049,0-5.164-2.334-5.164-9.143v-19.089l3.137-0.345V512.668z"/>
</g>
<g enable-background="new    ">
	<path fill="#231F20" d="M404.516,520.701v-15.302c0-1.721-0.077-4.59-0.077-5.202h2.716l0.269,3.061
		c1.798-2.41,4.322-3.558,6.924-3.558c2.869,0,4.819,1.032,5.776,3.787c1.798-2.755,4.169-3.787,7.077-3.787
		c4.628,0,6.312,3.213,6.312,7.995v13.006h-3.137V509.99c0-4.629-0.191-7.574-3.673-7.574c-2.601,0-4.819,1.874-5.776,4.629v13.656
		h-3.137V509.34c0-4.17-0.727-6.924-3.825-6.924c-3.175,0-5.623,2.181-6.312,4.284v14.001H404.516z"/>
</g>
<g enable-background="new    ">
	<path fill="#231F20" d="M173.987,554.32V566.6h-3.137v-10.29c0-5.317-0.229-8.033-4.017-8.033c-3.443,0-5.891,2.486-6.389,4.322
		V566.6h-3.137v-15.531l-0.076-4.973h2.716l0.268,3.021c1.607-2.18,4.476-3.519,7.307-3.519
		C172.036,545.599,173.987,548.582,173.987,554.32z"/>
	<path fill="#231F20" d="M189.095,567.059c-6.197,0-9.64-4.781-9.64-10.673c0-5.853,3.52-10.787,9.716-10.787
		c6.274,0,9.411,4.857,9.411,10.749C198.582,562.009,195.253,567.059,189.095,567.059z M189.095,548.199
		c-4.399,0-6.427,4.056-6.427,8.225c0,4.132,2.027,8.072,6.503,8.072c4.438,0,6.159-3.94,6.159-8.11
		C195.33,552.025,193.723,548.199,189.095,548.199z"/>
	<path fill="#231F20" d="M204.394,546.096h2.945l0.191,2.754c1.568-2.104,3.634-3.251,6.35-3.251c6.044,0,8.569,5.049,8.569,10.979
		c0,5.547-3.213,10.481-8.569,10.481c-2.601,0-4.935-1.071-6.35-3.442v11.132l-3.137,0.42V546.096z M213.383,564.381
		c4.285,0,5.853-4.322,5.853-8.033s-1.568-8.071-5.853-8.071c-4.284,0-5.891,3.634-5.891,8.071
		C207.492,560.747,209.099,564.381,213.383,564.381z"/>
	<path fill="#231F20" d="M236.026,567.059c-5.7,0-8.607-5.011-8.607-10.52c0-5.93,2.831-10.94,8.836-10.94
		c2.869,0,4.935,1.415,6.274,3.48v-2.983h3.06v28.69l-3.137,0.382v-11.743C241.152,565.682,238.896,567.059,236.026,567.059z
		 M242.53,556.31c0-4.323-1.836-7.957-6.159-7.957c-4.399,0-5.738,4.284-5.738,7.957c0,3.825,1.377,7.995,5.776,7.995
		C240.77,564.305,242.53,560.67,242.53,556.31z"/>
	<path fill="#231F20" d="M252.244,566.6v-15.799c0-1.606-0.039-3.137-0.039-4.705h2.64l0.229,3.558
		c1.454-2.64,3.596-3.558,6.006-3.558h0.574l0.229,2.869h-0.765c-3.825,0-5.738,2.562-5.738,5.623V566.6H252.244z"/>
</g>
<g enable-background="new    ">
	<path fill="#231F20" d="M288.62,561.091c-0.115,3.864-2.869,5.968-6.771,5.968c-3.137,0-5.891-0.994-7.115-1.913l0.803-2.409
		c0.765,0.497,3.022,1.721,5.814,1.721h0.306c2.333,0,3.825-1.147,4.017-3.289v-0.191c0-1.301-0.803-2.525-3.099-3.176l-2.716-0.765
		c-4.093-1.147-5.279-3.175-5.317-5.661c0-2.869,2.257-5.738,6.847-5.776c2.64,0,4.629,0.535,6.197,1.339l-0.727,2.257
		c-1.109-0.459-2.984-1.109-5.241-1.109c-2.257,0-3.94,1.186-3.94,3.29c0,1.262,0.727,2.257,2.946,2.83l2.831,0.766
		c3.328,0.88,5.164,2.64,5.164,6.044V561.091z"/>
	<path fill="#231F20" d="M298.946,559.752c0,3.825,0.459,4.629,2.946,4.629c0.344,0,1.109-0.076,2.563-0.191l0.268,2.525
		c-2.333,0.19-2.907,0.268-3.558,0.268c-4.973,0-5.355-2.448-5.355-8.684v-10.022h-3.137l0.268-2.181h2.869l0.803-6.618l2.333-0.191
		v6.81h5.432v2.181h-5.432V559.752z"/>
</g>
<g enable-background="new    ">
	<path fill="#231F20" d="M312.715,546.096h3.137v13.694c0,3.673,2.181,4.706,5.126,4.706c2.907,0,5.05-1.071,5.05-4.706v-13.694
		h3.137v13.656c0,5.394-3.863,7.307-8.187,7.307c-4.322,0-8.263-1.951-8.263-7.307V546.096z"/>
</g>
<g enable-background="new    ">
	<path fill="#231F20" d="M334.977,546.096h3.328l6.465,17.062l6.12-17.062h3.328l-7.994,20.504h-3.176L334.977,546.096z"/>
</g>
<g enable-background="new    ">
	<path fill="#231F20" d="M361.635,546.096l4.552,16.334l5.433-16.334h3.672l5.203,16.258l4.398-16.258h3.176l-6.121,20.504h-3.099
		l-5.47-17.329l-5.7,17.329h-3.175l-6.121-20.504H361.635z"/>
</g>
<g enable-background="new    ">
	<path fill="#231F20" d="M411.132,546.096l-7.345,10.176l7.345,10.328h-3.404l-5.776-8.187l-5.776,8.187h-3.596l7.498-10.367
		l-7.307-10.137h3.596l5.547,7.766l5.585-7.766H411.132z"/>
	<path fill="#231F20" d="M417.021,546.096l6.465,16.641c1.606-4.896,5.394-16.641,5.394-16.641h3.328l-7.459,21.384
		c-1.722,4.973-3.634,8.492-9.449,8.492h-0.956l-0.383-2.831h0.536c4.399,0,5.049-0.65,7.191-6.962l-7.957-20.083H417.021z"/>
</g>
<g enable-background="new    ">
	<path fill="#231F20" d="M439.703,563.998l9.793-15.416h-9.907v-2.486h13.503v2.486l-9.907,15.493h10.29v2.524h-13.771V563.998z"/>
</g>
<g enable-background="new    ">
	<path fill="#FFFFFF" d="M202.98,612.62c0-7.141,2.582-12.049,8.001-12.049c5.418,0,7.937,4.908,7.937,12.049
		c0,6.821-2.263,12.049-7.937,12.049C205.307,624.669,202.98,619.441,202.98,612.62z M205.977,612.524
		c0,5.642,1.753,9.786,5.005,9.786c3.251,0,4.972-4.145,4.972-9.786c0-5.547-1.721-9.562-4.972-9.562
		C207.73,602.962,205.977,606.978,205.977,612.524z"/>
	<path fill="#FFFFFF" d="M232.337,601.049v23.27h-2.773v-20.4c-1.243,0.797-2.263,1.402-3.379,1.753l-0.574-2.263
		c1.371-0.605,2.996-1.498,4.239-2.359H232.337z"/>
	<path fill="#FFFFFF" d="M247.924,600.571c4.24,0,6.917,2.518,6.917,6.343v0.096c-0.032,2.933-1.594,5.164-4.144,7.905l-6.566,7.013
		h10.806l-0.191,2.391h-13.611l-0.351-2.55l8.033-8.926c1.817-2.008,2.997-3.793,3.028-5.609v-0.16c0-2.581-1.466-4.048-4.112-4.048
		c-1.944,0-3.889,0.574-5.196,1.913l-0.924-2.327C242.919,601.399,244.896,600.571,247.924,600.571z"/>
	<path fill="#FFFFFF" d="M265.997,613.066v-2.295c3.57,0,6.949-0.415,6.949-4.08c0-2.582-1.53-3.729-4.271-3.729
		c-2.136,0-3.953,0.669-5.196,1.657l-0.893-2.263c1.403-1.084,3.475-1.785,6.694-1.785c3.443,0,6.662,2.04,6.662,5.77
		c0,2.996-1.562,4.812-4.08,5.578c2.837,0.638,4.654,2.741,4.654,6.024c0,4.144-3.315,6.726-7.841,6.726
		c-3.028,0-5.228-0.956-6.088-1.785l0.893-2.263c1.18,0.924,2.805,1.689,5.164,1.689c3.06,0,5.132-1.562,5.132-4.399
		C273.774,613.735,270.332,613.066,265.997,613.066z"/>
	<path fill="#FFFFFF" d="M297.17,618.549v5.77h-2.614v-5.77h-10.519v-2.391l10.232-15.109h2.901v15.237h2.869l-0.223,2.263H297.17z
		 M286.779,616.286h7.778v-11.73L286.779,616.286z"/>
	<path fill="#FFFFFF" d="M320.789,603.6h-9.467c-0.063,2.263-0.159,5.067-0.223,7.331c1.243-0.797,2.486-1.147,3.793-1.147
		c4.718,0,7.108,3.155,7.108,7.108c0,4.653-3.188,7.777-8.447,7.777c-2.71,0-4.877-0.86-6.248-2.136l1.021-2.199
		c0.988,0.765,2.741,1.816,5.323,1.816c3.442,0,5.515-2.167,5.515-5.228c0-2.677-1.626-4.686-4.781-4.686
		c-1.467,0-2.71,0.446-3.698,1.53l-2.167-0.287l0.605-12.432h11.921L320.789,603.6z"/>
	<path fill="#FFFFFF" d="M345.206,617.338c0,4.144-3.061,7.331-7.81,7.331c-4.973,0-7.842-3.475-7.842-7.682
		c0-3.507,1.18-5.706,4.304-9.627c1.338-1.689,5.1-6.216,5.1-6.216h3.602l-8.191,9.786c0.988-0.542,2.263-0.956,3.506-0.956
		C341.795,609.975,345.206,613.034,345.206,617.338z M337.301,622.311c3.188,0,4.94-2.264,4.94-4.941
		c0-2.868-1.785-5.036-4.94-5.036c-3.442,0-4.781,2.264-4.781,4.94C332.52,619.951,334.081,622.311,337.301,622.311z"/>
	<path fill="#FFFFFF" d="M362.896,603.439h-10.487l0.16-2.391h13.515v2.104l-8.352,21.165h-2.837L362.896,603.439z"/>
	<path fill="#FFFFFF" d="M373.031,618.326c0-2.997,1.817-5.292,4.845-6.28c-2.677-0.956-4.303-2.772-4.303-5.609
		c0-3.762,2.996-5.865,7.108-5.865c4.111,0,7.013,2.104,7.013,5.865c0,2.837-1.498,4.653-3.953,5.609
		c2.773,0.988,4.495,3.283,4.495,6.28c0,4.144-3.411,6.343-7.555,6.343C376.537,624.669,373.031,622.47,373.031,618.326z
		 M375.772,618.135c0,2.613,2.136,4.176,4.909,4.176s4.813-1.562,4.813-4.176c0-2.582-2.04-4.112-4.813-4.75
		C377.908,614.022,375.772,615.553,375.772,618.135z M376.347,606.404c0,2.486,1.498,3.984,4.335,4.622
		c2.837-0.638,4.271-2.136,4.271-4.622c0-2.231-1.977-3.538-4.271-3.538S376.347,604.173,376.347,606.404z"/>
</g>
<g enable-background="new    ">
	<path fill="#FFFFFF" d="M399.995,607.935c0-4.145,3.124-7.363,7.873-7.363c4.973,0,7.746,3.314,7.746,7.522
		c0,3.092-0.988,5.132-3.379,8.383c-1.498,2.009-6.279,7.842-6.279,7.842h-3.411l8.256-10.232c-0.988,0.542-2.263,0.925-3.506,0.925
		C403.374,615.011,399.995,612.237,399.995,607.935z M407.964,602.962c-3.188,0-5.036,2.231-5.036,4.908
		c0,2.869,1.785,4.813,4.94,4.813c3.442,0,4.813-2.199,4.813-4.877S411.184,602.962,407.964,602.962z"/>
</g>
</svg>
