<?xml version="1.0" encoding="utf-8"?>
<!-- Generator: Adobe Illustrator 16.0.0, SVG Export Plug-In . SVG Version: 6.00 Build 0)  -->
<!DOCTYPE svg PUBLIC "-//W3C//DTD SVG 1.1//EN" "http://www.w3.org/Graphics/SVG/1.1/DTD/svg11.dtd">
<svg version="1.1" id="Layer_1" xmlns="http://www.w3.org/2000/svg" xmlns:xlink="http://www.w3.org/1999/xlink" x="0px" y="0px" viewBox="0 0 403.7 539.3" enable-background="new 0 0 403.7 539.3" xml:space="preserve">
<g>
	<g>
		<path fill="#DBDDCC" d="M203,0c4.6,0.1,8.1,9.2,8,15.9c-0.101,6.7-3.801,15.7-8.4,15.7c-4.5-0.1-8.1-9.2-8-15.9
			C194.8,9,198.5-0.1,203,0z"/>
	</g>
</g>
<g>
	<g>
		<path fill="#DBDDCC" d="M250.1,52.8c0,0-31,5.2-18.7,26.7c10.8,18.8,79.899-4,46.601-37.8c-41.201-34-103,26.2-68.801,66.6
			c28.5,35,84.5-0.5,94-17.9c16.6-30.3-72.5,22.5,11.6,44.9c-1.1-0.7-0.398-1.1,1.4-1C241,112,314,67.5,302.1,89
			c-10.1,18.3-64,50.8-90.5,13.8c-26.5-36.9,31.1-83.7,59.6-58.6C298.7,74.4,244,93,234,77.2C225.4,57.4,250.1,52.8,250.1,52.8
			L250.1,52.8z"/>
		<path fill="#DBDDCC" d="M323.299,139l-8.799-2.3c-20.4-5.4-32.601-13.1-36.4-22.8c-12.5,6.9-25.5,10.7-36.9,10.7
			c-13.6,0-24.699-5.2-33.1-15.4C197,96,194.8,79.1,202.3,62.9c8.9-19.2,28.9-32.6,48.6-32.6c10.101,0,19.8,3.6,28,10.4
			c11,11.2,10.399,20.4,8,26.2c-5.399,12.9-24.5,20.8-39.101,20.8l0,0c-8.6,0-14.799-2.6-17.6-7.5c-3.3-5.7-4-10.9-2-15.4
			c3.6-8.3,15-11.8,19.7-12.9c1.101-0.3,1.899-0.4,1.899-0.4l1.601-0.3V54l-1.2,0.3c0,0-0.6,0.1-1.699,0.3
			c-3.301,0.9-11.101,3.7-14,9.8c-1.701,3.5-1.5,7.7,0.6,12.5c2,3.1,6.5,4.9,12.699,4.9C258.4,81.8,271.9,76.1,276,66.7
			c2.899-6.5,0.799-13.9-6-21.4c-5-4.4-11.201-6.6-18.301-6.6c-15.9,0-33.3,11.4-41.4,27.1c-6.399,12.5-5.6,25.4,2.201,36.4
			c7.799,10.8,18.5,16.3,31.799,16.3c10,0,21.4-3.3,32.301-9.2c-0.801-7.4,3-13.7,6.5-17.8c5.4-6.4,13.699-11.5,18.8-11.5
			c2.3,0,3.5,1.1,4,1.9c1.2,2,0.601,5-1.7,9.2c-3.199,5.9-11.1,13.2-20.8,19.4c2.5,9.1,13.899,16.8,33.001,22.5l11.398,3.4
			L318,135.8L323.299,139z M280.5,112.5c1.299,3.6,4.1,7,8.299,10.1c-3.799-3.2-6.299-6.8-7.5-10.6l-0.1,0.1l0,0
			C281,112.2,280.7,112.4,280.5,112.5z M250.9,33.1c-18.7,0-37.601,12.8-46.101,31c-7,15.1-5,30.9,5.5,43.3
			c7.801,9.5,18.201,14.4,30.9,14.4c3.801,0,7.7-0.4,11.801-1.3c-18,2.8-32.601-3-42.5-16.8c-8.5-11.8-9.4-25.8-2.5-39.2
			c8.5-16.6,26.899-28.6,43.799-28.6c7.701,0,14.701,2.6,20.301,7.4c9.699,10.7,9,19.2,6.6,24.4c-4.6,10.5-19.3,16.8-30.8,16.8
			c-7.101,0-12.5-2.3-15.101-6.4c-2.399-5.4-2.699-10.1-1-14.2c-0.399,0.6-0.799,1.3-1.1,2c-1.6,3.7-1,8.1,1.9,13
			c2.199,3.9,7.6,6.1,15.199,6.1l0,0C261.6,85,279.6,77.3,284.4,65.9c3-7.3,0.601-15.1-7.3-23.1C269.4,36.3,260.6,33.1,250.9,33.1z
			 M283.6,95.7c-2.2,3.3-4.2,7.4-4,12c0.3-0.2,0.6-0.3,0.8-0.5C280.299,103.4,281.4,99.5,283.6,95.7z M301.5,84.7
			c-2.4,0-7.601,2.9-11.9,7.6c-2.301,2.5-6,7.4-6.4,13.2c8.1-5.4,14.801-11.8,17.7-17c1.3-2.3,1.2-3.4,1.101-3.6
			C302.1,84.8,301.9,84.7,301.5,84.7z"/>
	</g>
</g>
<g>
	<g>
		<path fill="#DBDDCC" d="M154,52.8c0,0,31,5.2,18.7,26.7c-10.8,18.8-79.9-4-46.6-37.8c41.3-34.1,103.1,26.2,68.9,66.6
			c-28.5,35-84.5-0.5-94-17.9c-16.6-30.3,72.5,22.5-11.6,44.9c1.1-0.7,0.4-1.1-1.4-1c75.2-22.3,2.2-66.8,14.1-45.3
			c10.1,18.3,64,50.8,90.5,13.8c26.5-36.9-31.1-83.7-59.6-58.6c-27.5,30.2,27.2,48.8,37.2,33C178.8,57.4,154,52.8,154,52.8L154,52.8
			z"/>
		<path fill="#DBDDCC" d="M80.7,139.1l5.2-3.2l-9.8,0.6l11.4-3.4c19.1-5.7,30.5-13.4,33-22.5c-9.6-6.2-17.6-13.5-20.8-19.4
			C97.4,87,96.8,83.9,98,82c0.5-0.9,1.6-1.9,4-1.9c5.1,0,13.3,5,18.8,11.5c3.5,4.1,7.3,10.5,6.5,17.8c10.9,5.9,22.3,9.2,32.3,9.2
			c13.3,0,24-5.5,31.8-16.3c7.9-11,8.7-23.9,2.2-36.4c-8.1-15.7-25.5-27.1-41.4-27.1c-7.1,0-13.3,2.3-18.4,6.8
			c-6.7,7.4-8.8,14.8-5.9,21.2c4.2,9.5,17.6,15.1,28.2,15.1c6.2,0,10.7-1.8,12.8-5.1c2-4.6,2.2-8.8,0.5-12.3
			c-2.9-6.1-10.7-8.8-14-9.8c-1-0.2-1.6-0.3-1.7-0.3l-1.1-0.2v-2.8l1.6,0.2c0,0,0.7,0.1,1.9,0.4c4.8,1.1,16.2,4.6,19.7,12.9
			c2,4.5,1.3,9.7-2,15.4c-2.8,4.8-9,7.5-17.6,7.5c-14.6,0-33.8-8-39.1-20.8c-2.4-5.8-3-15,7.9-26.1c8.3-6.9,18-10.5,28.1-10.5
			c19.7,0,39.7,13.4,48.6,32.6c7.5,16.2,5.4,33-5.8,46.3c-8.3,10.2-19.4,15.4-33.1,15.4c-11.3,0-24.4-3.8-36.9-10.7
			c-3.8,9.7-16.1,17.4-36.4,22.8L80.7,139.1z M122.9,112c-1.2,3.8-3.7,7.3-7.5,10.6c4.2-3.1,7-6.5,8.3-10.1
			C123.4,112.4,123.2,112.2,122.9,112L122.9,112L122.9,112z M151.1,120.5c17.9,3.7,32.7-0.7,42.7-13.1c10.5-12.4,12.5-28.2,5.5-43.3
			c-8.5-18.3-27.4-31-46.1-31c-9.6,0-18.5,3.3-26.3,9.7c-7.8,7.9-10.3,15.7-7.2,23c4.8,11.4,22.8,19.1,36.6,19.1
			c7.5,0,12.9-2.2,15.2-6.1c2.8-4.9,3.5-9.3,1.9-13c-0.3-0.7-0.7-1.4-1.1-2c1.7,4.1,1.3,8.8-0.9,14c-2.7,4.3-8.1,6.6-15.2,6.6
			c-11.5,0-26.1-6.3-30.8-16.8c-2.3-5.3-3.1-13.8,6.5-24.3c5.6-5,12.6-7.5,20.4-7.5c16.9,0,35.3,12,43.8,28.6
			c6.9,13.5,6,27.4-2.4,39.2C183.7,117.5,169.1,123.3,151.1,120.5z M123.7,107.2c0.3,0.2,0.6,0.3,0.8,0.5c0.1-4.6-1.8-8.8-4-12
			C122.8,99.5,123.9,103.4,123.7,107.2z M102.7,84.7c-0.4,0-0.6,0.1-0.6,0.1c-0.1,0.2-0.2,1.2,1.1,3.6c2.9,5.3,9.6,11.7,17.7,17
			c-0.4-5.8-4.1-10.6-6.4-13.2C110.3,87.6,105.1,84.7,102.7,84.7z"/>
	</g>
</g>
<g>
	<g>
		<g>
			<path d="M152,143.8c1.3,0,2.3,1,2.4,2.3c0,1.3-1,2.3-2.3,2.3c-1.3,0-2.3-1-2.3-2.3C149.7,144.9,150.7,143.8,152,143.8z"/>
		</g>
	</g>
	<g>
		<g>
			<path d="M129.3,148.8c1.3,0,2.3,1,2.3,2.2c0,1.3-1,2.3-2.3,2.3c-1.3,0-2.3-1-2.3-2.2C127,149.8,128,148.8,129.3,148.8z"/>
		</g>
	</g>
	<g>
		<g>
			<path d="M247.7,143.8c1.301,0,2.301,1,2.301,2.3c0,1.3-1,2.3-2.301,2.3c-1.3,0-2.3-1-2.4-2.2
				C245.4,144.9,246.4,143.9,247.7,143.8z"/>
		</g>
	</g>
	<g>
		<g>
			<path d="M269.1,148.7c1.3,0,2.3,1,2.3,2.3s-1,2.3-2.3,2.3c-1.301,0-2.301-1-2.301-2.2C266.799,149.7,267.799,148.7,269.1,148.7z"
				/>
		</g>
	</g>
	<g>
		<g>
			<path d="M176.4,138.2c2.1,0,3.7,1.6,3.8,3.6c0,2-1.6,3.7-3.7,3.7s-3.7-1.6-3.8-3.6C172.8,139.9,174.4,138.2,176.4,138.2z"/>
		</g>
	</g>
	<g>
		<g>
			<path d="M202.1,133.5c2.8,0,5.1,2.2,5.199,5c0,2.8-2.199,5-5,5.1c-2.8,0-5.1-2.2-5.2-5C197,135.8,199.3,133.5,202.1,133.5z"/>
		</g>
	</g>
	<g>
		<g>
			<path d="M225.299,138.2c2.101,0,3.701,1.6,3.801,3.6c0,2-1.6,3.7-3.7,3.7s-3.7-1.6-3.8-3.6
				C221.6,139.9,223.299,138.3,225.299,138.2z"/>
		</g>
	</g>
</g>
<g>
	<g>
		<g>
			<path fill="#DBDDCC" d="M152,396.201c1.3,0,2.3-1,2.4-2.301c0-1.3-1-2.3-2.3-2.3c-1.3,0-2.3,1-2.3,2.3
				C149.7,395.1,150.7,396.099,152,396.201z"/>
		</g>
	</g>
	<g>
		<g>
			<path fill="#DBDDCC" d="M129.3,391.201c1.3,0,2.3-1,2.3-2.201c0-1.299-1-2.299-2.3-2.299c-1.3,0-2.3,1-2.3,2.199
				C127,390.201,128,391.201,129.3,391.201z"/>
		</g>
	</g>
	<g>
		<g>
			<path fill="#DBDDCC" d="M247.7,396.099c1.301,0,2.301-0.999,2.301-2.299c0-1.301-1-2.301-2.301-2.301c-1.3,0-2.3,1-2.4,2.201
				C245.4,395.1,246.4,396.099,247.7,396.099z"/>
		</g>
	</g>
	<g>
		<g>
			<path fill="#DBDDCC" d="M269.1,391.3c1.3,0,2.3-1,2.3-2.301c0-1.299-1-2.299-2.3-2.299c-1.301,0-2.301,1-2.301,2.199
				C266.799,390.3,267.799,391.3,269.1,391.3z"/>
		</g>
	</g>
	<g>
		<g>
			<path fill="#DBDDCC" d="M176.4,401.8c2.1,0,3.7-1.6,3.8-3.6c0-2-1.6-3.701-3.7-3.701s-3.7,1.6-3.8,3.6
				C172.8,400.099,174.4,401.8,176.4,401.8z"/>
		</g>
	</g>
	<g>
		<g>
			<path fill="#DBDDCC" d="M202.1,406.5c2.8,0,5.1-2.199,5.199-5c0-2.799-2.199-5-5-5.1c-2.8,0-5.1,2.199-5.2,5
				S199.3,406.4,202.1,406.5z"/>
		</g>
	</g>
	<g>
		<g>
			<path fill="#DBDDCC" d="M225.299,401.8c2.101,0,3.701-1.6,3.801-3.6c0-2-1.6-3.701-3.7-3.701s-3.7,1.6-3.8,3.6
				C221.6,400.099,223.299,401.701,225.299,401.8z"/>
		</g>
	</g>
</g>
<g>
	<path d="M362.401,164.3c-5.701-8.4-12.201-16.5-19.201-24c-8.9-9.5-18.799-18.1-29.4-25.6c-7-5-14.5-9.6-22.1-13.6l0.9-1.6
		c7.699,4.1,15.199,8.7,22.301,13.7c10.699,7.6,20.699,16.3,29.6,25.9c7.1,7.5,13.6,15.7,19.299,24.2L362.401,164.3z"/>
</g>
<g>
	<path d="M403.7,272.9H400c0-63.4-30.701-123.5-82.1-160.8c-6.801-5-14.001-9.5-21.4-13.6l1.799-3.2c7.5,4.1,14.9,8.8,21.801,13.8
		C372.5,147.1,403.7,208.4,403.7,272.9z"/>
</g>
<g>
	<path d="M371.901,159.8c-3.301-4.9-6.801-9.8-10.5-14.4c-11.602-14.5-25.102-27.4-40.102-38.3c-6.6-4.8-13.6-9.2-20.799-13.2
		l0.899-1.6c7.2,4,14.3,8.5,20.899,13.3c15.201,11,28.801,24,40.5,38.6c3.701,4.6,7.301,9.5,10.602,14.5L371.901,159.8z"/>
</g>
<g>
	<path d="M41.4,164.3l-1.5-1c5.8-8.5,12.3-16.7,19.3-24.2c9-9.6,19-18.3,29.6-25.9c7.1-5.1,14.6-9.7,22.3-13.7l0.9,1.6
		c-7.6,4-15.1,8.6-22.1,13.6c-10.6,7.5-20.5,16.1-29.4,25.6C53.5,147.8,47.1,155.8,41.4,164.3z"/>
</g>
<g>
	<path fill="#DBDDCC" d="M3.7,272.9H0c0-64.6,31.2-125.8,83.6-163.8c7-5,14.3-9.7,21.8-13.8l1.8,3.2c-7.4,4-14.6,8.6-21.4,13.6
		C34.4,149.4,3.7,209.5,3.7,272.9z"/>
</g>
<g>
	<path d="M31.8,159.8l-1.5-1c3.3-5,6.9-9.9,10.6-14.5c11.7-14.6,25.3-27.6,40.5-38.6c6.7-4.8,13.7-9.3,20.9-13.3l0.9,1.6
		c-7.1,4-14.1,8.4-20.7,13.2c-15,10.9-28.5,23.7-40.1,38.3C38.6,150,35.1,154.9,31.8,159.8z"/>
</g>
<g>
	<g>
		<path fill="#DBDDCC" d="M200.9,539.3c4.601-0.1,8.2-9.301,8.2-16c0-6.701-3.7-15.701-8.2-15.6c-4.5,0.1-8.2,9.299-8.2,16
			C192.7,530.4,196.4,539.4,200.9,539.3z"/>
	</g>
</g>
<g>
	<g>
		<path fill="#DBDDCC" d="M250.1,486.4c0,0-31-5.199-18.7-26.699c10.8-18.801,79.899,4,46.601,37.799
			c-41.301,34.1-103.101-26.199-68.9-66.6c28.5-35,84.5,0.5,94,17.9c16.6,30.299-72.5-22.5,11.6-44.9c-1.1,0.699-0.4,1.1,1.4,1
			c-75.2,22.301-2.199,66.801-14.1,45.301C291.9,431.9,238,399.4,211.5,436.4c-26.5,36.9,31.1,83.699,59.6,58.6
			c27.5-30.199-27.2-48.799-37.2-33C225.4,481.8,250.1,486.5,250.1,486.4L250.1,486.4z"/>
		<path fill="#DBDDCC" d="M250.9,508.9c-19.7,0-39.7-13.4-48.6-32.6c-7.5-16.201-5.4-33,5.8-46.301c8.3-10.199,19.4-15.4,33.1-15.4
			c11.301,0,24.4,3.801,36.9,10.701c3.8-9.701,16.1-17.4,36.4-22.801l9-2.4l-5.201,3.201l9.701-0.5l-11.301,3.299
			c-19.1,5.701-30.5,13.4-33,22.5c9.6,6.201,17.6,13.5,20.801,19.4c2.299,4.201,2.9,7.201,1.699,9.201c-0.5,0.898-1.6,2-4,2l0,0
			c-5.1,0-13.3-5-18.699-11.5c-3.5-4.102-7.301-10.5-6.5-17.801c-10.9-5.9-22.301-9.199-32.301-9.199c-13.3,0-24,5.5-31.8,16.299
			c-7.899,11-8.7,23.9-2.2,36.4c8.1,15.699,25.5,27.1,41.4,27.1c7.1,0,13.3-2.299,18.4-6.799c6.699-7.4,8.799-14.801,5.899-21.201
			c-4.2-9.5-17.601-15.1-28.2-15.1c-6.1,0-10.699,1.801-12.8,5.1c-2,4.6-2.2,8.801-0.5,12.301c2.899,6.1,10.7,8.9,14,9.799
			c1,0.201,1.601,0.301,1.601,0.301l1.199,0.199v2.801l-1.6-0.199c0,0-0.7-0.102-1.801-0.4c-4.799-1.1-16.199-4.6-19.799-12.9
			c-2-4.5-1.301-9.699,2-15.5c2.799-4.801,9-7.5,17.6-7.5c14.6,0,33.8,8,39.1,20.801c2.4,5.799,3,15-7.9,26.1
			C270.799,505.4,261.1,508.9,250.9,508.9z M241.2,417.5c-12.8,0-23.199,4.801-30.9,14.4c-10.5,12.4-12.5,28.199-5.5,43.301
			c8.5,18.299,27.4,31,46.101,31c9.601,0,18.5-3.301,26.3-9.701c7.801-7.9,10.301-15.699,7.2-23c-4.8-11.4-22.8-19.1-36.601-19.1
			c-7.5,0-12.899,2.199-15.199,6.1c-2.801,4.9-3.5,9.301-1.9,13c0.301,0.701,0.7,1.301,1.1,1.9c-1.6-4.1-1.299-8.801,0.9-14
			c2.7-4.301,8.1-6.6,15.2-6.6c11.5,0,26.101,6.299,30.8,16.799c2.301,5.301,3.1,13.801-6.5,24.301c-5.6,5-12.6,7.6-20.4,7.6
			c-16.899,0-35.299-12-43.799-28.6c-6.9-13.5-6-27.4,2.5-39.199C220.4,421.9,235,416.099,253,418.9
			C249,417.9,245,417.5,241.2,417.5z M283.2,433.8c0.4,5.799,4,10.6,6.4,13.199c4.3,4.701,9.5,7.6,11.9,7.6c0.399,0,0.6-0.1,0.6-0.1
			c0.1-0.199,0.199-1.199-1.1-3.6C298,445.599,291.299,439.201,283.2,433.8z M279.6,431.5c-0.2,4.6,1.8,8.801,4,12
			c-2.2-3.799-3.301-7.699-3.2-11.5C280.1,431.9,279.9,431.701,279.6,431.5z M281.2,427.201L281.2,427.201
			c1.301-3.801,3.9-7.301,7.6-10.602c-4.199,3.102-7,6.5-8.299,10.201C280.7,426.9,281,427.099,281.2,427.201L281.2,427.201z"/>
	</g>
</g>
<g>
	<g>
		<path fill="#DBDDCC" d="M154,486.4c0,0,31-5.199,18.7-26.699c-10.8-18.801-79.9,4-46.6,37.799c41.3,34.1,103.1-26.199,68.9-66.6
			c-28.5-35-84.5,0.5-94,17.9c-16.6,30.299,72.5-22.5-11.6-44.9c1.1,0.699,0.4,1.1-1.4,1c75.2,22.301,2.2,66.801,14.1,45.301
			c10.1-18.301,64-50.801,90.5-13.801c26.5,36.9-31.1,83.699-59.6,58.6c-27.5-30.199,27.2-48.799,37.2-33
			C178.8,481.8,154,486.5,154,486.4L154,486.4z"/>
		<path fill="#DBDDCC" d="M153.2,508.9c-10.1,0-19.8-3.6-28-10.4c-11-11.199-10.4-20.4-8-26.199c5.4-12.9,24.5-20.801,39.1-20.801
			c8.6,0,14.8,2.6,17.6,7.5c3.3,5.701,4,10.9,2,15.5c-3.6,8.301-15,11.801-19.8,12.9c-1.1,0.301-1.8,0.4-1.8,0.4l-1.6,0.299v-2.898
			l1.1-0.201c0,0,0.6-0.1,1.6-0.299c3.3-0.9,11.1-3.701,14-9.801c1.7-3.5,1.5-7.699-0.6-12.5c-2-3.1-6.5-4.9-12.7-4.9
			c-10.6,0-24,5.701-28.2,15.1c-2.9,6.5-0.8,13.9,6,21.4c5,4.4,11.2,6.6,18.3,6.6c15.9,0,33.3-11.398,41.4-27.1
			c6.4-12.5,5.6-25.4-2.2-36.4c-7.8-10.799-18.5-16.299-31.8-16.299c-10,0-21.4,3.299-32.3,9.199c0.8,7.4-3,13.701-6.5,17.801
			c-5.4,6.4-13.7,11.5-18.8,11.5c-2.3,0-3.5-1.1-4-1.9c-1.2-2-0.6-5,1.7-9.199c3.2-5.9,11.1-13.201,20.8-19.4
			c-2.5-9.1-13.9-16.801-33-22.5L76.2,403l9.7,0.5l-5.1-3.1l8.8,2.301c20.4,5.398,32.6,13.1,36.4,22.799
			c12.5-6.9,25.5-10.699,36.9-10.699c13.6,0,24.7,5.199,33.1,15.4c11.2,13.199,13.299,30.1,5.8,46.199
			C192.9,495.5,172.9,508.9,153.2,508.9z M156.3,454.4c-13.8,0-31.8,7.699-36.6,19.1c-3,7.301-0.6,15.1,7.3,23.1
			c7.7,6.4,16.6,9.602,26.2,9.602c18.7,0,37.6-12.801,46.1-31c7-15.102,5-30.9-5.4-43.301c-7.8-9.5-18.2-14.4-31-14.4
			c-3.8,0-7.8,0.4-11.8,1.301c18-2.801,32.6,3,42.5,16.799c8.5,11.801,9.4,25.801,2.5,39.201c-8.5,16.6-26.9,28.6-43.8,28.6
			c-7.7,0-14.7-2.6-20.3-7.4c-9.7-10.699-9-19.199-6.6-24.4c4.6-10.5,19.3-16.799,30.8-16.799c7.1,0,12.5,2.299,15.1,6.4
			c2.4,5.398,2.7,10.1,1,14.199c0.4-0.6,0.8-1.301,1.1-1.9c1.6-3.699,1-8.1-1.9-13C169.2,456.5,163.8,454.4,156.3,454.4z
			 M120.9,433.8c-8.1,5.4-14.8,11.799-17.7,17c-1.3,2.299-1.2,3.4-1.1,3.6c0,0,0.2,0.1,0.6,0.1l0,0c2.4,0,7.6-2.9,11.9-7.6
			C116.9,444.4,120.5,439.599,120.9,433.8z M123.7,432.099c0.1,3.801-1,7.701-3.2,11.5c2.2-3.199,4.2-7.398,4-12
			C124.3,431.701,124,431.9,123.7,432.099z M115.3,416.599c3.8,3.201,6.3,6.801,7.6,10.602l0.1-0.102l0,0
			c0.2-0.1,0.5-0.299,0.7-0.398C122.3,423.099,119.5,419.701,115.3,416.599z"/>
	</g>
</g>
<g>
	<path d="M292.6,439.8l-0.9-1.6c7.6-4,15.1-8.602,22.1-13.602c10.602-7.5,20.5-16.1,29.4-25.6c7-7.5,13.5-15.5,19.201-24l1.5,1
		c-5.801,8.5-12.301,16.701-19.301,24.201c-9,9.6-19,18.299-29.6,25.898C307.799,431.201,300.299,435.8,292.6,439.8z"/>
</g>
<g>
	<path d="M298.299,443.9l-1.799-3.199c7.399-4,14.6-8.602,21.4-13.602C369.299,389.8,400,329.701,400,266.3h3.699
		c0,64.6-31.199,125.8-83.6,163.799C313.2,435.099,305.799,439.8,298.299,443.9z"/>
</g>
<g>
	<path d="M301.4,446.9l-0.899-1.6c7.1-4,14.1-8.4,20.799-13.201c15-10.898,28.5-23.799,40.102-38.299c3.699-4.6,7.199-9.4,10.5-14.4
		l1.5,1c-3.301,5-6.9,9.9-10.602,14.5c-11.699,14.6-25.299,27.6-40.5,38.6C315.7,438.5,308.6,442.9,301.4,446.9z"/>
</g>
<g>
	<path fill="#DBDDCC" d="M111.2,439.8c-7.7-4-15.2-8.701-22.3-13.701c-10.7-7.6-20.7-16.299-29.6-25.898
		C52.2,392.701,45.7,384.5,40,376l1.5-1c5.7,8.4,12.2,16.5,19.2,24c8.9,9.5,18.8,18.1,29.4,25.6c7,5,14.5,9.602,22.1,13.602
		L111.2,439.8z"/>
</g>
<g>
	<path fill="#DBDDCC" d="M105.4,443.9c-7.5-4.1-14.9-8.801-21.8-13.801C31.2,392.1,0,330.9,0,266.3h3.7
		c0,63.401,30.7,123.5,82.1,160.799c6.8,5,14,9.5,21.4,13.602L105.4,443.9z"/>
</g>
<g>
	<path fill="#DBDDCC" d="M102.3,446.9c-7.2-4-14.2-8.5-20.9-13.301c-15.2-11-28.8-24-40.5-38.6c-3.7-4.699-7.3-9.5-10.6-14.5l1.5-1
		c3.3,4.9,6.8,9.801,10.5,14.4c11.6,14.5,25.1,27.4,40.1,38.301C89,437,96,441.4,103.1,445.4L102.3,446.9z"/>
</g>
<g>
	<g>
		<g>
			<path fill="#DBDDCC" d="M111.2,194.8c0,5.3-6.7,14.9-20.2,28.7c-11.6,12.1-21.3,20.7-28.9,25.8
				c-6.9,13.1-10.4,21.901-10.4,26.401c0,2.699,1.3,4,3.9,4c3,0,7-2.801,12-8.4c4.4-4.9,7.4-9.1,9-12.7c-0.2-0.6-0.3-1.4-0.3-2.5
				c0-3.4,0.7-7.1,2.2-11.3c1.9-5.1,4.2-7.7,6.9-7.7c1.3,0,2,1,2,3c0,5.9-2.6,12.2-7.7,19.1c2.8,2.2,5.2,3.3,7.4,3.3
				c5,0,8.9-2.1,11.5-6.4h2.6c-3.9,5.7-8.7,8.5-14.6,8.5c-2.1,0-4.9-1.2-8.4-3.6c-2.6,4.5-6,8.9-10.1,13
				c-5.3,5.4-9.8,8.101-13.6,8.101c-1.8,0-3.4-0.899-4.6-2.7c-1.3-1.8-1.9-3.699-1.9-5.6c0-7.1,3.5-17.5,10.4-31
				c6.9-13.6,14.8-25.3,23.7-35.2c9.9-11.2,18.4-16.7,25.6-16.7C110,191.1,111.2,192.3,111.2,194.8z M108.9,195.8
				c0-1.5-0.8-2.3-2.3-2.3c-3.6,0-11,7.3-22.2,21.8c-9,11.7-15.6,21.2-19.6,28.3c6.6-3.8,13.8-9.8,21.4-17.9
				c3.6-3.8,7.8-8.8,12.8-15C105.6,202.4,108.9,197.5,108.9,195.8z"/>
		</g>
		<g>
			<path fill="#DBDDCC" d="M141.6,256.4c-4.3,6-9.5,11.4-15.4,16.2c-7.5,6.2-14,9.2-19.5,9.2c-3.4,0-6.2-1.1-8.5-3.4
				c-2.3-2.3-3.5-5.1-3.5-8.6c0-8.5,3.3-17.3,10-26.4c7.1-9.7,14.7-14.6,22.8-14.6c5.5,0,8.2,2,8.2,6.1c0,6.5-3.9,12.5-11.8,17.8
				c-6.9,4.7-13.9,7.3-20.9,7.8c-2.1,4.4-3.2,8.6-3.2,12.4c0,1.9,0.6,3.6,1.8,5c1.2,1.4,2.8,2.1,4.7,2.1
				c5.3,0,11.4-2.799,18.3-8.399c5.3-4.3,10.1-9.4,14.3-15.2H141.6z M132.3,234.2c0-2.1-1.1-3.2-3.3-3.2c-4.5,0-9.5,3.4-15,10.3
				c-3.7,4.7-7.1,10.3-10.3,16.7c6.3-0.2,12.6-2.8,19-7.7C129.1,245.4,132.3,240,132.3,234.2z"/>
		</g>
		<g>
			<path fill="#DBDDCC" d="M196.3,257c-3.8,6.1-7.8,11.4-12.1,15.9c-6.2,6.301-11.5,9.5-16.2,9.5c-1.9,0-3.6-0.9-4.9-2.699
				c-1.4-1.801-2-3.701-2-5.701c0-2.1,0.2-4.5,0.7-7.2c-4.5,5.7-7.3,9-8.4,10c-3.8,3.8-7.6,5.6-11.1,5.6c-2.6,0-4.8-1.199-6.5-3.8
				c-1.4-2.2-2.2-4.7-2.2-7.399c0-8.101,3.5-16.901,10.4-26.401c7.3-10,14.9-15,22.7-15c6.6,0,9.9,2.9,9.8,8.7
				c2.3-3.1,4-4.9,5.1-5.5c1.4-0.9,3.9-1.3,7.5-1.4c-9.3,13.9-14.1,21.1-14.4,21.6c-6.7,10.7-10.1,18-10.1,21.799
				c0,1.201,0.4,2.301,1.3,3.301c0.9,1.1,1.8,1.6,2.9,1.6c3.3,0,7.8-3.1,13.7-9.199c4.3-4.401,8-9,11.1-13.701H196.3z M174,237.8
				c0-1.4-0.5-2.6-1.6-3.6c-1.1-1.1-2.2-1.6-3.5-1.6c-6,0-12.7,5.4-20.1,16.3c-7,10.3-10.5,18.7-10.5,25.1
				c0,3.9,1.9,5.801,5.6,5.801c4,0,10-6,18.2-17.9C170,250.3,174,242.2,174,237.8z"/>
		</g>
		<g>
			<path fill="#DBDDCC" d="M249.299,256.4c-3.1,5.5-7.1,10.7-12,15.7c-6.299,6.5-11.6,9.7-16,9.7c-1.899,0-3.5-0.801-4.799-2.2
				c-1.301-1.5-1.9-3.2-1.9-5.3c0-2.9,0.5-6.1,1.4-9.7c-5.201,6.8-7.9,10.399-8.201,10.8c-3.899,4.1-7.699,6.2-11.399,6.2
				c-2,0-3.6-1-4.8-3c-1.2-2-1.8-4.101-1.8-6.2c0-5.1,1.9-11.3,5.6-18.5c1.9-3.7,5.4-9.2,10.399-16.7c1.9-2.9,3-4.5,3.301-4.8
				c1.199-1,2.9-1.4,5.3-1.4h3.3c-4.9,7.1-9.8,14.3-14.699,21.4c-6.601,10.5-10,17.9-10,22.2c0,3.399,1.5,5.101,4.5,5.101
				c5.2,0,15.7-13.701,31.5-41c1.6-2.8,2.699-4.5,3.199-5.1c1.4-1.7,3.1-2.6,4.9-2.6h4.5c-4.7,7.1-9.5,14.3-14.301,21.5
				c-6.6,10.7-10,17.9-10,21.8c0,1.4,0.4,2.6,1.301,3.6c0.9,1.1,2,1.6,3.3,1.6c3.5,0,8.101-3,13.899-9.1
				c4.201-4.5,7.801-9.2,10.801-14H249.299z"/>
		</g>
		<g>
			<path fill="#DBDDCC" d="M281.6,209.8l-12.301,19.8c2,0,2,1.6,3.601,0.4l-0.8,1.7l-4.801,0.5c-8.699,14.1-13.1,21.3-13.399,21.8
				c-6.3,11.1-9.5,18.201-9.5,21.5c0,1.201,0.5,2.201,1.399,3.201c0.9,1,1.9,1.399,3.101,1.399c3.3,0,7.8-3.101,13.7-9.399
				c4.2-4.401,8-9.101,11.3-14h2.601c-11.9,17.1-21.4,25.7-28.301,25.7c-2,0-3.699-1-5-3c-1.399-2-2-4.1-2-6.199
				c0-5.101,2.5-12.101,7.4-21.101c3.9-6.6,7.9-13.3,12-19.9h-4.801L257,230l4.899-0.3l12.899-19.9H281.6L281.6,209.8z"/>
		</g>
		<g>
			<path fill="#DBDDCC" d="M315.6,295.4c1.199,5.2-12,15.1-18.801,16.7C286.4,315.8,276.1,315,269,318
				c-33.9,12.701-37.701,18.9-37.701,25.5c0,1,0.4,2,1.201,3c0.799,1.101,1.799,1.601,2.799,1.601c14.301,0.5,30.701-31.7,43.601-57
				l2.2-3.899c1.699-3,4.3-7.5,7.8-13.601c-5.601,5.899-10,8.8-13.399,8.8c-2.201,0-4-1.1-5.5-3.3c-1.301-1.899-2-4.101-2-6.5
				c0-8.5,7.299-22.5,21.899-42h7.2c-8.5,12.6-13.4,20-14.9,22.2c-7,11.4-10.5,18.901-10.5,22.7c0,1.201,0.4,2.301,1.301,3.301
				c0.899,1.1,1.899,1.6,3,1.6c4.299,0,10.699-6.699,19.199-20.1l18.9-29.7h7.1l-31.8,51.8l-1.8,3c-5.9,9.1-11.5,24.301-30.1,50.4
				c-8.601,12.1-16.9,17.8-24,17.8c-1.7,0-3.2-0.7-4.4-2c-1.2-1.399-1.8-2.899-1.8-4.601c0-5.899,3.2-10.799,9.3-15.799
				c7.8-6.201,30.3-15.801,33.7-16.4c10.6-3,14-1.9,24.899-5.301c4.101-1,20.1-8.899,18-16.399"/>
		</g>
	</g>
	<g>
		<path fill="#DBDDCC" d="M33.7,246c0.1,3.4,0.3,4.6,2.6,5.9c2.6,1.4,7.6,1.4,14.5-1.6c6.1-2.6,10.9-4.4,14-6.8l-2.7,5.8
			c-4.5,2.5-6.9,3-12.7,4.7c-7.3,2.1-12,1.5-15.3-0.4c-1.6-0.9-2.5-2.4-2.7-4.6c-0.2-2.2,1.7-8.8,1.8-6.8L33.7,246z"/>
	</g>
	<g>
		<path fill="#DBDDCC" d="M294.6,220.5c0.6-1.2,0.699,2.3,0,3.7c-0.7,1.4-1.9,2.5-3.6,3.5c-3.4,1.9-7.9,3.5-13.9,3.9
			c-4.801,0.4-6.801,0.7-10.301,0.2l-1-2.9c2.201,0.7,6.101,0.7,11,0.8c5.5,0.1,10-1.1,12.701-2.6c2.399-1.3,2.899-2.1,3.799-4.2
			L294.6,220.5z"/>
	</g>
</g>
<g>
	<path fill="#DBDDCC" d="M200.9,290.5h21v2.301h-3.601c-1.6,0-2.6,0.199-3,0.6c-0.399,0.4-0.6,1.2-0.6,2.5v34.4
		c0,1.4,0.2,2.199,0.6,2.6c0.5,0.5,1.4,0.7,2.701,0.7h4v2.3h-21v-2.3h4c1.399,0,2.299-0.2,2.699-0.601
		c0.4-0.399,0.6-1.299,0.6-2.699V296c0-1.299-0.199-2.1-0.6-2.399c-0.6-0.5-1.6-0.7-3.199-0.7H200.9V290.5L200.9,290.5z"/>
</g>
<g>
	<path fill="#DBDDCC" d="M281.6,289.6h2.1L300,331.201c0.699,1.699,2,2.5,4,2.5h1.399V336h-18.101v-2.299h1.4
		c1.9,0,3.2-0.201,4-0.601c0.5-0.3,0.801-0.7,0.801-1.3c0-0.301-0.101-0.7-0.201-1.1L289.5,321l-0.9-2.399l-0.301-0.899l-7.6-19.4"
		/>
</g>
<g>
	<path fill="#DBDDCC" d="M306.1,290.5h15.1l13.6,35.9l12.5-35.9h15.5v2.301H359c-1.301,0-2.201,0.199-2.701,0.6s-0.699,1.1-0.699,2
		v36c0,0.7,0.301,1.301,0.801,1.7c0.6,0.399,1.5,0.601,2.898,0.601h3.5V336H342v-2.299h3.9c1.1,0,1.898-0.201,2.5-0.601
		c0.5-0.399,0.799-1,0.799-1.601v-38.6l-15,43.2h-2.1l-16.199-43v33.101c0,2,0.199,3.399,0.699,4.399s1.199,1.7,2.1,2.2
		s2.4,0.8,4.5,1v2.3H306v-2.3c2.799-0.2,4.699-0.801,5.699-1.801s1.5-2.799,1.5-5.399v-31.399c0-0.801-0.199-1.301-0.699-1.701
		c-0.5-0.399-1.4-0.5-2.6-0.5H306v-2.5H306.1z"/>
</g>
</svg>
