<?xml version="1.0" encoding="utf-8"?>
<!-- Generator: Adobe Illustrator 16.0.0, SVG Export Plug-In . SVG Version: 6.00 Build 0)  -->
<!DOCTYPE svg PUBLIC "-//W3C//DTD SVG 1.1//EN" "http://www.w3.org/Graphics/SVG/1.1/DTD/svg11.dtd">
<svg version="1.1" id="Layer_1" xmlns="http://www.w3.org/2000/svg" xmlns:xlink="http://www.w3.org/1999/xlink" x="0px" y="0px"
	 width="792px" height="479px" viewBox="0 0 792 479" enable-background="new 0 0 792 479" xml:space="preserve">
<g>
	<defs>
		<rect id="SVGID_1_" y="-69" width="792" height="612"/>
	</defs>
	<clipPath id="SVGID_2_">
		<use xlink:href="#SVGID_1_"  overflow="visible"/>
	</clipPath>
	<g clip-path="url(#SVGID_2_)">
		<defs>
			<rect id="SVGID_3_" x="-722" y="-65" width="701.946" height="608.75"/>
		</defs>
		<clipPath id="SVGID_4_">
			<use xlink:href="#SVGID_3_"  overflow="visible"/>
		</clipPath>
		<path clip-path="url(#SVGID_4_)" fill="#62ADAF" d="M59.263,368.264c0,188.908-153.143,342.05-342.05,342.05
			c-188.908,0-342.051-153.142-342.051-342.05S-471.695,26.213-282.787,26.213C-93.88,26.213,59.263,179.355,59.263,368.264"/>
	</g>
</g>
<g>
	<defs>
		<rect id="SVGID_5_" y="-69" width="792" height="611"/>
	</defs>
	<clipPath id="SVGID_6_">
		<use xlink:href="#SVGID_5_"  overflow="visible"/>
	</clipPath>
	<path clip-path="url(#SVGID_6_)" fill="#FDEFC7" d="M2.955,239C2.955,21.375,179.377-155.045,397-155.045
		S791.045,21.375,791.045,239c0,217.623-176.422,394.045-394.045,394.045S2.955,456.623,2.955,239"/>
</g>
<g>
	<defs>
		<rect id="SVGID_7_" y="-69" width="792" height="612"/>
	</defs>
	<clipPath id="SVGID_8_">
		<use xlink:href="#SVGID_7_"  overflow="visible"/>
	</clipPath>
	<path clip-path="url(#SVGID_8_)" fill="#E3D8B4" d="M484.373,214.518c8.624,0.618,3.656,13.838-3.506,9.057
		C476.797,220.863,477.449,214.019,484.373,214.518"/>
	<path clip-path="url(#SVGID_8_)" fill="#E3D8B4" d="M485.978,216.567c0.232-2.947,1.83-6.152,2.682-9.304
		c1.241-4.665,3.232-9.019,5.461-13.312c4.759-9.221,13.184-20.611,23.47-22.905c1.096-0.248,2.179-0.374,3.228-0.374
		c4.843,0.023,9.011,2.549,10.853,7.634c0.534,1.489,0.835,3.137,0.823,4.782c-0.006,4.15-1.803,8.113-6.091,9.689
		c-0.634,0.23-1.321,0.344-2.035,0.344c-3.329,0.031-7.214-2.529-8.488-5.319c-0.358-0.764-0.534-1.66-0.534-2.596
		c0-3.16,2.02-6.381,5.019-6.387c2.699,0.006,5.471,2.462,5.479,5.075c0,0.549-0.113,1.109-0.375,1.694
		c-0.685,1.454-1.412,1.785-2.063,1.798c-1.135,0-2.444-1.434-2.444-2.521c0.033-0.601,0.238-1.083,1.367-1.454
		c0.374-0.114,0.596-0.506,0.487-0.88c-0.113-0.379-0.505-0.591-0.878-0.485c-1.577,0.425-2.434,1.623-2.396,2.819
		c0.052,1.97,1.748,3.882,3.863,3.946c1.298,0.01,2.579-0.869,3.352-2.629c0.352-0.762,0.516-1.533,0.511-2.288
		c-0.046-3.589-3.432-6.469-6.907-6.501c-0.057,0-0.097,0.007-0.057,0.007c-4.077,0.082-6.374,4.15-6.374,7.806
		c0,1.107,0.199,2.213,0.664,3.189c1.621,3.383,5.777,6.112,9.775,6.144c0.861,0,1.707-0.136,2.523-0.426
		c4.973-1.816,7.049-6.502,7.032-11.025c0-1.812-0.323-3.618-0.919-5.262c-2.008-5.634-6.834-8.594-12.187-8.576
		c-1.162,0-2.353,0.142-3.538,0.409c-11.086,2.546-19.553,14.281-24.424,23.636c-2.246,4.334-4.287,8.784-5.568,13.599
		c-0.783,2.959-2.449,6.218-2.729,9.56h-0.005c-0.033,0.394,0.267,0.741,0.657,0.774c0.018,0,0.034,0.004,0.051,0.004
		C485.632,217.232,485.949,216.944,485.978,216.567"/>
	<path clip-path="url(#SVGID_8_)" fill="#E3D8B4" d="M510.735,198.274c0.011-1.504-0.754-3.051-2.4-4.022
		c-0.667-0.407-1.382-0.613-2.062-0.604c-1.906,0-3.396,1.494-3.794,3.4c-0.068,0.323-0.092,0.626-0.092,0.912
		c0,1.531,1.112,2.525,2.328,2.525c1.303-0.005,2.647-0.925,3.281-2.525c0.142-0.364-0.046-0.773-0.402-0.919
		c-0.368-0.141-0.777,0.04-0.925,0.403c-0.426,1.116-1.351,1.632-1.954,1.619c-0.547-0.051-0.853-0.18-0.91-1.103
		c0-0.189,0.029-0.402,0.068-0.628c0.301-1.38,1.293-2.271,2.399-2.268c0.403,0,0.85,0.114,1.326,0.404
		c1.26,0.774,1.702,1.744,1.718,2.806c-0.011,2.194-2.228,4.659-4.655,4.66c-0.674,0-1.366-0.166-2.08-0.579
		c-1.759-1.065-2.337-2.257-2.343-3.534c-0.057-2.451,2.569-5.46,5.358-6.565c1.651-0.674,3.067-0.919,4.407-0.919
		c3.112-0.013,5.918,1.4,9.826,2.179l-0.011,0.005c0.386,0.075,0.759-0.18,0.838-0.565c0.081-0.387-0.168-0.761-0.555-0.835
		c-3.676-0.716-6.549-2.19-10.099-2.202c-1.515,0-3.143,0.285-4.938,1.018c-3.227,1.338-6.204,4.517-6.256,7.884
		c-0.017,1.778,0.965,3.544,3.057,4.756c0.912,0.536,1.883,0.787,2.795,0.787C508.014,204.318,510.701,201.315,510.735,198.274"/>
	<path clip-path="url(#SVGID_8_)" fill="#E3D8B4" d="M487.56,219.521c2.347-1.605,5.567-2.015,8.567-2.698
		c3.688-0.854,7.332-1.849,10.961-2.889c6.88-1.975,13.798-4.836,19.576-9.246c5.188-3.954,10.025-8.946,12.236-15.372
		c0.698-2.001,1.027-4.128,1.027-6.276c-0.012-8.149-4.696-16.676-12.657-19.27c-1.809-0.595-3.703-0.855-5.613-0.855
		c-5.415,0.008-10.894,2.138-15.103,5.205c-7.194,5.264-11.799,13.966-15.451,21.795c-2.728,5.847-4.735,11.587-5.777,17.968
		c-0.438,2.654-1.062,5.07-1.102,7.871v0.004c-0.006,0.388,0.312,0.712,0.703,0.713c0.398,0.008,0.715-0.307,0.715-0.7
		c0.033-2.599,0.635-4.928,1.084-7.66c1.025-6.221,2.975-11.821,5.664-17.592c3.618-7.785,8.171-16.28,14.999-21.254
		c3.986-2.912,9.231-4.928,14.268-4.928c1.773,0,3.521,0.245,5.177,0.782c7.207,2.307,11.676,10.284,11.664,17.921
		c0,2.003-0.301,3.98-0.941,5.811c-2.069,6.018-6.675,10.845-11.755,14.709c-5.573,4.259-12.333,7.063-19.099,9.005
		c-3.618,1.035-7.247,2.026-10.898,2.871c-2.888,0.677-6.29,1.058-9.046,2.905c-0.329,0.22-0.407,0.668-0.186,0.993
		c0.136,0.199,0.362,0.31,0.591,0.31C487.299,219.644,487.44,219.608,487.56,219.521"/>
	<path clip-path="url(#SVGID_8_)" fill="#E3D8B4" d="M428.244,294.703c-0.011,3.504-2.359,7.088-6.557,7.088
		c-0.101,0-0.203-0.006-0.305-0.006v-0.703l-0.023,0.703c-3.736-0.238-7.535-4.09-7.604-8.08c-0.006-0.936,0.227-1.883,0.743-2.74
		c1.331-2.125,4.435-3.396,7.208-3.43c1.071,0,2.103,0.205,2.977,0.727C427.109,289.701,428.244,292.254,428.244,294.703
		 M423.957,289.48c-0.555-0.334-1.333-0.521-2.206-0.521h-0.044c-2.314-0.036-5.161,1.269-5.988,2.731
		c-0.375,0.635-0.54,1.311-0.546,2.014c-0.067,3.051,3.459,6.617,6.249,6.671h0.266c3.273-0.009,5.1-2.718,5.134-5.673
		C426.814,292.662,425.902,290.637,423.957,289.48"/>
	<path clip-path="url(#SVGID_8_)" fill="#E3D8B4" d="M462.217,359.133c1.918-1.195,2.569-3.137,3.884-3.01
		c0.093,0,0.222,0.016,0.347,0.037c1.248,0.104,2.381,2.24,4.622,3.053c0.687,0.203,1.411,0.322,2.16,0.322
		c2.432,0.006,5.052-1.209,6.04-3.852c0.266-0.695,0.316-1.365,0.311-1.967c0-0.516-0.04-0.975-0.04-1.383
		c0.005-0.777,0.091-1.373,0.585-2.018c0.539-0.648,0.868-0.729,1.367-0.756c0.731-0.023,1.786,0.482,3.072,0.5
		c0.045,0,0.097,0.009,0.171,0c3.119-0.188,5.523-3.018,6.123-5.654c0.108-0.453,0.144-0.885,0.144-1.281
		c-0.022-2.326-1.395-3.691-2.116-5.467c-0.322-0.795-0.493-1.645-0.493-2.479c0-1.418,0.477-2.818,1.492-3.93
		c0.952-1.078,1.938-1.938,1.943-3.533c0-0.453-0.073-0.936-0.238-1.457c-1.502-4.854-6.028-5.512-8.765-8.047
		c-0.824-0.764-1.01-1.35-1.027-2.019c-0.046-1.288,1.111-2.909,1.157-4.894c0-0.686-0.177-1.416-0.607-2.104
		c-3.131-4.598-8.955-1.385-11.034-3.754c-2.677-2.168-0.472-6.822-4.946-9.48c-1.252-0.693-2.454-0.902-3.623-0.896
		c-0.947,0-1.859,0.125-2.818,0.227c-0.227,0.026-0.453,0.039-0.663,0.039c-2.512,0-3.605-1.725-4.917-3.844
		c-1.246-2.041-2.692-4.514-5.914-4.525c-0.188,0-0.381,0.012-0.572,0.029c-3.477,0.424-4.605,3.701-6.459,3.838
		c-0.154,0.021-0.301,0.033-0.448,0.033c-1.774,0.119-3.277-2.303-5.994-2.75c-0.192-0.021-0.368-0.033-0.55-0.033
		c-3.006,0.062-6.437,2.551-7.758,4.83h-0.004c-0.194,0.346-0.064,0.771,0.275,0.971c0.342,0.188,0.778,0.068,0.966-0.273
		c0.929-1.77,4.36-4.174,6.521-4.104c0.137,0,0.249,0.004,0.357,0.021c1.831,0.096,3.356,2.643,6.187,2.762
		c0.228,0,0.452-0.018,0.675-0.057c2.988-0.688,3.912-3.748,6.356-3.826c0.164-0.008,0.318-0.023,0.448-0.023
		c2.331,0,3.38,1.705,4.695,3.844c1.241,2.064,2.79,4.531,6.136,4.531c0.261,0,0.532-0.012,0.812-0.047
		c0.986-0.107,1.865-0.227,2.67-0.227c1.004,0.006,1.91,0.166,2.937,0.727c3.505,1.691,1.345,5.885,4.669,9.277
		c3.623,2.926,8.833-0.148,10.785,3.458c0.295,0.478,0.396,0.901,0.396,1.356c0.045,1.35-1.106,2.961-1.151,4.894
		c-0.017,1.032,0.426,2.132,1.503,3.079c3.3,2.859,7.224,3.43,8.348,7.379c0.125,0.445,0.182,0.789,0.182,1.064
		c0.005,0.891-0.517,1.396-1.577,2.574c-1.275,1.396-1.866,3.154-1.866,4.889c0,1.033,0.215,2.059,0.601,3.018
		c0.913,2.092,2.038,3.283,2.015,4.928c0,0.301-0.029,0.617-0.107,0.971c-0.42,2.086-2.615,4.506-4.787,4.553h-0.125
		c-0.856,0.021-1.865-0.479-3.072-0.506c-0.84-0.027-1.775,0.363-2.484,1.299c-0.754,0.965-0.896,2.002-0.879,2.893
		c0,0.492,0.039,0.959,0.039,1.383c-0.005,0.521-0.057,0.988-0.231,1.463c-0.716,1.963-2.694,2.926-4.707,2.932
		c-0.595,0-1.196-0.09-1.741-0.262c-1.52-0.389-2.557-2.59-4.793-3.094c-0.203-0.029-0.395-0.051-0.595-0.051
		c-2.579,0.123-3.282,2.625-4.569,3.186c-1.083,0.596-2.303,0.959-3.472,0.959c-1.071,0-2.091-0.307-2.958-1.027
		c-1.356-1.088-1.271-2.268-2.457-4.139c-0.566-0.924-1.514-1.316-2.348-1.299c-1.049,0.016-2.006,0.432-2.857,0.656
		c-0.613,0.172-1.22,0.262-1.775,0.262c-1.27-0.01-2.308-0.432-3.124-1.49c-0.851-1.145-1.005-2.172-1.016-3.426
		c0-0.76,0.068-1.582,0.085-2.455c0-0.033,0.006-0.098,0.006-0.17c0.006-1.049-0.266-1.922-0.886-2.496
		c-0.616-0.572-1.438-0.754-2.296-0.754c-0.43,0-0.889,0.045-1.378,0.131c-1.054,0.176-1.989,0.334-2.795,0.334
		c-1.214-0.018-2.099-0.295-3.107-1.525c-0.522-0.676-0.635-1.111-0.641-1.502c-0.058-0.805,0.828-1.832,0.992-3.572
		c0.018-0.121,0.022-0.25,0.022-0.391c-0.022-2.848-2.597-3.49-4.451-3.953c-2.042-0.58-3.396-0.93-3.396-2.768
		c0-0.084,0.01-0.199,0.01-0.266c0.035-1.311,1.237-2.699,1.288-4.578c0.011-0.686-0.204-1.439-0.715-2.131
		c-1.897-2.285-4.678-1.111-5.551-2.672c-0.317-0.425-0.471-1.061-0.471-1.781c0-0.963,0.3-2.053,0.657-2.709
		c0.402-0.992,2.954-1.961,3.108-4.254c0-0.131,0-0.311-0.052-0.475c-0.391-1.395-1.961-2.139-2.273-2.654
		c-0.619-0.766-1.202-1.781-1.191-2.488l0.007-0.008c-0.046-0.998,1.042-3.391,1.831-4.15c0.277-0.289,0.266-0.738-0.018-1.01
		c-0.282-0.271-0.726-0.266-1.003,0.016c-1.101,1.197-2.189,3.473-2.228,5.145v0.008c0.017,1.354,0.821,2.5,1.479,3.367
		c0.703,0.781,2.047,1.758,2.02,2.109c0.004,0.01,0.01,0.057,0.01,0.141c0.154,0.92-1.915,1.996-2.931,3.574
		c-0.489,0.906-0.834,2.137-0.834,3.389c0,0.908,0.177,1.844,0.731,2.621c1.99,2.338,4.832,1.234,5.547,2.666
		c0.357,0.486,0.452,0.879,0.459,1.297c0.062,1.152-1.107,2.562-1.299,4.525v0.318c0,2.943,2.575,3.68,4.463,4.139
		c2.053,0.574,3.407,0.896,3.38,2.582c0,0.061-0.007,0.146-0.018,0.27c-0.044,1.221-0.936,2.123-0.993,3.693
		c-0.005,0.742,0.279,1.553,0.942,2.381c1.213,1.561,2.738,2.088,4.225,2.07c0.992-0.006,1.985-0.193,3.023-0.352
		c0.436-0.074,0.821-0.113,1.149-0.113c1.328,0.125,1.639,0.211,1.752,1.826v0.119c-0.011,0.84-0.078,1.662-0.078,2.506
		c-0.018,1.379,0.215,2.848,1.293,4.275c1.088,1.445,2.666,2.076,4.264,2.064c0.715,0,1.435-0.119,2.161-0.312
		c0.94-0.271,1.843-0.611,2.472-0.6c0.499,0.021,0.777,0.107,1.163,0.652c0.969,1.404,0.941,2.92,2.732,4.457
		c1.146,0.945,2.524,1.348,3.867,1.348C459.518,360.271,460.963,359.832,462.217,359.133"/>
	<path clip-path="url(#SVGID_8_)" fill="#E3D8B4" d="M457.998,351.029c2.857-0.086,4.354-2.133,6.137-2.031
		c0.288,0,0.617,0.047,0.98,0.16c1.064,0.271,2.262,1.479,4.025,1.531c0.09,0,0.176,0,0.262-0.012
		c1.412-0.152,3.241-0.998,4.15-2.205c1.502-2.434,0.408-4.162,2.371-5.178c1.422-1.055,5.284,0.42,6.435-3.453
		c0.103-0.373,0.138-0.732,0.138-1.066c-0.041-2.037-1.321-3.664-1.565-5.018c-0.035-0.211-0.052-0.415-0.052-0.619
		c-0.05-1.605,1.396-3.346,1.457-5.432c0.012-0.801-0.277-1.641-0.942-2.359c-1.694-1.764-3.944-1.623-4.978-2.859
		c-0.714-0.795-0.85-1.338-0.867-1.979c-0.012-0.789,0.317-1.775,0.328-3.045c0-0.137,0-0.262-0.011-0.369
		c-0.222-2.869-3.051-4.014-5.069-4.326c-2.87-0.51-3.533-0.113-4.661-2.818c-0.896-2.205-0.709-5.252-3.493-7.156
		c-0.925-0.623-1.895-0.801-2.763-0.801c-1.032,0.006-1.951,0.211-2.818,0.211c-0.368,0-0.72-0.033-1.076-0.119
		c-2.405-0.34-1.355-3.549-4.479-5.551c-1.271-0.697-2.428-0.994-3.528-0.994c-1.259,0.006-2.427,0.357-3.724,0.777
		c-0.312,0.104-0.643,0.154-0.988,0.154c-1.439,0.01-3.137-0.971-4.418-2.115c-1.524-1.361-2.722-2.672-5.052-2.672
		c-0.267,0-0.54,0.018-0.828,0.051c-2.008,0.244-4.491,1.367-5.976,2.699h-0.007c-0.288,0.262-0.306,0.715-0.046,1.004
		c0.268,0.283,0.714,0.312,1.01,0.047c1.151-1.072,3.572-2.174,5.184-2.338c0.244-0.023,0.465-0.045,0.663-0.045
		c1.723,0.006,2.45,0.84,4.111,2.314c1.435,1.248,3.306,2.455,5.358,2.479c0.482,0,0.959-0.07,1.428-0.221
		c1.289-0.416,2.304-0.705,3.284-0.705c0.861,0,1.729,0.205,2.853,0.818c2.184,0.895,1.123,4.531,4.827,5.676
		c0.486,0.119,0.963,0.158,1.404,0.158c1.066-0.006,1.997-0.209,2.818-0.203c0.704,0.004,1.311,0.123,1.968,0.555
		c2.076,1.338,1.975,3.805,2.954,6.5c1.169,3.266,3.256,3.383,5.778,3.695c1.81,0.283,3.828,1.299,3.869,3.016
		c0.005,0.098,0.016,0.193,0.016,0.279c0,0.992-0.323,1.928-0.334,3.045c-0.012,0.93,0.318,1.958,1.236,2.949
		c1.74,1.73,3.985,1.615,4.967,2.834c0.455,0.518,0.584,0.926,0.59,1.414c0.057,1.314-1.418,3.146-1.469,5.432
		c0,0.283,0.023,0.572,0.08,0.885c0.413,1.826,1.577,3.387,1.536,4.752c0,0.238-0.022,0.449-0.091,0.686
		c-0.526,2.535-3.027,1.254-5.773,2.598c-2.828,1.764-1.7,4.275-2.817,5.598c-0.396,0.658-2.234,1.58-3.102,1.604h-0.147
		c-0.98,0.057-2.099-0.959-3.612-1.457c-0.481-0.16-0.953-0.232-1.394-0.232c-2.711,0.107-4.135,2.125-6.137,2.035h-0.153
		c-0.999-0.018-2.818-0.566-3.527-1.082c-0.918-0.518-0.737-1.85-1.968-3.211c-0.611-0.629-1.396-0.85-2.063-0.844
		c-1.141,0.021-2.115,0.436-2.869,0.418c-0.391-0.004-0.687-0.072-1.01-0.305c-1.9-1.221-1.418-4.928-3.958-6.975
		c-2.614-1.549-5.257,0.006-5.903-1.871c-0.233-0.494-0.312-0.982-0.322-1.498c-0.012-1.24,0.571-2.666,0.583-4.287
		c0.005-0.936-0.231-1.945-0.931-2.893c-2.261-2.664-5.199-0.975-6.181-2.959c-0.215-0.34-0.289-0.664-0.289-1.066
		c-0.04-0.986,0.647-2.279,0.675-3.748c0.012-0.783-0.266-1.648-0.97-2.354c-2.109-1.762-4.723-1.26-4.428-2.658
		c0-0.211,0.039-0.494,0.128-0.84c0.274-1.248,2.118-2.75,2.218-4.719c0.007-0.402-0.107-0.861-0.355-1.242
		c-1.327-2.143-2.427-2.801-2.784-4.967c-0.08-0.459-0.165-0.727-0.159-0.885c0.006-0.096,0.012-0.176,0.067-0.318
		c0.147-0.363-0.029-0.771-0.391-0.928c-0.363-0.143-0.777,0.033-0.925,0.396c-0.117,0.287-0.171,0.578-0.164,0.85
		c0,0.471,0.117,0.793,0.171,1.117c0.459,2.682,1.871,3.635,2.981,5.488c0.103,0.164,0.137,0.301,0.143,0.488
		c0.091,0.924-1.582,2.518-2.172,4.344c-0.119,0.438-0.176,0.832-0.176,1.215c0.301,3.242,4.021,2.438,4.83,3.662
		c0.443,0.453,0.55,0.846,0.562,1.35c0.022,0.969-0.646,2.268-0.681,3.748c0,0.596,0.142,1.242,0.522,1.836
		c2.154,2.887,5.233,1.197,6.225,3.029c0.517,0.703,0.663,1.338,0.669,2.053c0.007,1.236-0.571,2.66-0.583,4.287
		c0,0.668,0.102,1.395,0.454,2.105c1.736,3.1,5.171,1.223,6.351,2.42c1.787,1.09,1.344,4.85,3.953,6.965
		c0.59,0.436,1.247,0.584,1.849,0.57c1.151-0.004,2.138-0.424,2.869-0.406c0.42,0.01,0.702,0.084,1.055,0.43
		c0.749,0.59,0.583,2.195,2.184,3.387c1.1,0.725,2.909,1.252,4.298,1.32H457.998z"/>
	<path clip-path="url(#SVGID_8_)" fill="#E3D8B4" d="M459.269,342.557c-0.335,0.08-0.663,0.104-0.986,0.104
		c-1.305,0-2.565-0.518-3.54-1.191c-1.639-1.145-1.797-2.807-2.029-3.98c-0.289-1.225-0.419-1.93-1.923-2.502
		c-2.619-0.99-6.72-0.197-8.068-4.461c-0.47-1.73-0.244-3.42-1.021-4.414c-0.669-0.951-1.593-0.854-3.216-1.195
		c-3.521-0.709-4.4-3.551-4.325-6.158c0-0.855,0.068-1.713,0.123-2.547c0.018-0.146,0.029-0.248,0.029-0.346
		c-0.057-1.281-0.505-1.457-1.462-1.984c-0.914-0.447-2.313-0.959-2.859-2.615c-0.181-0.566-0.232-1.121-0.232-1.633
		c0-1.168,0.268-2.217,0.268-3.113c0-0.617-0.107-1.139-0.438-1.66c-1.07-1.766-3.147-2.416-5.063-3.857
		c-0.312-0.242-0.375-0.684-0.125-0.996c0.233-0.312,0.687-0.369,0.986-0.127c1.583,1.254,3.952,1.93,5.404,4.225
		c0.51,0.795,0.658,1.633,0.647,2.416c0,1.141-0.268,2.178-0.257,3.113c0,0.42,0.046,0.824,0.16,1.203
		c0.306,0.959,1.071,1.258,2.132,1.77c0.997,0.438,2.302,1.355,2.251,3.26c0,0.154,0,0.307-0.022,0.467
		c-0.051,0.82-0.125,1.648-0.125,2.426c0.074,2.49,0.466,4.129,3.209,4.773c1.258,0.301,2.888,0.154,4.066,1.742
		c1.162,1.678,0.812,3.596,1.242,4.848c0.845,3.084,3.788,2.416,7.162,3.527c2.075,0.676,2.648,2.309,2.853,3.574
		c0.26,1.32,0.368,2.318,1.439,3.084c0.771,0.539,1.827,0.941,2.734,0.941c0.237,0,0.46-0.023,0.662-0.074
		c0.925-0.158,1.101-1.061,2.423-1.889c0.493-0.271,1.015-0.396,1.501-0.387c1.826,0.062,3.278,1.289,4.237,1.221
		c0.312-0.006,0.555-0.068,0.879-0.322c0.601-0.523,0.674-0.857,0.697-1.385c0.011-0.59-0.256-1.367-0.262-2.279
		c-0.01-0.467,0.074-0.963,0.329-1.457c0.681-1.311,1.962-1.504,2.779-1.617c0.901-0.158,1.276-0.199,1.576-0.861
		c0.164-0.402,0.228-0.727,0.228-1.014c0.074-1.334-1.68-2.418-3.131-3.574c-1.094-0.941-1.791-2.312-1.791-3.811
		c0-0.25,0.01-0.51,0.057-0.783c0.255-1.258,0.986-2.166,0.951-2.881l0.007-0.01v-0.041c0.089-2.438-2.899-2.578-5.461-3.238
		c-3.827-1.1-2.988-4.156-4.207-6.117c-0.835-1.68-3.257-1.299-5.62-1.555c-1.918-0.215-2.87-1.332-3.244-2.414
		c-0.414-1.078-0.579-2.061-1.396-2.904c-1.116-1.18-2.658-1.366-4.45-1.366c-0.562,0-1.152,0.022-1.735,0.022
		c-0.216,0-0.419,0-0.637-0.006c-3.447-0.182-4.7-3.307-6.655-4.564c-1.072-0.742-2.524-1.186-3.873-1.299
		c-0.165-0.023-0.318-0.028-0.478-0.028c-1.406,0.005-1.938,0.571-3.516,1.468c-0.335,0.193-0.777,0.068-0.964-0.266
		c-0.193-0.346-0.08-0.777,0.267-0.977c1.36-0.754,2.302-1.648,4.213-1.639c0.187,0,0.396,0,0.612,0.023
		c1.548,0.137,3.204,0.617,4.543,1.549c2.397,1.757,3.521,4.314,5.887,4.303c0.197,0.012,0.396,0.016,0.601,0.016
		c0.55,0,1.134-0.025,1.735-0.025c1.843,0,3.912,0.17,5.482,1.807c1.135,1.186,1.34,2.518,1.689,3.363
		c0.388,0.846,0.568,1.26,2.116,1.521c1.854,0.322,5.048-0.434,6.669,2.268c1.536,2.943,0.556,4.717,3.338,5.443
		c2.01,0.596,6.324,0.611,6.5,4.582c0.012,0.039,0.012,0.107-0.005,0.188c-0.086,1.361-0.901,2.307-0.97,3.012
		c-0.029,0.174-0.047,0.355-0.047,0.549c0,1.037,0.5,2.035,1.306,2.727c1.145,1.039,3.549,2.146,3.629,4.658
		c0,0.492-0.113,1.025-0.352,1.574c-0.557,1.361-1.843,1.6-2.66,1.707c-0.901,0.149-1.383,0.211-1.735,0.869
		c-0.119,0.242-0.164,0.48-0.17,0.799c-0.018,0.596,0.249,1.361,0.262,2.279c0.021,0.805-0.308,1.764-1.22,2.484
		c-0.545,0.453-1.179,0.652-1.774,0.645c-1.754-0.072-3.158-1.285-4.237-1.23c-0.282,0.014-0.527,0.059-0.815,0.217
		C461.338,340.828,460.976,342.092,459.269,342.557 M469.446,320.051l-0.017-0.006L469.446,320.051z"/>
	<path clip-path="url(#SVGID_8_)" fill="#E3D8B4" d="M462.823,331.676c-0.714,0.566-1.586,0.805-2.438,0.805h-0.029
		c-1.757-0.012-3.498-0.885-4.628-2.029c-1.672-1.844-1.74-3.947-3.497-4.992c-1.555-1.07-3.93-0.59-6.192-2.232
		c-2.785-2.229-1.463-5.115-2.382-6.936c-0.54-1.441-1.996-1.039-4.266-1.895c-4.315-1.916-3.214-6.725-4.819-9.322
		c-1.23-2.303-3.851-5.947-6.261-5.846c-0.333,0.006-0.668,0.057-1.031,0.193c-0.368,0.141-0.781-0.041-0.918-0.41
		c-0.131-0.367,0.044-0.781,0.406-0.924c0.11-0.039,0.224-0.066,0.325-0.102c0.129-0.209,0.368-0.346,0.629-0.334h0.006
		c2.416,0.125,5.931,0.6,7.938,2.766c1.101,1.281,1.351,2.871,2.122,3.807c0.975,1.242,1.948,2.092,3.384,2.527
		c1.997,0.744,5.881-0.408,7.701,2.75c1.52,2.973,0.607,4.369,3.583,4.793c2.768,0.277,5.62,0.924,5.757,4.582
		c0.222,3.125,1.156,2.596,3.839,4.609c1.52,1.117,2.546,2.854,2.558,4.668C464.617,329.424,464.049,330.734,462.823,331.676
		 M434.612,301.371c-0.448-0.51-1.083-0.918-1.803-1.24c1.304,1.359,2.308,3.043,3.011,4.246c1.804,3.5,0.93,7.52,4.117,8.705
		c1.525,0.73,3.867,0.176,5.023,2.646c1.071,2.791-0.062,4.945,1.939,6.369c1.582,1.281,3.839,0.811,6.102,2.16
		c2.377,1.576,2.473,3.998,3.749,5.201c0.849,0.871,2.358,1.609,3.605,1.6c0.619,0,1.151-0.154,1.593-0.5
		c0.902-0.721,1.227-1.531,1.236-2.404c0.013-1.248-0.771-2.648-1.972-3.523c-2.173-1.58-4.281-1.908-4.423-5.68
		c-0.193-2.705-1.549-2.767-4.526-3.25c-3.986-0.527-3.505-3.447-4.649-5.539c-0.93-2.031-4.083-1.311-6.872-2.049
		c-1.771-0.539-3.017-1.66-4.073-3.01C435.633,303.736,435.372,302.176,434.612,301.371"/>
	<path clip-path="url(#SVGID_8_)" fill="#E3D8B4" d="M191.79,263.451c27.569-0.141,45.614-32.473,47.582-58.402
		c0.158-1.93,0.25-3.962,0.25-6.015c0.017-10.363-2.462-22.07-13.962-26.334c-2.178-0.809-4.337-1.225-6.379-1.225
		c-6.465-0.061-11.773,4.319-12.821,12.274c-0.085,0.636-0.131,1.327-0.141,2.031c0.01,4.985,2.336,11.261,8.248,12.329
		c0.49,0.073,0.978,0.11,1.47,0.11c4.735-0.037,10.219-3.4,10.344-8.615c0-0.126-0.011-0.237-0.011-0.288
		c-0.177-3.722-3.26-6.067-6.25-6.057c-2.211-0.043-4.507,1.402-5.245,4.217c-0.153,0.57,0.182,1.152,0.743,1.313
		c0.572,0.158,1.162-0.177,1.321-0.748c0.579-1.97,1.78-2.616,3.181-2.654c1.941,0.007,4.021,1.535,4.117,4.056
		c0,0.072,0.006,0.131,0,0.161c0.006,1.726-0.998,3.335-2.597,4.548c-1.593,1.206-3.727,1.942-5.603,1.937
		c-0.386,0-0.766-0.034-1.122-0.082c-4.288-0.642-6.464-5.744-6.454-10.227c0-0.602,0.033-1.195,0.113-1.744
		c1.072-7.154,5.201-10.364,10.707-10.428c1.764,0,3.668,0.363,5.637,1.096c10.19,3.728,12.544,14.146,12.566,24.33
		c0.005,1.996-0.086,3.958-0.234,5.855c-1.853,25.283-19.789,56.57-45.46,56.435c-4.758,0-9.811-1.053-15.152-3.4
		c-8.245-3.646-15.023-9.371-17.579-18.125c-1.123-3.839-1.729-7.766-1.729-11.645c0-6.286,1.609-12.414,5.256-17.814
		c5.001-7.395,12.38-11.952,20.301-11.947c3.091,0,6.272,0.683,9.464,2.18c7.848,3.699,11.879,9.922,11.896,16.946
		c-0.011,3.685-1.128,7.627-3.525,11.556c-2.836,4.715-9.16,9.054-14.852,9.009c-2.075,0-4.055-0.537-5.88-1.792
		c-3.743-2.567-6.958-7.519-6.93-11.864c0.016-2.485,0.941-4.762,3.419-6.669c1.264-0.969,2.66-1.45,4.02-1.45
		c1.083,0,2.149,0.299,3.152,0.941c1.595,0.968,3.205,3.509,3.16,5.5c-0.017,1.009-0.312,1.83-1.151,2.559
		c-0.448,0.374-0.505,1.051-0.12,1.499c0.381,0.45,1.062,0.5,1.504,0.121c1.345-1.123,1.91-2.686,1.899-4.179
		c-0.045-2.978-1.917-5.851-4.145-7.302c-1.338-0.854-2.819-1.271-4.299-1.271c-1.87,0-3.726,0.665-5.313,1.881
		c-2.976,2.26-4.271,5.319-4.258,8.37c0.039,5.345,3.613,10.655,7.847,13.619c2.202,1.514,4.65,2.175,7.095,2.175
		c6.731-0.04,13.41-4.727,16.677-10.037c2.574-4.218,3.833-8.543,3.833-12.666c0.012-7.885-4.679-14.937-13.122-18.871
		c-3.458-1.633-6.969-2.393-10.371-2.393c-8.772,0.006-16.769,5.034-22.076,12.883c-3.901,5.794-5.62,12.367-5.613,19.016
		c0,4.098,0.646,8.224,1.82,12.248c2.773,9.533,10.177,15.699,18.764,19.475c5.563,2.449,10.909,3.574,15.962,3.574H191.79z"/>
	<path clip-path="url(#SVGID_8_)" fill="#E3D8B4" d="M355.739,285.107c22.428-1.588,31.393-22.389,31.342-41.432
		c0-3.57-0.312-7.089-0.896-10.446c-3.47-19.04-26.255-36.298-44.288-40.906c-6.549-1.654-13.966-2.435-21.662-2.435
		c-17.499,0.007-36.45,4.031-50.111,11.236c-18.991,10.028-32.652,24.912-45.519,40.875v0.01c-0.362,0.451-0.289,1.123,0.17,1.496
		s1.135,0.293,1.497-0.164c12.806-15.903,26.266-30.52,44.856-40.329c13.222-6.991,31.931-10.993,49.107-10.984
		c7.553,0,14.795,0.758,21.14,2.365c17.311,4.297,39.689,21.55,42.695,39.209c0.572,3.225,0.878,6.627,0.878,10.072
		c-0.05,18.568-8.489,37.871-29.356,39.301c-0.782,0.051-1.587,0.078-2.392,0.084c-13.503-0.045-27.839-7.668-27.866-22.871
		c0-0.748,0.033-1.512,0.102-2.279c0.857-10.377,12.162-17.938,22.755-17.918c3.873,0.004,7.588,0.99,10.639,3.154
		c4.638,3.252,6.89,8.352,6.89,13.254c-0.058,7.146-4.617,13.662-13.821,13.695c-0.147,0-0.306-0.002-0.452,0
		c-5.416-0.141-9.38-4.445-9.392-9.809c0-0.398,0.023-0.822,0.063-1.236c0.63-5.25,4.157-7.018,7.156-7.068
		c2.348,0.012,3.736,1.145,3.741,2.213c0,0.275-0.06,0.582-0.242,0.971c-0.26,0.531-0.028,1.168,0.494,1.422
		c0.538,0.258,1.18,0.033,1.428-0.496c0.307-0.635,0.461-1.283,0.461-1.896c-0.092-2.934-3.018-4.338-5.882-4.35
		c-3.867-0.047-8.601,2.668-9.281,8.988c-0.041,0.477-0.064,0.953-0.074,1.453c-0.013,6.441,4.886,11.793,11.515,11.945h0.465
		c10.39-0.016,15.942-7.773,15.958-15.832c0-5.547-2.557-11.32-7.792-15c-3.481-2.455-7.649-3.541-11.874-3.541
		c-11.482,0.016-23.76,7.988-24.889,19.861c-0.062,0.844-0.095,1.658-0.108,2.469c0.046,16.838,15.862,24.975,30.006,25.004
		C354.049,285.193,354.9,285.158,355.739,285.107"/>
	<path clip-path="url(#SVGID_8_)" fill="#E3D8B4" d="M601.828,274.572c9.589-3.699,16.655-8.559,23.04-16.678
		c4.253-5.398,8.075-12.752,9.588-19.541c0.58-2.597,0.851-5.2,0.851-7.773c-0.011-13.336-7.332-25.852-18.412-33.29
		c-6.997-4.683-15.639-7.946-24.189-7.952c-6.681,0-13.316,2.017-18.88,6.939c-6.439,5.698-9.689,13.566-9.689,21.542
		c0,4.736,1.145,9.512,3.414,13.93c3.98,7.659,13.364,11.887,22.438,11.895c7.889,0.014,15.749-3.271,19.45-10.734
		c0.919-1.837,1.334-3.754,1.334-5.651c-0.109-9.103-9.052-17.481-17.109-17.586c-3.623-0.036-7.105,1.908-9.05,6.158
		c-0.607,1.316-0.873,2.752-0.873,4.174c0.01,2.392,0.776,4.754,2.387,6.302c1.406,1.292,3.676,2.477,5.972,2.507
		c1.548,0.04,3.26-0.734,3.997-2.522c0.239-0.534-0.011-1.164-0.545-1.399c-0.538-0.236-1.167,0.003-1.405,0.545
		c-0.453,0.958-1.033,1.208-2.047,1.244c-1.469,0.03-3.544-0.992-4.508-1.923c-1.039-0.967-1.725-2.826-1.719-4.754
		c0-1.143,0.226-2.294,0.68-3.274c1.719-3.608,4.204-4.895,7.111-4.925c3.271-0.018,7.088,1.874,10.015,4.802
		c2.948,2.929,4.966,6.84,4.962,10.651c0,1.583-0.34,3.162-1.105,4.699c-3.243,6.547-10.19,9.545-17.546,9.551
		c-8.443,0.02-17.13-4.047-20.538-10.735c-2.122-4.115-3.176-8.563-3.176-12.955c0.006-7.412,3-14.658,8.972-19.942
		c5.142-4.538,11.197-6.401,17.46-6.401c8.001-0.007,16.302,3.089,22.999,7.584c10.542,7.066,17.477,18.98,17.471,31.52
		c-0.011,2.42-0.266,4.87-0.806,7.316c-1.398,6.361-5.107,13.545-9.175,18.68c-6.187,7.832-12.798,12.379-22.138,16.017
		c-14.233,5.519-30.553,7.61-46.987,7.61c-15.169,0-30.429-1.775-44.246-4.223c-26.494-4.693-50.923-12.236-74.786-24.281
		c-10.644-5.373-21.151-11.037-31.018-17.661c-10.105-6.779-19.247-15.053-28.404-23.224c-2.513-2.229-5.297-3.98-7.985-5.733
		c-1.264-0.817-2.551-1.783-4.009-2.587c-1.281-0.648-2.597-1.099-2.919-1.723h-0.013c-0.312-0.496-0.964-0.644-1.463-0.327
		c-0.504,0.317-0.651,0.975-0.328,1.467c1.066,1.589,2.824,1.927,3.701,2.463c1.278,0.684,2.525,1.622,3.87,2.499
		c2.71,1.761,5.398,3.458,7.728,5.534c9.152,8.155,18.361,16.507,28.631,23.397c9.981,6.713,20.566,12.407,31.245,17.799
		c24.065,12.15,48.716,19.758,75.38,24.48c13.911,2.465,29.288,4.25,44.616,4.25C570.69,282.334,587.253,280.232,601.828,274.572"/>
	<path clip-path="url(#SVGID_8_)" fill="#E3D8B4" d="M285.219,236.912c1.021-1.338,1.476-2.909,1.476-4.467
		c-0.023-4.215-3.165-8.51-7.543-9.016c-0.488-0.048-0.958-0.081-1.416-0.081c-2.746-0.045-5.122,1.163-6.36,4.219
		c-0.34,0.825-0.504,1.645-0.497,2.414c0.044,3.676,3.39,6.183,6.214,6.212c1.831,0.065,3.574-1.315,3.597-3.796
		c0.016-0.387-0.291-0.721-0.683-0.734c-0.39-0.013-0.712,0.289-0.729,0.687c-0.137,1.895-0.955,2.357-2.185,2.421
		c-2.024-0.005-4.786-2.086-4.797-4.79c0-0.589,0.119-1.208,0.392-1.866c1.138-2.587,2.636-3.3,5.048-3.341
		c0.395,0,0.815,0.026,1.263,0.072c3.476,0.325,6.295,4.068,6.272,7.599c0,1.291-0.368,2.534-1.185,3.603
		c-1.913,2.54-6.084,4.083-9.659,4.075c-0.826,0-1.608-0.08-2.317-0.234c-7.357-1.57-10.311-9.275-10.423-16.328
		c0.017-0.195,0.005-0.363,0.005-0.486c0-3.684,0.657-7.418,1.991-10.842c1.004-2.643,2.307-6.739,4.168-8.356h-0.007
		c0.302-0.263,0.318-0.71,0.063-1.006c-0.26-0.286-0.709-0.319-1.004-0.055c-2.341,2.127-3.528,6.335-4.547,8.897
		c-1.395,3.603-2.081,7.506-2.081,11.362c0,0.164,0,0.3-0.007,0.455c0.086,7.387,3.204,15.904,11.53,17.75
		c0.833,0.178,1.717,0.26,2.629,0.26C278.375,241.523,282.86,239.953,285.219,236.912"/>
	<path clip-path="url(#SVGID_8_)" fill="#E3D8B4" d="M344.205,214.132c0.442-1.329,0.617-2.703,0.617-4.066
		c0-3.573-1.23-7.132-2.834-10.033c-2.626-4.637-8.778-9.783-14.704-9.864c-0.107,0-0.217,0.005-0.312,0.005l-0.005,0.001
		c-0.584,0.033-1.033,0.527-1.01,1.114c0.028,0.593,0.527,1.048,1.11,1.021c0.081-0.003,0.149-0.003,0.217-0.003
		c4.616-0.087,10.672,4.731,12.833,8.765c1.479,2.647,2.58,5.925,2.58,8.994c0,1.179-0.153,2.322-0.516,3.405
		c-1.594,4.892-5.507,7.06-9.753,7.091c-3.59,0-7.338-1.667-9.738-4.75c-1.394-1.805-2.001-3.586-2.001-5.263
		c0-2.297,1.145-4.527,3.436-6.436c1.564-1.308,3.845-2.302,5.892-2.287c0.187,0,0.369,0.008,0.55,0.023
		c2.847,0.157,5.53,3.783,5.62,6.737v0.192c0,2.491-1.957,4.825-4.258,4.833c-0.16-0.008-0.318-0.011-0.46-0.03
		c-1.435-0.138-2.177-1.573-2.205-3.116c0.022-1.36,0.599-1.928,0.935-1.928c0.079,0,0.187,0.023,0.312,0.068
		c0.549,0.206,1.163-0.077,1.367-0.632c0.215-0.548-0.073-1.168-0.625-1.373c-0.357-0.132-0.714-0.19-1.054-0.19
		c-2.246,0.086-3.062,2.264-3.062,4.055c-0.034,2.143,1.167,4.855,4.093,5.24c0.239,0.023,0.471,0.035,0.699,0.035
		c3.765-0.046,6.383-3.461,6.395-6.962c0-0.131-0.012-0.243-0.012-0.315c-0.237-3.889-3.197-8.261-7.536-8.734
		c-0.259-0.033-0.52-0.04-0.759-0.04c-2.71,0.01-5.341,1.201-7.259,2.785c-2.649,2.194-4.207,5.035-4.207,8.075
		c0,2.211,0.822,4.465,2.456,6.57c2.846,3.637,7.179,5.571,11.421,5.571h0.084C337.469,222.69,342.38,219.892,344.205,214.132"/>
	<path clip-path="url(#SVGID_8_)" fill="#E3D8B4" d="M325.503,192.15c-0.126,0.045-0.25,0.065-0.375,0.065
		c-0.436,0-0.838-0.259-1.003-0.691c-0.454-1.406-3.413-5.215-3.464-8.623c-0.046-1.39,0.651-2.897,2.176-3.67
		c0.544-0.297,1.112-0.444,1.651-0.444c2.853,0.208,3.963,3.108,4.084,5.111c0,0.09-0.013,0.106,0,0.106
		c-0.058,2.57-2.026,4.994-2.739,6.114c0.113,0.238,0.214,0.455,0.294,0.652C326.332,191.324,326.061,191.939,325.503,192.15
		 M326.439,184.004h0.004l-0.004-0.049c-0.012-0.599-0.271-1.484-0.681-2.104c-0.415-0.65-0.89-0.94-1.27-0.927
		c-0.164,0-0.363,0.038-0.647,0.188c-0.839,0.496-1.009,0.938-1.053,1.789c-0.036,1.396,0.963,3.354,1.91,5.102
		C325.515,186.741,326.479,185.101,326.439,184.004"/>
	<path clip-path="url(#SVGID_8_)" fill="#E3D8B4" d="M310.641,192.205c-0.124,0.039-0.249,0.064-0.38,0.064
		c-0.391,0-0.77-0.223-0.952-0.594c-0.131-0.148-0.211-0.319-0.255-0.496c-0.211-0.323-0.546-0.726-0.868-1.264
		c-0.482-0.841-0.869-1.677-1.287-2.444c-0.573-1.104-0.913-2.407-0.913-3.732c0-1.035,0.204-2.098,0.72-3.052
		c0.561-1.017,1.611-1.667,2.733-1.659c0.374,0,0.755,0.068,1.117,0.203c1.995,0.72,2.814,2.547,3.148,4.144
		c0.112,0.458,0.152,0.93,0.152,1.397c-0.011,2.364-1.11,4.707-2.523,6.397C311.349,191.613,311.083,192.037,310.641,192.205
		 M309.818,181.23c-0.135-0.052-0.26-0.071-0.38-0.074c-0.335,0.01-0.618,0.161-0.861,0.558c-0.302,0.551-0.46,1.267-0.46,2.024
		c0,0.952,0.261,1.965,0.675,2.732c0.449,0.835,0.822,1.651,1.241,2.386c0.047,0.088,0.109,0.177,0.177,0.277
		c0.879-1.298,1.53-2.965,1.519-4.362c0-0.335-0.034-0.645-0.097-0.913C311.297,182.456,310.839,181.607,309.818,181.23"/>
	<path clip-path="url(#SVGID_8_)" fill="#E3D8B4" d="M300.655,192.946c-0.125,0.045-0.256,0.068-0.386,0.068
		c-0.396,0-0.776-0.227-0.959-0.597c-0.125-0.142-0.204-0.306-0.243-0.48c-0.216-0.329-0.551-0.733-0.886-1.28
		c-0.481-0.84-0.856-1.678-1.269-2.442c-0.59-1.097-0.918-2.403-0.918-3.721c0-1.049,0.204-2.11,0.72-3.058
		c0.554-1.028,1.61-1.675,2.733-1.667c0.38,0,0.754,0.068,1.11,0.197c2.002,0.728,2.814,2.545,3.16,4.151
		c0.108,0.457,0.146,0.931,0.146,1.396c-0.015,2.371-1.116,4.714-2.522,6.404C301.352,192.357,301.086,192.771,300.655,192.946
		 M299.827,181.969c-0.153-0.048-0.266-0.07-0.38-0.07c-0.341,0.009-0.624,0.157-0.862,0.567c-0.306,0.553-0.465,1.269-0.465,2.028
		c0,0.948,0.261,1.954,0.67,2.717c0.452,0.835,0.826,1.658,1.247,2.393c0.045,0.087,0.102,0.175,0.169,0.279
		c0.886-1.298,1.548-2.974,1.53-4.37c0-0.336-0.038-0.636-0.1-0.907C301.301,183.201,300.852,182.351,299.827,181.969"/>
	<path clip-path="url(#SVGID_8_)" fill="#E3D8B4" d="M369.354,192.25c6.217-4.074,10.226-11.093,10.243-18.001
		c0.016-5.259-2.423-10.477-7.968-13.889c-2.4-1.499-5.206-2.284-7.985-2.284c-5.125-0.034-10.279,2.758-12.276,8.698
		c-0.375,1.129-0.55,2.255-0.55,3.344c0.051,6.52,6.192,11.355,12.322,11.376c0.568,0,1.134-0.035,1.695-0.122
		c3.58-0.506,6.856-2.934,6.839-6.966c0-0.15,0-0.35-0.016-0.522c-0.25-2.79-2.337-5.71-5.389-5.824
		c-1.139-0.012-2.302,0.509-3.266,1.516c-0.407,0.427-0.396,1.1,0.029,1.51c0.426,0.408,1.106,0.395,1.509-0.027
		c0.668-0.681,1.218-0.858,1.728-0.873c1.361-0.088,3.194,2.005,3.268,3.898c0.004,0.065,0.004,0.172,0.004,0.322
		c-0.004,2.722-2.035,4.345-5.035,4.857c-0.441,0.065-0.901,0.107-1.366,0.094c-5.059-0.003-10.184-4.202-10.201-9.239
		c0.005-0.858,0.142-1.747,0.448-2.664c1.723-5.02,5.858-7.218,10.257-7.242c2.377,0,4.81,0.681,6.869,1.96
		c4.939,3.077,6.935,7.45,6.957,12.077c0.011,6.065-3.652,12.548-9.277,16.21c-3.484,2.288-9.765,4.506-14.976,4.489
		c-2.025,0-3.884-0.328-5.348-1.045c-0.527-0.254-1.168-0.032-1.417,0.497c-0.262,0.532-0.04,1.167,0.487,1.423
		c1.865,0.903,4.026,1.252,6.278,1.263C358.995,197.063,365.454,194.775,369.354,192.25"/>
	<path clip-path="url(#SVGID_8_)" fill="#E3D8B4" d="M362.034,377.251h-0.039c-0.38,0-0.692-0.29-0.727-0.675
		c-0.01-0.385,0.285-0.721,0.675-0.75c1.815-0.111,3.624-0.471,5.398-1.037c0.375-0.122,0.783,0.092,0.902,0.459
		c0.121,0.375-0.09,0.777-0.469,0.896C365.902,376.734,363.974,377.126,362.034,377.251 M357.034,376.234
		c-0.08,0.324-0.369,0.545-0.694,0.545c-0.05,0-0.113-0.012-0.17-0.021c-0.43-0.104-0.867-0.221-1.293-0.365
		c-1.451-0.469-2.835-1.145-4.122-1.973c-0.328-0.209-0.424-0.652-0.215-0.98c0.215-0.334,0.652-0.43,0.988-0.209
		c1.195,0.766,2.46,1.383,3.78,1.809c0.398,0.131,0.8,0.238,1.197,0.34C356.896,375.465,357.127,375.855,357.034,376.234
		 M373.114,373.82c-0.114,0.057-0.233,0.09-0.346,0.09c-0.25,0-0.488-0.143-0.625-0.367c-0.186-0.346-0.067-0.779,0.278-0.971
		c1.629-0.924,3.164-1.99,4.549-3.158c0.301-0.268,0.754-0.229,0.997,0.074c0.257,0.299,0.228,0.748-0.073,1.004h-0.005
		C376.432,371.727,374.828,372.85,373.114,373.82 M347.336,370.629c-0.131,0.117-0.301,0.174-0.46,0.174
		c-0.2,0-0.398-0.084-0.539-0.244c-1.293-1.479-2.381-3.129-3.239-4.887c-0.164-0.354-0.021-0.777,0.329-0.947
		c0.359-0.176,0.778-0.029,0.947,0.328c0.805,1.639,1.833,3.186,3.029,4.57C347.666,369.93,347.637,370.371,347.336,370.629
		 M382.21,366.822c-0.13,0.102-0.291,0.152-0.443,0.152c-0.21,0-0.414-0.09-0.556-0.265c-0.243-0.308-0.193-0.755,0.108-0.993
		c1.492-1.186,2.882-2.354,3.975-3.8c0.233-0.317,0.68-0.38,0.993-0.142c0.317,0.232,0.375,0.686,0.13,0.992h0.012
		C385.2,364.389,383.711,365.626,382.21,366.822 M364.426,366.215c-1.06,0.37-2.165,0.568-3.312,0.568
		c-0.896,0-1.814-0.125-2.728-0.41c-0.367-0.111-0.572-0.516-0.471-0.889c0.125-0.375,0.517-0.586,0.892-0.471
		c0.781,0.244,1.548,0.352,2.307,0.352c0.965,0,1.922-0.182,2.836-0.5c0.38-0.131,0.782,0.062,0.907,0.443
		C364.982,365.676,364.794,366.078,364.426,366.215 M354.423,363.074c-0.124,0.084-0.26,0.131-0.397,0.131
		c-0.226,0-0.447-0.115-0.59-0.312c-0.907-1.338-1.292-2.842-1.292-4.287c0-0.584,0.062-1.152,0.176-1.701
		c0.08-0.393,0.453-0.641,0.845-0.555c0.379,0.084,0.635,0.457,0.543,0.838c-0.09,0.465-0.14,0.938-0.14,1.418
		c0,1.197,0.316,2.398,1.049,3.482C354.837,362.41,354.759,362.854,354.423,363.074 M369.429,362.971
		c-0.143,0.143-0.323,0.205-0.506,0.205c-0.18,0-0.362-0.062-0.504-0.205c-0.272-0.275-0.272-0.73,0-1.008
		c1.294-1.277,2.36-2.824,3.096-4.441c0.159-0.352,0.591-0.51,0.942-0.346c0.357,0.17,0.511,0.584,0.352,0.943h-0.006
		C372.001,359.893,370.84,361.566,369.429,362.971 M342.107,360.67c-0.04,0.004-0.08,0.004-0.119,0.004
		c-0.34,0-0.641-0.236-0.704-0.588c-0.17-0.992-0.255-1.984-0.255-2.982v-0.33c0.016-0.906,0.101-1.758,0.244-2.592
		c0.074-0.385,0.443-0.646,0.834-0.578c0.385,0.068,0.641,0.438,0.566,0.828c-0.13,0.766-0.209,1.543-0.226,2.324
		c0.006,0.102,0,0.234,0,0.348c0,0.908,0.084,1.83,0.243,2.744C342.753,360.234,342.493,360.602,342.107,360.67 M389.156,357.629
		c-0.124,0.252-0.379,0.402-0.653,0.402c-0.101,0-0.204-0.02-0.299-0.061c-0.352-0.178-0.499-0.595-0.341-0.947
		c0.816-1.729,1.558-3.402,2.205-5.178c0.12-0.363,0.54-0.554,0.902-0.426c0.369,0.131,0.568,0.54,0.432,0.908
		C390.738,354.164,389.966,355.889,389.156,357.629 M361.75,354.273c-0.129,0.129-0.311,0.197-0.482,0.197
		c-0.191,0-0.379-0.078-0.521-0.227c-1.015-1.077-1.979-1.451-2.841-1.457c-0.488,0-0.97,0.125-1.423,0.357
		c-0.352,0.182-0.783,0.045-0.958-0.307c-0.177-0.346-0.047-0.783,0.301-0.959h0.01c0.629-0.322,1.338-0.516,2.07-0.516
		c1.316-0.004,2.677,0.613,3.879,1.906C362.057,353.559,362.041,354.001,361.75,354.273 M373.34,353.02h-0.022
		c-0.375,0-0.703-0.289-0.721-0.674c-0.079-1.764-0.618-3.511-1.496-5.111c-0.183-0.346-0.062-0.774,0.29-0.957
		c0.345-0.192,0.774-0.067,0.963,0.277c0.964,1.764,1.571,3.715,1.668,5.723C374.04,352.662,373.738,353.002,373.34,353.02
		 M344.517,349.33c-0.142,0.23-0.38,0.355-0.624,0.355c-0.123,0-0.237-0.023-0.351-0.084c-0.345-0.199-0.464-0.625-0.272-0.965
		c0.958-1.725,2.2-3.283,3.63-4.633c0.294-0.277,0.742-0.25,1.008,0.033c0.266,0.283,0.257,0.73-0.034,0.998
		C346.542,346.295,345.396,347.74,344.517,349.33 M392.916,346.742c-0.068,0.343-0.362,0.572-0.698,0.572
		c-0.044,0-0.091-0.006-0.14-0.016c-0.386-0.074-0.635-0.443-0.562-0.836c0.397-2,0.608-3.746,0.608-5.459v-0.047
		c0-0.391,0.315-0.715,0.709-0.715c0.39,0,0.712,0.324,0.712,0.715v0.047C393.544,342.842,393.318,344.678,392.916,346.742
		 M368.651,343.006c-0.148,0.17-0.346,0.266-0.55,0.266c-0.165,0-0.318-0.057-0.454-0.164c-1.407-1.145-3.026-2.02-4.74-2.506
		c-0.368-0.104-0.595-0.506-0.488-0.875c0.108-0.379,0.499-0.6,0.878-0.492c1.916,0.539,3.709,1.508,5.25,2.773
		C368.855,342.258,368.9,342.705,368.651,343.006 M352.359,341.945c-0.097,0.045-0.204,0.068-0.306,0.068
		c-0.267,0-0.516-0.148-0.64-0.396c-0.171-0.359-0.029-0.782,0.329-0.947c1.757-0.863,3.662-1.463,5.619-1.742
		c0.396-0.057,0.76,0.217,0.81,0.602c0.051,0.393-0.215,0.748-0.605,0.806C355.75,340.596,353.999,341.145,352.359,341.945
		 M392.27,336.025c-0.057,0.017-0.108,0.021-0.169,0.021c-0.323,0-0.613-0.215-0.698-0.545c-0.091-0.367-0.194-0.736-0.301-1.121
		c-0.426-1.508-0.72-3.005-0.977-4.469c-0.066-0.385,0.195-0.754,0.586-0.822c0.385-0.068,0.755,0.193,0.823,0.578
		c0.244,1.445,0.532,2.887,0.94,4.32c0.113,0.404,0.216,0.789,0.312,1.17C392.876,335.543,392.649,335.934,392.27,336.025
		 M389.99,324.887c-0.051,0.006-0.103,0.018-0.155,0.018c-0.321,0-0.623-0.227-0.697-0.561c-0.384-1.799-0.905-3.539-1.734-5.229
		c-0.165-0.346-0.023-0.777,0.328-0.947c0.357-0.176,0.783-0.035,0.954,0.33c0.896,1.82,1.438,3.68,1.842,5.547
		C390.614,324.422,390.371,324.797,389.99,324.887 M385.375,314.619c-0.125,0.09-0.267,0.123-0.403,0.123
		c-0.227,0-0.448-0.107-0.591-0.301c-1.093-1.58-2.17-3.123-3.271-4.621c-0.238-0.318-0.171-0.764,0.141-0.992
		c0.319-0.238,0.767-0.17,0.995,0.148c1.128,1.52,2.204,3.074,3.304,4.649C385.776,313.949,385.697,314.396,385.375,314.619
		 M378.591,305.494c-0.135,0.119-0.305,0.176-0.47,0.176c-0.199,0-0.39-0.086-0.534-0.238c-0.884-1.002-1.807-1.979-2.806-2.92
		c-0.38-0.363-0.754-0.715-1.147-1.066c-0.294-0.256-0.31-0.709-0.044-1.004c0.266-0.285,0.708-0.311,1.003-0.045
		c0.392,0.357,0.789,0.709,1.163,1.082c1.033,0.982,1.992,1.986,2.892,3.012C378.916,304.779,378.887,305.232,378.591,305.494
		 M370.318,297.695c-0.141,0.184-0.346,0.279-0.555,0.279c-0.159,0-0.313-0.057-0.443-0.158c-1.487-1.18-3.01-2.326-4.514-3.414
		c-0.316-0.234-0.391-0.67-0.152-0.992c0.22-0.312,0.669-0.387,0.98-0.154h0.006c1.521,1.102,3.051,2.258,4.565,3.443
		C370.513,296.941,370.563,297.391,370.318,297.695 M361.138,290.994c-0.137,0.211-0.368,0.334-0.606,0.334
		c-0.131,0-0.262-0.039-0.373-0.113c-1.596-0.986-3.25-1.91-4.919-2.721c-0.351-0.172-0.497-0.596-0.323-0.959
		c0.175-0.346,0.602-0.492,0.953-0.318c1.713,0.84,3.404,1.781,5.036,2.791C361.24,290.219,361.335,290.654,361.138,290.994
		 M350.937,286.021c-0.092,0.307-0.368,0.51-0.675,0.51c-0.068,0-0.136-0.012-0.206-0.035c-1.79-0.52-3.649-1.014-5.482-1.875
		c-0.351-0.17-0.504-0.59-0.333-0.953c0.165-0.348,0.588-0.498,0.939-0.334c1.686,0.793,3.461,1.27,5.269,1.803
		C350.833,285.251,351.05,285.641,350.937,286.021"/>
	<path clip-path="url(#SVGID_8_)" fill="#E3D8B4" d="M434.396,236.508c28.387-0.011,49.074-13.811,49.137-13.844h-0.006
		c0.334-0.219,0.425-0.664,0.203-0.987c-0.215-0.328-0.651-0.421-0.986-0.205c-0.023-0.02-5.144,3.392-13.744,6.798
		c-8.587,3.408-20.654,6.813-34.604,6.813c-16.155,0-34.801-4.55-53.514-18.982c-0.299-0.243-0.742-0.182-0.992,0.133
		c-0.237,0.31-0.176,0.753,0.131,0.997c18.938,14.617,37.931,19.277,54.347,19.277H434.396z"/>
	<path clip-path="url(#SVGID_8_)" fill="#E3D8B4" d="M498.555,248.717c-0.618,2.365-2.251,3.812-4.32,3.812h-0.086
		c-0.805,0-1.656-0.189-2.546-0.541c-7.984-3.238-12.216-14.061-12.237-22.855c0-1.802,0.18-3.522,0.55-5.085
		c-0.256-0.162-0.504-0.319-0.755-0.477c-0.333-0.206-0.43-0.646-0.227-0.978c0.205-0.335,0.652-0.438,0.981-0.228
		c5.757,3.614,12.102,8.146,15.486,14.285c1.429,2.609,3.414,6.4,3.431,9.961C498.832,247.32,498.753,248.027,498.555,248.717
		 M494.154,237.338c-2.779-5.066-7.883-9.128-12.964-12.467c-0.267,1.307-0.407,2.75-0.407,4.263
		c-0.023,8.389,4.241,18.771,11.341,21.531c0.765,0.297,1.444,0.443,2.024,0.443c1.462-0.033,2.434-0.754,3.04-2.783
		c0.158-0.539,0.221-1.109,0.221-1.713C497.426,243.594,495.577,239.889,494.154,237.338"/>
	<path clip-path="url(#SVGID_8_)" fill="#E3D8B4" d="M396.982,317.09h-0.029c-1.473,0-2.732-0.486-3.555-1.451
		c-0.833-0.953-1.214-2.279-1.214-3.834h0.011l-0.011-0.023c0.136-10.443,12.562-19.908,21.946-21.15
		c0.086-0.004,0.165-0.004,0.244,0.013c0.012,0,0.022,0.005,0.027,0.005c0.007,0.006,0.011,0.006,0.024,0.006
		c0.016,0.006,0.028,0.01,0.045,0.018c0.006,0.006,0.012,0.006,0.016,0.006c0.013,0.004,0.029,0.01,0.04,0.016
		c0.006,0.006,0.018,0.012,0.022,0.012c0.007,0,0.011,0.012,0.011,0.012c0.2,0.102,0.341,0.302,0.37,0.533
		c0.012,0.092,0.005,0.182-0.018,0.26c-1.235,6.635-2.619,12.822-7.066,18.188c-2.295,2.721-5.834,6.877-10.064,7.359
		C397.51,317.078,397.243,317.09,396.982,317.09 M406.758,308.789c3.981-4.803,5.394-10.359,6.578-16.594
		c-8.596,1.573-19.75,10.617-19.734,19.52c0.007,0.023,0.007,0.057,0.007,0.09c0.09,2.678,1.03,3.793,3.374,3.867
		c0.21,0,0.43-0.004,0.656-0.037C400.979,315.35,404.529,311.51,406.758,308.789"/>
	<path clip-path="url(#SVGID_8_)" fill="#E3D8B4" d="M414.487,291.227c-0.091,0.041-0.181,0.057-0.278,0.057
		c-0.249,0-0.492-0.131-0.617-0.357c-0.006-0.006-0.006-0.012-0.006-0.012c-0.006-0.004-0.013-0.016-0.013-0.021
		c-0.004-0.012-0.017-0.029-0.017-0.041h-0.006c-0.005-0.016-0.01-0.033-0.017-0.051c-1.711-4.031-3.227-7.916-3.227-12.299
		c0-0.658,0.033-1.311,0.097-1.977c0.312-2.652,0.765-6.725,3.279-8.855c0.843-0.69,1.739-1.09,2.646-1.09
		c1.315,0,2.438,0.822,3.266,2.096c1.306,1.971,1.85,4.357,1.85,6.842c-0.017,5.818-2.927,12.209-6.721,15.539
		C414.663,291.129,414.584,291.188,414.487,291.227 M418.404,269.459c-0.684-1.047-1.395-1.449-2.074-1.449
		c-0.488,0-1.077,0.205-1.746,0.76c-1.879,1.48-2.519,5.303-2.761,7.902c-0.069,0.611-0.098,1.223-0.098,1.83
		c0,3.742,1.208,7.174,2.745,10.854c3.102-3.141,5.568-8.857,5.551-13.838C420.021,273.25,419.521,271.135,418.404,269.459"/>
	<path clip-path="url(#SVGID_8_)" fill="#E3D8B4" d="M528.648,279.404c-0.084,0.039-0.182,0.057-0.271,0.057
		c-0.283,0-0.546-0.154-0.664-0.438c-0.006-0.018-0.018-0.039-0.023-0.062c-1.707-4.027-3.22-7.906-3.22-12.283
		c0-0.65,0.033-1.311,0.102-1.975c0.306-2.648,0.766-6.723,3.272-8.848c0.845-0.695,1.746-1.088,2.647-1.088
		c1.315,0,2.443,0.814,3.272,2.086c1.304,1.967,1.842,4.357,1.842,6.84c-0.016,5.848-2.954,12.277-6.764,15.596
		c-0.006,0-0.018,0.008-0.018,0.018c-0.012,0-0.017,0.008-0.023,0.012c-0.006,0.005-0.015,0.012-0.021,0.012
		c-0.018,0.012-0.029,0.016-0.046,0.035h-0.005C528.705,279.381,528.676,279.393,528.648,279.404 M532.572,257.637
		c-0.691-1.051-1.389-1.447-2.081-1.455c-0.481,0-1.065,0.217-1.746,0.768c-1.871,1.482-2.512,5.299-2.763,7.9
		c-0.062,0.611-0.095,1.227-0.095,1.828c0,3.742,1.214,7.18,2.749,10.85c3.097-3.141,5.563-8.852,5.547-13.834
		C534.194,261.414,533.684,259.311,532.572,257.637"/>
	<path clip-path="url(#SVGID_8_)" fill="#E3D8B4" d="M613.646,196.053c-0.086,0.033-0.177,0.05-0.272,0.05h-0.006
		c-0.396-0.004-0.708-0.333-0.698-0.726c0-0.027,0-0.058,0.006-0.086c0.108-5.015,0.386-9.752,3.028-14.264
		c1.378-2.289,3.472-5.812,6.636-6.713c0.469-0.133,0.94-0.204,1.389-0.204c1.968-0.038,3.316,1.489,3.577,3.556
		c0.091,0.523,0.137,1.053,0.137,1.591C627.367,186.599,620.037,194.08,613.646,196.053 M625.912,177.893
		c-0.33-1.719-0.959-2.319-2.184-2.361c-0.295,0-0.635,0.048-1.026,0.156c-2.314,0.572-4.476,3.789-5.769,6.059
		c-2.284,3.894-2.682,8.029-2.817,12.649c5.598-2.133,11.97-9.092,11.909-15.139C626.014,178.792,625.984,178.338,625.912,177.893"
		/>
	<path clip-path="url(#SVGID_8_)" fill="#E3D8B4" d="M623.824,204.126c-0.039,0.004-0.079,0.01-0.119,0.01
		c-0.062,0-0.125-0.006-0.188-0.026c-0.152-0.042-0.283-0.136-0.373-0.255c-0.085-0.112-0.144-0.252-0.147-0.402
		c0-0.065,0-0.124,0.018-0.181c0-0.013,0.004-0.023,0.004-0.036v-0.003c1.367-4.863,2.803-9.416,6.498-13.154
		c1.896-1.877,4.798-4.775,8.087-4.863h0.092c1.189-0.006,2.212,0.333,2.92,1.039c0.703,0.703,1.021,1.705,1.021,2.821
		c-0.005,0.197-0.011,0.413-0.046,0.646C640.773,197.558,630.958,203.756,623.824,204.126 M640.213,189.076
		c-0.091-1.708-0.658-2.355-2.518-2.441l-0.052,0.003c-2.409-0.016-5.296,2.564-7.122,4.444c-3.171,3.208-4.576,7.111-5.852,11.561
		c6.406-0.732,15.033-6.675,15.514-13.08C640.202,189.395,640.213,189.241,640.213,189.076"/>
	<path clip-path="url(#SVGID_8_)" fill="#E3D8B4" d="M652.903,208.472c-2.75,5.105-9.663,7.424-15.747,7.44
		c-2.269,0-4.435-0.326-6.278-1.006c-0.033-0.01-0.062-0.026-0.09-0.035c-0.005-0.009-0.005-0.009-0.011-0.009
		c-0.007-0.001-0.018-0.01-0.029-0.014c-0.006-0.006-0.021-0.019-0.035-0.021c0-0.002-0.004-0.005-0.011-0.005
		c-0.135-0.091-0.231-0.228-0.283-0.377v-0.007c0-0.006-0.005-0.016-0.005-0.026c0,0,0-0.005-0.006-0.005
		c0-0.008,0-0.017-0.006-0.023v-0.016c0-0.003,0-0.012-0.006-0.016v-0.003v-0.017v-0.006c-0.029-0.19,0.018-0.382,0.142-0.541
		c3.136-3.96,6.21-7.605,11.069-9.627c1.85-0.761,4.445-1.784,6.918-1.789c0.827,0,1.657,0.115,2.422,0.436
		c1.616,0.618,2.625,1.86,2.607,3.342C653.555,206.908,653.317,207.688,652.903,208.472 M648.525,203.79h-0.022
		c-2.069,0-4.553,0.933-6.346,1.687c-4.167,1.732-6.975,4.786-9.867,8.394c1.447,0.412,3.12,0.626,4.866,0.626
		c5.749,0.016,12.227-2.338,14.489-6.691c0.345-0.64,0.487-1.201,0.487-1.659c-0.023-0.844-0.432-1.48-1.718-2.026
		C649.859,203.888,649.223,203.79,648.525,203.79"/>
	<path clip-path="url(#SVGID_8_)" fill="#E3D8B4" d="M652.375,232.623c-1.933,1.752-4.654,2.442-7.421,2.451
		c-3.947-0.018-8.075-1.39-10.649-3.537c-0.063-0.053-0.125-0.114-0.171-0.193c-0.209-0.333-0.102-0.763,0.228-0.972l0.006-0.003
		c3.344-2.08,6.6-3.963,10.745-4.172c0.476-0.019,1.004-0.043,1.564-0.043c1.917,0.02,4.202,0.187,5.768,1.555
		c0.765,0.673,1.235,1.506,1.23,2.398C653.675,231.042,653.171,231.9,652.375,232.623 M651.492,228.767
		c-0.972-0.906-2.914-1.191-4.697-1.191h-0.118c-0.526,0-1.036,0.019-1.495,0.045c-3.397,0.159-6.199,1.591-9.188,3.413
		c2.279,1.554,5.743,2.623,8.96,2.61c2.551,0,4.905-0.65,6.464-2.075c0.618-0.561,0.838-1.057,0.838-1.462
		C652.256,229.732,652.069,229.292,651.492,228.767"/>
	<path clip-path="url(#SVGID_8_)" fill="#E3D8B4" d="M648.475,251.393c-0.93,0.334-1.899,0.479-2.887,0.479
		c-5.347-0.049-11.148-4.166-13.377-8.416c-0.052-0.072-0.079-0.152-0.09-0.242c-0.062-0.383,0.191-0.756,0.577-0.822h0.007
		c2.046-0.332,4.043-0.631,6.05-0.631c1.815,0,3.636,0.244,5.478,0.91c1.945,0.736,4.985,1.822,6.183,4.205
		c0.276,0.559,0.424,1.117,0.424,1.664C650.857,249.885,649.853,250.926,648.475,251.393 M643.751,244.012
		c-1.668-0.605-3.312-0.824-4.996-0.824c-1.553,0-3.146,0.189-4.809,0.449c2.24,3.455,7.383,6.852,11.642,6.812
		c0.846,0,1.656-0.128,2.404-0.392c1.083-0.426,1.412-0.885,1.424-1.518c0-0.275-0.073-0.623-0.284-1.041
		C648.413,245.881,645.668,244.676,643.751,244.012"/>
	<path clip-path="url(#SVGID_8_)" fill="#E3D8B4" d="M509.657,276.689L509.657,276.689c-0.152,0-0.301-0.049-0.425-0.143
		c-0.006-0.004-0.011-0.006-0.011-0.014c-0.007,0-0.012,0-0.018-0.008c-0.085-0.072-0.153-0.162-0.204-0.27
		c-1.174-2.775-2.229-5.465-2.234-8.529c0.006-0.453,0.023-0.914,0.068-1.365c0.221-1.822,0.505-4.654,2.313-6.205
		c0.605-0.498,1.275-0.8,1.962-0.8c0.998,0,1.837,0.63,2.423,1.538c0.923,1.389,1.297,3.068,1.297,4.791
		c-0.017,4.049-2.008,8.443-4.655,10.783c-0.062,0.072-0.148,0.125-0.244,0.166C509.845,276.674,509.748,276.689,509.657,276.689
		 M512.346,261.67c-0.453-0.68-0.862-0.885-1.236-0.891c-0.267,0-0.617,0.119-1.055,0.477c-1.18,0.902-1.646,3.479-1.804,5.246
		c-0.046,0.408-0.067,0.824-0.067,1.225c0,2.404,0.754,4.633,1.729,7.018c1.968-2.146,3.51-5.848,3.5-9.059
		C513.412,264.164,513.076,262.77,512.346,261.67"/>
	<path clip-path="url(#SVGID_8_)" fill="#E3D8B4" d="M401.382,216.245c-0.124,0.105-0.288,0.163-0.453,0.163
		c-0.011,0-0.017,0-0.022-0.003h-0.021c-0.02,0-0.043-0.005-0.059-0.007h-0.012c-0.016-0.003-0.022-0.008-0.027-0.008
		c-0.012-0.003-0.022-0.003-0.022-0.003c-0.017-0.004-0.034-0.01-0.045-0.011c-0.007-0.004-0.024-0.006-0.028-0.012
		c-0.013-0.004-0.018-0.004-0.023-0.01c-0.012-0.004-0.023-0.012-0.045-0.014v-0.009c-0.012,0-0.012-0.002-0.018-0.004
		c-0.016-0.002-0.028-0.018-0.052-0.026c0-0.004-0.005-0.008-0.005-0.008c-0.018-0.009-0.035-0.022-0.052-0.035h-0.005
		c-0.022-0.015-0.04-0.037-0.057-0.056c-2.524-2.35-4.865-4.675-5.999-8.152c-0.369-1.18-0.857-2.793-0.863-4.365
		c0-0.769,0.114-1.549,0.46-2.237c0.504-1.057,1.411-1.75,2.443-1.731c0.641,0,1.271,0.232,1.867,0.619
		c3.078,1.996,4.342,6.16,4.359,10.005c0,2.062-0.373,4.058-1.127,5.654V216c-0.013,0.015-0.018,0.028-0.03,0.041
		c-0.011,0.017-0.011,0.032-0.021,0.045h-0.006c-0.006,0.015-0.011,0.031-0.027,0.043c0,0.005,0,0.005-0.007,0.011
		c-0.006,0.005-0.012,0.012-0.018,0.017c-0.017,0.02-0.034,0.042-0.056,0.059c-0.006,0.009-0.012,0.018-0.023,0.02
		C401.388,216.243,401.388,216.243,401.382,216.245 M397.572,201.53c-0.442-0.287-0.817-0.394-1.096-0.394
		c-0.419,0.01-0.764,0.188-1.174,0.94c-0.204,0.433-0.304,0.986-0.304,1.609c-0.012,1.273,0.425,2.785,0.787,3.921
		c0.896,2.773,2.688,4.777,4.871,6.858c0.403-1.199,0.624-2.635,0.624-4.123C401.285,206.789,400.011,203.058,397.572,201.53"/>
	<path clip-path="url(#SVGID_8_)" fill="#E3D8B4" d="M419.115,207.5c-0.04,0.009-0.08,0.011-0.12,0.011
		c-0.062,0-0.13-0.011-0.204-0.029v-0.005c-0.012-0.001-0.023-0.004-0.041-0.01c-3.235-1.191-6.304-2.418-8.703-5.182
		c-1.134-1.362-2.904-3.402-2.942-5.692c0-0.1,0.005-0.166,0.005-0.166c0.033-1.723,1.254-2.906,2.768-2.836
		c0.25,0,0.511,0.016,0.776,0.069c5.37,1.02,9.011,7.841,9.068,12.794c0,0.093,0.005,0.219-0.013,0.371
		c0,0.074-0.016,0.145-0.039,0.216c0,0.006,0,0.01-0.006,0.014c-0.086,0.221-0.271,0.385-0.504,0.435v0.005
		C419.143,207.495,419.126,207.5,419.115,207.5 M410.398,195.064c-0.182-0.038-0.362-0.05-0.521-0.05
		c-0.907,0.067-1.197,0.277-1.35,1.431c0.006,0.048,0,0.126,0,0.148c-0.034,1.477,1.464,3.472,2.592,4.76
		c1.905,2.206,4.342,3.353,7.156,4.42C417.98,201.488,414.454,195.654,410.398,195.064"/>
	<path clip-path="url(#SVGID_8_)" fill="#E3D8B4" d="M287.333,195.116c-0.118,0.087-0.265,0.128-0.407,0.128
		c-0.199,0-0.391-0.082-0.534-0.241c-0.022-0.03-0.045-0.058-0.068-0.091c-2.473-3.514-4.7-6.936-5.182-11.42
		c-0.091-0.833-0.171-1.839-0.171-2.878c0.006-1.795,0.233-3.732,1.35-5.156c0.731-0.934,1.656-1.487,2.66-1.483
		c0.959,0,1.854,0.478,2.626,1.254c2.239,2.218,3.129,5.556,3.141,8.942c-0.012,3.97-1.213,8.054-3.222,10.732
		C287.482,194.983,287.419,195.061,287.333,195.116 M286.603,176.242c-0.611-0.61-1.168-0.845-1.621-0.845
		c-0.466,0.005-0.971,0.235-1.549,0.941c-0.765,0.951-1.048,2.612-1.037,4.276c0,0.958,0.085,1.919,0.158,2.732
		c0.397,3.751,2.161,6.742,4.361,9.934c1.47-2.366,2.41-5.816,2.406-9.109C289.325,181.021,288.462,178.056,286.603,176.242"/>
	<path clip-path="url(#SVGID_8_)" fill="#E3D8B4" d="M293.091,213.852c-0.687,1.019-1.651,1.642-2.711,1.642h-0.019
		c-0.882,0-1.734-0.414-2.511-1.077c-2.67-2.34-3.725-6.165-3.731-9.962c0.006-3.61,0.953-7.236,2.604-9.742
		c0.147-0.225,0.389-0.335,0.629-0.322l0.005,0.003h0.028h0.022c0.013,0.003,0.018,0.003,0.024,0.003
		c0.005,0,0.016,0.004,0.022,0.007c0.018,0,0.023,0.007,0.04,0.007c0.007,0.002,0.011,0.002,0.024,0.012
		c0.005,0,0.01,0.001,0.021,0.003c0.005,0,0.013,0.003,0.023,0.003c0.006,0.007,0.011,0.007,0.023,0.013c0.006,0,0.006,0,0.01,0.004
		c0.036,0.013,0.069,0.029,0.091,0.048l0.007,0.003c0.005,0.006,0.01,0.01,0.028,0.013c0.062,0.051,0.13,0.11,0.177,0.171
		c2.687,3.361,5.132,6.626,5.88,11.074c0.187,1.089,0.39,2.464,0.39,3.866C294.167,211.104,293.951,212.629,293.091,213.852
		 M292.382,205.993c-0.636-3.718-2.58-6.598-4.979-9.648c-1.157,2.16-1.867,5.165-1.861,8.11c-0.006,3.55,1.027,6.982,3.233,8.88
		c0.618,0.529,1.163,0.743,1.586,0.739c0.505,0,1.006-0.251,1.566-1.028c0.591-0.835,0.823-2.084,0.823-3.425
		C292.75,208.363,292.552,207.055,292.382,205.993"/>
	<path clip-path="url(#SVGID_8_)" fill="#E3D8B4" d="M175.414,259.102c-0.047,0.006-0.081,0.006-0.12,0.006
		c-0.34,0-0.64-0.242-0.709-0.592h0.007c-0.007-0.021-0.007-0.039-0.014-0.061c-0.237-1.373-0.442-2.721-0.442-4.082
		c-0.01-1.158,0.143-2.33,0.556-3.516c0.483-1.291,1.147-3.336,2.836-4.221c0.404-0.199,0.811-0.314,1.214-0.314
		c1.009-0.012,1.781,0.75,2.092,1.695c0.238,0.643,0.346,1.342,0.346,2.039c-0.04,3.586-2.683,7.375-5.489,8.932
		C175.611,259.045,175.516,259.078,175.414,259.102 M179.496,248.508c-0.261-0.652-0.465-0.75-0.754-0.76
		c-0.137,0-0.329,0.037-0.59,0.166c-0.914,0.398-1.701,2.148-2.115,3.402c-0.352,1.023-0.482,2.025-0.482,3.057
		c0,0.916,0.107,1.861,0.26,2.852c2.047-1.527,3.982-4.646,3.947-7.168C179.762,249.5,179.678,248.982,179.496,248.508"/>
	<path clip-path="url(#SVGID_8_)" fill="#E3D8B4" d="M172.538,271.066h-0.017c-0.947,0-1.672-0.693-2.048-1.547
		c-0.351-0.789-0.488-1.623-0.481-2.463c0.034-3.49,2.369-7.23,5.001-8.863c0.012-0.004,0.029-0.012,0.04-0.021
		c0,0,0.011-0.004,0.022-0.008c0,0,0-0.004,0.006-0.008c0.028-0.012,0.057-0.021,0.086-0.031c0-0.004,0.011-0.004,0.017-0.004
		c0.005,0,0.017,0,0.017-0.008c0.004,0,0.011,0,0.017-0.006h0.004c0.013,0,0.023-0.004,0.03-0.004h0.004
		c0.284-0.051,0.579,0.072,0.733,0.334c0.04,0.062,0.068,0.129,0.08,0.201l0.004-0.008c0.386,1.627,0.744,3.221,0.744,4.877
		c0,0.904-0.104,1.834-0.374,2.789c-0.404,1.309-0.947,3.387-2.565,4.377C173.433,270.916,172.985,271.066,172.538,271.066
		 M175.367,263.508c0-1.135-0.186-2.287-0.46-3.508c-1.848,1.564-3.526,4.59-3.504,7.057c0.013,0.684,0.12,1.314,0.368,1.877
		c0.291,0.588,0.523,0.703,0.767,0.703c0.141,0,0.346-0.045,0.611-0.197c0.885-0.461,1.567-2.246,1.906-3.531
		C175.289,265.096,175.367,264.311,175.367,263.508"/>
	<path clip-path="url(#SVGID_8_)" fill="#E3D8B4" d="M481.229,224.746c-0.141,0.18-0.351,0.276-0.565,0.276
		c-0.154,0-0.312-0.048-0.442-0.151c-0.273-0.213-0.533-0.431-0.788-0.652c-0.33,0.033-0.665,0.049-1.004,0.049
		c-4.202-0.02-9.244-2.203-12.146-3.903c-3.062-1.806-6.176-4.184-6.5-8.344c-0.012-0.169-0.004-0.316-0.004-0.442
		c0-1.825,1.14-3.492,3.312-3.492c0.085,0,0.176,0,0.282,0.013c3.816,0.243,7.207,4.021,9.393,6.28
		c2.647,2.815,4.467,5.879,7.128,8.343c0.305-0.058,0.601-0.129,0.866-0.226c0.369-0.136,0.777,0.064,0.902,0.441
		c0.136,0.371-0.062,0.769-0.437,0.904h0.004c-0.004,0-0.018,0.007-0.021,0.007C481.424,224.099,481.44,224.478,481.229,224.746
		 M463.254,209.521c-0.068-0.004-0.118-0.013-0.163-0.013c-1.43,0.067-1.81,0.686-1.89,2.071c0,0.126,0,0.24,0.007,0.347
		c0.244,3.394,2.79,5.43,5.801,7.22c2.614,1.549,7.315,3.548,10.972,3.686c-2.335-2.421-4.024-5.131-6.254-7.477
		C469.605,213.066,466.17,209.605,463.254,209.521"/>
	<path clip-path="url(#SVGID_8_)" fill="#E3D8B4" d="M583.857,192.256c2.444-1.748,4.214-6.639,5.009-9.064
		c0.719-2.262,0.997-4.829,0.997-7.424c0-2.976-0.363-5.992-0.88-8.594c-2.517-12.948-10.768-24.381-24.309-26.885
		c-1.005-0.186-2.054-0.274-3.144-0.274c-6.883,0.021-14.958,3.574-17.924,9.796c-1.14,2.418-1.661,5.003-1.655,7.569
		c0.005,7.195,4.071,14.289,10.332,17.698c2.013,1.089,4.141,1.592,6.197,1.592c6.278-0.012,12.033-4.647,12.04-11.412
		c0-1.255-0.198-2.581-0.63-3.937c-1.39-4.301-6.21-7.797-10.565-7.836c-2.84-0.047-5.522,1.721-6.378,5.601
		c-0.087,0.381-0.12,0.777-0.12,1.209c0.103,3.538,2.359,9.223,6.209,9.462c1.18,0,2.354-0.665,3.357-1.961
		c0.244-0.312,0.199-0.763-0.119-1.003c-0.307-0.245-0.754-0.189-0.992,0.122c-0.875,1.091-1.609,1.421-2.246,1.421
		c-1.037,0.035-2.319-1.09-3.255-2.78c-0.946-1.669-1.543-3.794-1.536-5.261c0-0.347,0.028-0.651,0.09-0.892
		c0.834-3.374,2.699-4.458,4.99-4.497c3.59-0.044,8.127,3.239,9.204,6.845c0.397,1.23,0.573,2.401,0.573,3.507
		c-0.006,5.879-5.013,9.977-10.622,9.991c-1.825,0-3.726-0.446-5.513-1.415c-5.771-3.122-9.6-9.791-9.6-16.454
		c0.006-2.376,0.477-4.749,1.521-6.971c2.54-5.486,10.219-8.992,16.642-8.978c1.01,0,1.976,0.091,2.889,0.254
		c12.821,2.373,20.709,13.187,23.162,25.766c0.513,2.522,0.857,5.457,0.857,8.317c0,2.488-0.272,4.926-0.931,6.998
		c-0.675,2.282-2.697,7.191-4.456,8.316h-0.006c-0.323,0.225-0.408,0.665-0.187,0.989c0.147,0.203,0.367,0.308,0.595,0.308
		C583.592,192.379,583.733,192.342,583.857,192.256"/>
	<path clip-path="url(#SVGID_8_)" fill="#E3D8B4" d="M175.367,199.085c4.911-2.048,8.16-8.894,8.483-13.675
		c0.024-0.43,0.035-0.858,0.035-1.298c0-7.775-3.942-15.945-10.162-20.602c-3.152-2.336-8.091-4.453-12.725-4.46
		c-2.546-0.006-5.029,0.654-6.985,2.351c-3.29,2.88-5.23,8.149-5.241,13.131c0,3.584,1.038,7.075,3.556,9.32
		c2.195,1.941,4.694,2.851,7.066,2.843c4.991-0.006,9.323-4.062,9.333-10.267c0-0.042-0.006-0.08-0.01-0.116
		c-0.04-4.634-3.307-6.855-6.477-6.85c-3.193,0-6.533,2.145-6.555,5.889c0,1.568,0.601,3.332,1.944,5.247
		c0.227,0.316,0.664,0.397,0.987,0.17c0.323-0.225,0.408-0.673,0.176-0.998c-1.225-1.735-1.69-3.223-1.69-4.419
		c0.013-2.763,2.5-4.45,5.138-4.47c2.58,0.058,4.994,1.528,5.064,5.512l0.005,0.035h-0.005c-0.023,5.524-3.708,8.83-7.91,8.845
		c-2.014,0-4.157-0.754-6.126-2.489c-2.09-1.847-3.077-4.924-3.067-8.252c-0.017-4.608,1.888-9.594,4.741-12.054
		c1.639-1.421,3.742-2.009,6.056-2.009c4.196-0.016,8.967,2.009,11.869,4.183c5.829,4.327,9.605,12.16,9.605,19.46
		c0,0.4-0.022,0.804-0.044,1.217c-0.199,4.25-3.522,10.88-7.588,12.434h-0.011c-0.358,0.149-0.528,0.567-0.392,0.931
		c0.114,0.272,0.386,0.446,0.664,0.446C175.198,199.141,175.282,199.122,175.367,199.085"/>
	<path clip-path="url(#SVGID_8_)" fill="#E3D8B4" d="M469.555,247.408c-0.521,0.188-1.021,0.291-1.497,0.291h-0.051
		c-3.073-0.104-4.39-3.381-5.224-6.633c-0.72-2.949-1.002-6.186-1.224-7.878c-0.074-0.035-0.142-0.081-0.199-0.139
		c-0.431-0.42-0.912-0.862-1.354-1.22c-2.45-2.044-11.255-7.09-11.427-12.717c0-1.267,0.517-2.538,1.61-3.629
		c0.992-1.006,2.047-1.525,3.102-1.525c3.272,0.155,5.224,4.158,6.834,8.261c1.354,3.603,2.262,7.446,2.637,9.433
		c0.182-0.148,0.437-0.204,0.669-0.126c3.011,1.149,8.664,7.378,8.817,12.103C472.282,245.232,471.393,246.76,469.555,247.408
		 M462.982,232.88c-0.006-0.009-0.018-0.011-0.021-0.013c0.215,1.726,0.493,4.96,1.207,7.859c0.771,3.229,2.143,5.656,3.839,5.551
		c0.312,0,0.658-0.059,1.048-0.201c1.367-0.547,1.736-1.283,1.775-2.447C470.979,240.043,465.126,233.461,462.982,232.88
		 M458.797,222.72c-1.428-3.987-3.623-7.347-5.382-7.347c-0.038,0-0.078,0-0.124,0.008c-0.573,0-1.247,0.268-2.092,1.106
		c-0.873,0.893-1.181,1.734-1.191,2.625c-0.17,4.127,8.229,9.606,10.877,11.605c0.091,0.07,0.188,0.151,0.283,0.229
		C460.731,228.888,459.915,225.683,458.797,222.72"/>
	<path clip-path="url(#SVGID_8_)" fill="#E3D8B4" d="M324.217,258.041c0.284-0.281,0.284-0.729,0.006-1.008
		c-0.277-0.283-0.732-0.283-1.011-0.006c-3.589,3.549-7.695,5.221-12.066,5.227c-3.352,0-6.873-0.998-10.411-2.979
		c-4.515-2.502-7.907-9.01-7.882-14.875c0.011-4.076,1.548-7.75,5.272-9.819c2.098-1.172,4.498-1.757,6.863-1.757
		c5.589,0.025,10.796,3.173,11.618,9.209c0.074,0.535,0.114,1.064,0.103,1.58c0,4.811-2.988,8.51-6.533,8.523
		c-1.575,0-3.357-0.695-5.217-2.461c-1.117-1.078-1.549-2.324-1.554-3.432c0.011-1.725,1.021-2.924,2.234-2.932
		c0.692,0,1.628,0.377,2.688,1.527c0.267,0.291,0.72,0.314,1.009,0.041c0.288-0.268,0.306-0.713,0.046-1.002
		c-1.237-1.336-2.529-1.982-3.743-1.982c-2.244,0.023-3.651,2.109-3.651,4.348c0,1.488,0.594,3.125,1.991,4.459
		c2.041,1.959,4.183,2.857,6.197,2.857c4.615-0.029,7.955-4.602,7.961-9.947c0-0.586-0.04-1.184-0.131-1.783
		c-0.922-6.86-6.934-10.446-13.018-10.42c-2.599,0-5.225,0.63-7.554,1.925c-4.252,2.355-6.024,6.644-6.01,11.065
		c0.022,6.375,3.514,13.221,8.613,16.113c3.708,2.08,7.468,3.168,11.109,3.168C315.892,263.686,320.411,261.812,324.217,258.041"/>
	<path clip-path="url(#SVGID_8_)" fill="#E3D8B4" d="M264.636,206.229h-0.03c-0.38,0-0.692-0.301-0.714-0.676
		c-0.068-4.528-9.289-15.863-9.374-23.596c-0.022-2.362,0.964-4.553,3.324-5.863c0.941-0.542,1.898-0.797,2.812-0.797
		c5.688,0.225,9.039,8.636,9.464,12.67c0.062,0.656,0.08,1.291,0.08,1.917c0,5.603-2.053,10.08-3.913,15.198
		c-0.131,0.373-0.54,0.567-0.908,0.431c-0.024-0.01-0.044-0.016-0.068-0.025C265.333,205.879,265.025,206.208,264.636,206.229
		 M268.699,188.093c-0.197-3.541-3.883-11.375-7.881-11.378c-0.051,0-0.108,0.003-0.164,0.004c-0.657,0-1.345,0.173-2.11,0.61
		c-1.916,1.114-2.579,2.604-2.602,4.627c-0.068,6.391,7.74,16.397,9.163,22.224c1.849-5.005,3.675-9.207,3.675-14.297
		C268.78,189.292,268.763,188.696,268.699,188.093"/>
	<path clip-path="url(#SVGID_8_)" fill="#E3D8B4" d="M427.043,197.038c0.164-0.357,0.01-0.777-0.346-0.944
		c-0.358-0.169-0.784-0.017-0.953,0.336c-5.819,12.492-17.421,19.564-30.316,19.573c-2.319,0-4.666-0.229-7.043-0.696
		c-4.882-0.927-14.506-4.125-17.131-8.156c-0.221-0.325-0.663-0.413-0.986-0.194c-0.325,0.217-0.409,0.658-0.199,0.981
		c3.301,4.769,12.953,7.717,18.043,8.765c2.462,0.482,4.907,0.722,7.316,0.722C408.846,217.425,421.003,210.008,427.043,197.038"/>
	<path clip-path="url(#SVGID_8_)" fill="#E3D8B4" d="M424.366,196.751c-5.915-5.872,6.242-11.394,7.763-4.28
		C433.109,197.058,427.633,199.998,424.366,196.751"/>
	<path clip-path="url(#SVGID_8_)" fill="#E3D8B4" d="M183.205,286.936c-5.915-5.871,6.243-11.396,7.757-4.287
		C191.943,287.24,186.471,290.184,183.205,286.936"/>
	<path clip-path="url(#SVGID_8_)" fill="#E3D8B4" d="M248.53,279.914c-5.915-5.873,6.244-11.396,7.759-4.283
		C257.268,280.221,251.797,283.156,248.53,279.914"/>
	<path clip-path="url(#SVGID_8_)" fill="#E3D8B4" d="M354.328,324.326c-0.715-7.639,11.136-4.371,8.012,1.549
		C360.326,329.701,354.724,328.551,354.328,324.326"/>
	<path clip-path="url(#SVGID_8_)" fill="#E3D8B4" d="M203.342,156.133c-0.721-7.641,11.137-4.373,8.012,1.551
		C209.34,161.505,203.733,160.353,203.342,156.133"/>
	<path clip-path="url(#SVGID_8_)" fill="#E3D8B4" d="M628.939,275.336c-5.921-5.875,6.243-11.391,7.759-4.281
		C637.671,275.643,632.205,278.58,628.939,275.336"/>
	<path clip-path="url(#SVGID_8_)" fill="#E3D8B4" d="M435.951,173.942c-0.04,6.846-5.568,18.017-5.79,19.975l-2.807-0.44
		c0.107-0.586,0.386-1.457,0.765-2.519l-2.472,0.081c-0.104-3.633-1.356-7.562-1.367-11.896c0-0.357,0.011-0.7,0.011-1.014
		c0.103-1.584,0.613-3.845,1.594-5.927c0.98-2.001,2.535-4.129,5.212-4.19c0.165,0,0.357,0.006,0.584,0.038
		C434.76,168.354,436.093,171.279,435.951,173.942 M431.097,170.849c-0.023,0-0.047-0.003-0.074-0.003
		c-0.755,0-1.779,0.929-2.569,2.593c-0.804,1.639-1.27,3.741-1.309,4.809c-0.018,0.299-0.027,0.605-0.027,0.895
		c-0.013,3.49,1.047,7.096,1.331,10.936c1.696-4.569,4.696-11.776,4.656-16.137c-0.13-2.261-0.455-2.841-1.827-3.07
		C431.227,170.856,431.17,170.849,431.097,170.849"/>
	<path clip-path="url(#SVGID_8_)" fill="#E3D8B4" d="M429.123,193.295c5.802-3.47,9.641-8.069,11.71-14.655
		c0.556-1.802,0.856-3.901,0.856-6.081c0-5.908-2.2-12.589-7.984-14.576c-0.931-0.325-1.854-0.461-2.745-0.461
		c-6.157,0.08-10.319,6.717-10.932,12.115c-0.092,0.852-0.138,1.723-0.138,2.606c0.006,7.075,2.819,14.911,5.88,20.764l-0.009,0.007
		c0.186,0.344,0.616,0.487,0.969,0.294c0.346-0.18,0.477-0.604,0.299-0.953c-2.987-5.716-5.727-13.408-5.721-20.112
		c0-0.841,0.044-1.66,0.131-2.452c0.511-4.911,4.541-10.93,9.521-10.852c0.744,0.002,1.503,0.115,2.28,0.389
		c4.871,1.589,7.037,7.604,7.026,13.231c0,2.054-0.284,4.022-0.8,5.649c-1.986,6.286-5.513,10.517-11.081,13.863
		c-0.335,0.204-0.437,0.636-0.239,0.981c0.138,0.219,0.374,0.343,0.619,0.343C428.885,193.395,429.01,193.361,429.123,193.295"/>
	<path clip-path="url(#SVGID_8_)" fill="#E3D8B4" d="M425.998,194.349c0.364-0.155,0.528-0.577,0.374-0.942
		c-3.289-7.5-8.981-12.651-10.07-21.066c-0.177-1.316-0.267-2.648-0.267-3.971c0.029-7.01,2.581-13.543,9.9-15.888
		c1.595-0.509,3.176-0.741,4.731-0.741c5.435-0.007,10.513,2.927,13.919,7.546c2.122,2.872,3.024,6.368,3.029,9.989
		c0,4.493-1.396,9.162-3.521,12.914c-3.09,5.533-9.334,10.175-15.742,10.802c-0.391,0.038-0.675,0.39-0.635,0.776
		c0.034,0.394,0.385,0.672,0.776,0.633c6.987-0.711,13.508-5.595,16.849-11.51c2.229-3.957,3.69-8.834,3.69-13.615
		c0.007-3.859-0.964-7.671-3.3-10.834c-3.63-4.928-9.113-8.126-15.065-8.126c-1.696,0-3.433,0.261-5.162,0.812
		c-8.092,2.577-10.916,9.946-10.887,17.242c0,1.383,0.096,2.787,0.275,4.157c1.208,9.003,7.102,14.308,10.169,21.451v0.007
		c0.125,0.264,0.387,0.426,0.658,0.426C425.816,194.411,425.908,194.388,425.998,194.349"/>
	<path clip-path="url(#SVGID_8_)" fill="#E3D8B4" d="M497.96,287.615c-0.352,2.75-2.225,7.854-6.074,8.051
		c-0.685,0-1.396-0.197-2.098-0.605c-1.81-1.037-2.536-2.814-2.507-4.668c0.057-5.59,5.636-13.543,5.63-16.844
		c-0.061-0.322,0.104-0.656,0.415-0.799c0.363-0.152,0.782,0.018,0.936,0.375c0.062,0.147,0.068,0.252,0.068,0.342
		c-0.006,0.215-0.023,0.436-0.057,0.662c0.09,0.049,0.176,0.119,0.238,0.207l0.006-0.01c1.904,2.604,3.47,8.594,3.498,12.301
		C498.016,286.957,498.011,287.285,497.96,287.615 M496.598,286.627c0.022-2.959-1.322-8.199-2.744-10.717
		c-1.372,4.35-5.206,10.412-5.155,14.482c0.024,1.555,0.478,2.639,1.803,3.438c0.518,0.301,0.978,0.414,1.385,0.414
		c2.251,0.203,4.492-4.385,4.673-6.799C496.586,287.201,496.598,286.93,496.598,286.627"/>
	<path clip-path="url(#SVGID_8_)" fill="#E3D8B4" d="M430.66,221.597c-0.408,0.114-0.807,0.177-1.191,0.177h-0.057
		c-3.199-0.087-4.91-3.376-6.368-6.626c-1.417-3.289-2.66-6.912-3.821-7.901c-0.284-0.258-0.312-0.71-0.047-1.002
		c0.262-0.294,0.715-0.311,0.999-0.049c0.131,0.126,0.26,0.259,0.38,0.403c0.08-0.017,0.157-0.022,0.244-0.015
		c2.966,0.405,8.091,3.307,10.093,5.571c1.101,1.308,2.308,3.673,2.331,5.872C433.264,219.52,432.485,221.104,430.66,221.597
		 M429.815,213.078c-1.355-1.639-5.644-4.145-8.218-4.877c0.953,1.781,1.758,4.154,2.751,6.377c1.396,3.272,3.125,5.867,5.063,5.781
		c0.261,0,0.545-0.045,0.855-0.133c1.197-0.383,1.485-1.056,1.538-2.199C431.828,216.383,430.711,214.097,429.815,213.078"/>
	<path clip-path="url(#SVGID_8_)" fill="#E3D8B4" d="M473.724,291.123h-0.028c-0.807,0-1.634-0.287-2.405-0.871
		c-1.405-1.043-2.013-2.541-1.991-4.078c0.093-5.773,7.435-13.656,7.65-17.035c0.041-0.391,0.391-0.68,0.778-0.635
		c0.39,0.041,0.679,0.385,0.634,0.775c-0.029,0.23-0.08,0.465-0.141,0.715c0.096,0.057,0.168,0.139,0.226,0.244
		c1.327,2.33,2.104,6.967,2.122,10.588c0,1.117-0.069,2.133-0.268,2.988C479.631,286.436,477.329,290.965,473.724,291.123
		 M479.145,280.826c0.012-2.982-0.646-6.947-1.554-9.117c-1.974,4.41-6.948,10.434-6.868,14.465
		c0.012,1.215,0.386,2.133,1.429,2.938c0.578,0.438,1.09,0.596,1.572,0.596c2.153,0.164,4.745-3.936,5.188-6.215
		C479.07,282.811,479.145,281.875,479.145,280.826"/>
	<path clip-path="url(#SVGID_8_)" fill="#E3D8B4" d="M466.851,278.718c-0.613,2.382-2.683,6.497-6.018,6.663
		c-0.742,0-1.519-0.262-2.238-0.807c-1.289-0.957-1.844-2.33-1.833-3.742c0.091-5.266,6.748-12.41,6.924-15.416
		c0.047-0.395,0.386-0.682,0.777-0.639c0.386,0.039,0.674,0.385,0.635,0.777c-0.028,0.195-0.062,0.398-0.119,0.607
		c0.074,0.057,0.143,0.129,0.187,0.215c1.214,2.137,1.913,6.328,1.93,9.611C467.095,277.01,467.024,277.936,466.851,278.718
		 M465.67,275.988c0.018-2.627-0.555-6.102-1.338-8.074c-1.837,4.002-6.22,9.357-6.146,12.918c0.018,1.084,0.334,1.883,1.259,2.615
		c0.521,0.373,0.969,0.51,1.389,0.51c1.888,0.17,4.236-3.523,4.627-5.562C465.604,277.787,465.67,276.941,465.67,275.988"/>
	<path clip-path="url(#SVGID_8_)" fill="#E3D8B4" d="M453.137,273.182c-0.611,2.385-2.676,6.506-6.005,6.67
		c-0.753,0-1.524-0.266-2.251-0.805c-1.286-0.959-1.842-2.338-1.82-3.746c0.086-5.264,6.743-12.406,6.92-15.422
		c0.045-0.387,0.384-0.67,0.775-0.633c0.387,0.037,0.675,0.389,0.63,0.779c-0.022,0.199-0.062,0.396-0.107,0.609
		c0.074,0.053,0.13,0.123,0.187,0.209c1.214,2.137,1.906,6.326,1.917,9.617C453.382,271.475,453.32,272.404,453.137,273.182
		 M451.971,270.461c0.005-2.627-0.562-6.105-1.344-8.076c-1.845,4-6.226,9.354-6.143,12.916c0.005,1.076,0.335,1.891,1.258,2.605
		c0.523,0.387,0.973,0.521,1.39,0.521c1.884,0.164,4.231-3.527,4.623-5.561C451.902,272.258,451.971,271.414,451.971,270.461"/>
	<path clip-path="url(#SVGID_8_)" fill="#E3D8B4" d="M350.204,302.303c0-0.303-0.011-0.58-0.027-0.846
		c-0.432-5.783-2.835-11.598-6.538-16.037c-1.667-2.008-3.975-4.23-6.398-5.434c-0.35-0.176-0.782-0.027-0.952,0.318
		c-0.176,0.352-0.034,0.783,0.317,0.957c2.122,1.039,4.367,3.16,5.944,5.066c3.499,4.207,5.806,9.775,6.203,15.236
		c0.022,0.248,0.039,0.488,0.039,0.738c0.007,3.43-1.724,7.693-4.406,11.023c-2.687,3.346-6.294,5.721-9.912,5.709
		c-1.271,0-2.551-0.277-3.839-0.906c-3.906-1.895-7.144-7.418-7.121-12.227c0.015-2.809,1.037-5.312,3.533-6.93
		c1.348-0.867,2.896-1.277,4.445-1.277c4.02,0.018,7.757,2.707,7.768,6.602c-0.011,0.568-0.084,1.174-0.261,1.826
		c-0.675,2.508-2.687,4.52-5.103,4.588h-0.089c-1.828-0.006-3.086-2.08-3.086-4.066c0.05-1.502,0.577-2.432,1.808-2.438
		c0.074,0,0.142,0.006,0.188,0.012c0.39,0.057,0.748-0.209,0.799-0.602c0.056-0.396-0.22-0.754-0.607-0.799
		c-0.136-0.023-0.26-0.029-0.38-0.029c-2.239,0.006-3.22,2.02-3.233,3.855c0.013,2.439,1.503,5.434,4.511,5.49h0.14
		c3.209-0.125,5.624-2.672,6.425-5.637c0.21-0.762,0.306-1.496,0.306-2.201c-0.024-4.91-4.592-8.018-9.186-8.023
		c-1.799,0-3.618,0.477-5.223,1.51c-2.949,1.898-4.184,4.973-4.168,8.119c0.016,5.404,3.386,11.229,7.911,13.502
		c1.48,0.727,2.988,1.055,4.462,1.055C342.963,320.34,350.142,310.014,350.204,302.303"/>
	<path clip-path="url(#SVGID_8_)" fill="#E3D8B4" d="M264.759,205.845c-0.085,0.034-0.176,0.049-0.261,0.049
		c-0.284,0-0.549-0.172-0.668-0.446c-0.908-2.316-3.556-4.239-5.355-6.582c-2.085-2.762-4.354-5.35-6.129-8.452
		c-1.882-3.327-3.464-7.967-3.464-12.395c0-3.118,0.799-6.169,2.925-8.455c2.309-2.472,5.382-3.699,8.502-3.696
		c2.438,0,4.898,0.736,7.058,2.196c5.218,3.49,7.338,8.634,7.316,14.662c0,0.364,0,0.752-0.022,1.146
		c-0.171,4.069-1.436,7.582-2.921,11.222c-1.061,2.295-2.887,8.589-6.222,9.435c-0.243,0.045-0.476-0.045-0.635-0.21
		c0.097,0.194,0.189,0.391,0.273,0.591C265.302,205.277,265.129,205.692,264.759,205.845 M266.568,169.24
		c-1.923-1.301-4.11-1.95-6.259-1.95c-2.753,0-5.428,1.064-7.459,3.242c-1.813,1.944-2.546,4.595-2.546,7.487
		c0,4.077,1.498,8.562,3.279,11.693c1.678,2.938,3.901,5.485,6.027,8.299c1.4,1.882,3.749,3.625,5.099,5.989
		c-0.007-0.016-0.013-0.031-0.013-0.049c-0.067-0.384,0.187-0.753,0.569-0.825c1.71-0.052,4.315-6.223,5.164-8.571
		c1.475-3.612,2.655-6.946,2.813-10.754c0.017-0.364,0.023-0.716,0.023-1.075C273.242,176.996,271.376,172.492,266.568,169.24"/>
	<path clip-path="url(#SVGID_8_)" fill="#E3D8B4" d="M178.096,197.948c5.794-2.634,10.717-8.045,13.15-13.822
		c1.122-2.666,1.626-5.675,1.626-8.723c0-4.519-1.082-9.121-2.954-12.866c-2.692-5.451-6.81-9.491-12.248-12.261
		c-0.34-0.174-0.776-0.037-0.952,0.319c-0.183,0.342-0.034,0.774,0.312,0.952c5.193,2.653,9.049,6.437,11.619,11.618
		c1.759,3.529,2.806,7.952,2.795,12.238c0.011,2.886-0.471,5.712-1.502,8.171c-2.291,5.444-7.032,10.64-12.431,13.074h-0.005
		c-0.352,0.167-0.511,0.587-0.352,0.944c0.119,0.26,0.38,0.419,0.647,0.419C177.896,198.011,177.999,197.989,178.096,197.948"/>
	<path clip-path="url(#SVGID_8_)" fill="#E3D8B4" d="M173.059,154.597h-0.068c-0.306,0-0.612-0.035-0.901-0.102l0.148-0.694
		l-0.165,0.694c-2.138-0.467-3.352-2.183-3.318-3.979c0-1.108,0.403-2.239,1.18-3.203c0.799-0.965,1.995-1.37,3.17-1.365
		c2.285,0.013,4.894,1.502,4.934,4.2C177.988,152.864,175.426,154.595,173.059,154.597 M176.614,150.137
		c-0.005-1.563-1.757-2.762-3.509-2.769c-0.867,0.007-1.611,0.287-2.053,0.848c-0.595,0.729-0.879,1.56-0.879,2.3
		c0.022,1.208,0.652,2.208,2.223,2.594c0.215,0.046,0.448,0.069,0.663,0.069C174.789,153.173,176.609,151.813,176.614,150.137"/>
	<path clip-path="url(#SVGID_8_)" fill="#E3D8B4" d="M585.802,191.446c0.093,0,19.36-5.994,19.372-30.457
		c0-1.987-0.125-4.1-0.414-6.334c-0.051-0.392-0.402-0.667-0.787-0.618c-0.393,0.049-0.671,0.406-0.618,0.793
		c0.271,2.18,0.39,4.23,0.39,6.159c0,23.553-18.338,29.068-18.36,29.101c-0.374,0.114-0.584,0.509-0.467,0.892
		c0.093,0.3,0.37,0.494,0.683,0.494C585.667,191.476,585.735,191.464,585.802,191.446"/>
	<path clip-path="url(#SVGID_8_)" fill="#E3D8B4" d="M602.719,155.2h-0.018c-1.181,0-2.394-0.577-3.277-1.773l0.566-0.423
		l-0.572,0.414c-0.766-1.042-1.14-2.104-1.133-3.094c0.051-2.792,2.681-4.544,5.091-4.549c1.85-0.048,3.771,1.19,4.088,3.682
		c0.035,0.229,0.052,0.462,0.052,0.697C607.492,152.901,605.229,155.165,602.719,155.2 M606.058,149.669
		c-0.306-1.865-1.354-2.431-2.682-2.472c-1.78,0.006-3.663,1.392-3.669,3.127c0,0.645,0.228,1.394,0.862,2.259v0.003
		c0.681,0.88,1.407,1.18,2.149,1.189c1.609,0,3.374-1.686,3.374-3.621C606.093,150,606.087,149.838,606.058,149.669"/>
	<path clip-path="url(#SVGID_8_)" fill="#E3D8B4" d="M204.447,282.959c1.265-2.205,0.828-4.656,2.074-6.041
		c1.072-1.262,1.94-1.563,2.875-1.576c1.94-0.068,4.305,1.873,7.163,1.924c1.134,0.012,2.348-0.365,3.51-1.301
		c1.855-1.455,2.257-3.412,2.24-5.188c0-1.223-0.165-2.4-0.165-3.451c0.04-1.76,0.301-2.984,2.184-4.016
		c0.471-0.26,1.02-0.355,1.678-0.355c1.382-0.008,3.085,0.486,4.763,0.496c0.942,0,1.923-0.174,2.768-0.771
		c1.548-1.066,1.929-2.693,1.91-4.197c0-1.352-0.255-2.719-0.255-3.919c0.013-1.187,0.215-2.128,0.948-2.882
		c0.573-0.588,1.293-0.746,2.274-0.752c0.855,0,1.831,0.152,2.84,0.152c1.367,0.018,2.955-0.346,3.96-1.91
		c0.504-0.789,0.691-1.682,0.678-2.586c-0.021-2.877-1.637-6.217-1.615-8.62c0.045-1.433,0.401-2.344,2.008-3.067
		c0.186-0.086,0.379-0.115,0.617-0.115c0.925-0.033,2.206,0.686,3.601,0.719c0.244,0,0.499-0.031,0.749-0.096
		c2.008-0.527,2.643-2.303,2.586-3.941c-0.006-1.89-0.55-4.051-0.545-5.903c0.033-1.815,0.408-3.131,2.111-3.997
		c1.633-0.778,3.894-0.6,3.951-3.893c0.012-0.17,0.029-0.347,0.029-0.516c0-0.815-0.09-1.486-0.09-2.09
		c0.004-0.764,0.09-1.409,0.606-2.276c0.738-1.399,2.353-1.582,3.816-3.395c0.669-0.942,0.849-2.26,1.144-2.562l0.018-0.044
		c0.375,0.03,0.72-0.23,0.767-0.61c0.056-0.384-0.216-0.749-0.603-0.8c-0.017-0.006-0.072-0.01-0.158-0.01
		c-1.084,0.061-1.406,0.971-1.638,1.554c-0.233,0.659-0.442,1.336-0.664,1.603c-0.947,1.351-2.682,1.552-3.918,3.548
		c-0.641,1.087-0.795,2.093-0.795,2.992c0,0.729,0.09,1.39,0.09,2.09c0,0.122-0.005,0.248-0.022,0.423
		c-0.198,2.492-0.635,1.434-3.163,2.714c-2.303,1.118-2.928,3.267-2.903,5.269c0.01,2.101,0.555,4.287,0.549,5.903
		c-0.056,1.486-0.278,2.162-1.553,2.573c-0.097,0.028-0.221,0.045-0.364,0.045c-0.827,0.033-2.15-0.693-3.601-0.723
		c-0.373,0-0.782,0.055-1.174,0.232c-2.114,0.849-2.908,2.625-2.862,4.373c0.022,2.909,1.638,6.251,1.61,8.62
		c-0.006,0.719-0.143,1.311-0.46,1.807c-0.71,1.057-1.542,1.24-2.762,1.26c-0.861,0.012-1.843-0.139-2.84-0.139
		c-1.117-0.014-2.341,0.195-3.296,1.175c-1.094,1.122-1.342,2.544-1.338,3.875c0,1.375,0.25,2.75,0.25,3.919
		c-0.018,1.344-0.254,2.283-1.31,3.027c-0.533,0.371-1.169,0.518-1.951,0.518c-1.388,0.012-3.095-0.484-4.763-0.492
		c-0.788,0-1.598,0.119-2.342,0.514c-2.42,1.236-2.978,3.367-2.932,5.277c0,1.186,0.149,2.365,0.149,3.451
		c-0.013,1.623-0.279,2.934-1.697,4.082c-0.952,0.748-1.768,0.982-2.625,0.984c-2.156,0.061-4.468-1.861-7.163-1.926
		c-1.345-0.016-2.733,0.59-3.957,2.076c-1.689,2.141-1.209,4.736-2.206,6.227c-1.316,2.166-3.42,2.887-5.875,2.898
		c-2.421,0.006-5.087-0.765-7.139-1.559c-0.368-0.148-0.777,0.035-0.914,0.396c-0.152,0.369,0.036,0.783,0.398,0.92
		c2.154,0.832,4.94,1.66,7.655,1.666h0.051C200.114,286.543,202.842,285.629,204.447,282.959"/>
	<path clip-path="url(#SVGID_8_)" fill="#E3D8B4" d="M360.622,320.742c1.025-2.818,1.496-5.789,1.496-8.807
		c-0.028-14.125-10.337-29.096-24.144-31.66l-0.006,0.014c-0.386-0.067-0.755,0.183-0.823,0.572
		c-0.073,0.379,0.187,0.754,0.573,0.822c12.934,2.314,22.994,16.779,22.984,30.252c-0.013,2.871-0.448,5.678-1.419,8.318
		c-0.137,0.375,0.057,0.779,0.426,0.914c0.078,0.029,0.157,0.039,0.243,0.039C360.242,321.207,360.514,321.033,360.622,320.742"/>
	<path clip-path="url(#SVGID_8_)" fill="#E3D8B4" d="M550.81,285.873c4.701-4.705,6.799-10.344,12.55-13.207
		c3.929-1.979,7.479-2.742,10.864-2.742c8.999-0.025,17.028,5.525,27.082,8.736c3.567,1.117,10.321,2.836,16.542,2.842
		c5.999,0.016,11.853-1.65,13.252-7.477h-0.005c0.092-0.387-0.142-0.766-0.534-0.857c-0.373-0.092-0.759,0.142-0.85,0.523
		c-1.124,4.822-5.982,6.363-11.863,6.393c-5.966,0-12.646-1.684-16.115-2.785c-9.795-3.076-17.909-8.773-27.509-8.799
		c-3.601,0-7.394,0.832-11.506,2.896c-6.3,3.209-8.466,9.107-12.905,13.463c-4.18,4.162-10.611,5.631-16.712,5.623
		c-1.391,0-2.756-0.076-4.09-0.203c-11.896-1.195-21.36-9.389-30.621-16.695c-9.651-7.592-20.329-14.148-32.68-16.467
		c-3.919-0.727-7.865-0.949-11.817-0.949c-5.954,0-11.902,0.486-17.739,0.486c-7.455,0-14.69-0.797-21.559-4.365
		c-7.593-3.947-15.027-10.449-20.618-16.932c-6.505-7.504-10.762-18.107-19.903-23.804c-0.329-0.197-0.772-0.1-0.971,0.235
		c-0.21,0.333-0.102,0.772,0.227,0.977c8.637,5.33,12.878,15.724,19.569,23.522c5.693,6.598,13.219,13.19,21.038,17.262
		c7.168,3.727,14.67,4.537,22.217,4.537c5.915,0,11.871-0.492,17.739-0.492c3.896,0,7.757,0.215,11.557,0.924
		c12,2.258,22.496,8.652,32.062,16.18c9.222,7.252,18.865,15.719,31.365,16.987c1.378,0.138,2.788,0.216,4.225,0.216
		C539.412,291.896,546.215,290.422,550.81,285.873"/>
	<path clip-path="url(#SVGID_8_)" fill="#E3D8B4" d="M415.752,291.641c0.164-0.357,0.022-0.783-0.335-0.953
		c0.006-0.027-6.669-3.227-13.56-10.824c-6.895-7.596-13.938-19.504-14.612-36.881c-0.016-0.385-0.34-0.695-0.731-0.68
		c-0.397,0.016-0.704,0.342-0.687,0.732c1.378,35.535,28.893,48.9,28.977,48.934h-0.011c0.102,0.047,0.205,0.067,0.313,0.067
		C415.371,292.036,415.627,291.896,415.752,291.641"/>
	<path clip-path="url(#SVGID_8_)" fill="#E3D8B4" d="M433.762,194.996h-0.046c-0.976,0-1.99-0.383-2.801-1.306
		c-0.261-0.291-0.232-0.734,0.063-0.996c0.288-0.267,0.729-0.241,0.991,0.052c0.606,0.648,1.123,0.812,1.792,0.834
		c1.577,0.043,3.732-1.43,6-1.482c0.357,0,0.72,0.047,1.083,0.145c0.992,0.289,1.802,0.587,2.403,0.574
		c0.517-0.017,0.925-0.126,1.515-0.713c1.191-1.068,0.567-3.038,1.815-4.972c1.32-1.656,3.491-1.418,4.354-2.122
		c0.748-0.526,0.879-0.906,0.896-1.404c0.074-1.237-1.569-3.089-1.65-5.117c-0.029-0.88,0.442-1.818,1.417-2.432
		c2.1-1.267,3.172-0.506,3.573-2.385c0.08-0.32,0.102-0.591,0.113-0.839c0.018-1.361-0.992-2.205-2.517-3.49
		c-0.886-0.787-1.612-1.592-1.634-2.682c0-0.842,0.511-1.586,1.332-2.193c1.686-1.261,2.978-1.887,3.426-3.653
		c0.073-0.263,0.097-0.497,0.102-0.739c0-1.12-0.704-2.125-1.928-2.952c-0.867-0.669-2.506-1.26-2.598-3.056
		c-0.005-0.251,0.041-0.526,0.13-0.812c0.63-1.796,1.442-2.345,1.437-3.735l0.006-0.032c0.016-1.819-1.509-3.317-3.438-4.066
		c-1.071-0.578-3.514,0.493-4.983-1.741c-0.357-0.636-0.42-1.291-0.42-1.894c0-0.579,0.059-1.133,0.059-1.641
		c0-0.464-0.059-0.874-0.206-1.231c-0.618-1.542-2.324-2.923-4.094-2.901c-0.369,0-0.748,0.053-1.135,0.182
		c-1.314,0.319-2.024,2.199-4.479,2.332l-0.097-0.139v0.139c-2.728-0.071-2.812-2.598-3.612-3.284
		c-0.708-0.796-1.966-1.198-3.243-1.198c-0.866,0-1.719,0.186-2.354,0.505c-1.791,0.861-1.798,2.244-2.893,4.293
		c-1.105,1.995-3.243,3.408-5.732,3.408c-0.107,0-0.231,0-0.362-0.004c-0.472-0.034-0.88-0.058-1.219-0.058
		c-0.892,0.047-1.191,0.075-1.923,1.024c-0.737,1.063-0.954,2.056-0.959,3.142c-0.012,1.684,0.601,3.554,0.618,5.654
		c0,0.159-0.006,0.312-0.023,0.458c-0.051,2.267-1.74,3.164-3.051,3.573c-1.399,0.474-2.459,0.781-2.823,1.856
		c-0.125,0.366-0.182,0.717-0.182,1.029c-0.181,2.351,3.612,4.132,3.812,7.524c0,0.103-0.011,0.193-0.022,0.255
		c-0.262,2.86-2.66,3.876-3.3,5.541c-0.165,0.377-0.232,0.772-0.232,1.189c-0.012,1.244,0.691,2.715,1.303,4.043
		c0.657,1.445,1.531,2.151,3.034,3.068c2.091,1.255,3.821,2.075,4.581,4.901c0.579,2.019,1.078,2.974,2.932,3.764
		c0.801,0.325,1.701,0.438,2.707,0.739c1.677,0.508,2.682,1.434,3.963,2.231c0.339,0.208,0.436,0.648,0.227,0.984
		c-0.204,0.327-0.641,0.43-0.986,0.221h0.012c-1.424-0.893-2.292-1.686-3.63-2.08c-0.845-0.258-1.803-0.373-2.813-0.779
		c-2.318-0.898-3.232-2.597-3.787-4.703c-0.669-2.317-1.686-2.672-3.942-4.064c-1.553-0.937-2.794-1.924-3.594-3.698
		c-0.579-1.299-1.419-2.894-1.43-4.627c0-0.587,0.103-1.189,0.352-1.758c1.124-2.309,3.143-3.176,3.187-5.08
		c0.006-0.076,0.012-0.124,0.012-0.147c0.198-2.122-3.623-3.976-3.805-7.524c0-0.493,0.091-0.992,0.266-1.492
		c0.697-1.902,2.474-2.297,3.687-2.735c1.293-0.515,1.996-0.748,2.11-2.299c0.006-0.141,0.017-0.268,0.017-0.39
		c0.012-1.812-0.612-3.663-0.612-5.654c-0.008-1.288,0.285-2.646,1.219-3.965c0.85-1.269,2.002-1.661,3.08-1.619
		c0.418,0,0.844,0.026,1.304,0.059c0.084,0.008,0.177,0.008,0.277,0.008c1.935,0,3.625-1.121,4.485-2.688
		c0.925-1.588,1.05-3.658,3.511-4.877c0.879-0.432,1.916-0.651,2.982-0.657c1.554,0.006,3.182,0.47,4.293,1.669
		c1.321,1.611,1.1,2.893,2.562,2.822h0.028c0.023,0,0.068,0,0.154,0.01c1.365,0.049,1.864-1.476,3.946-2.276
		c0.526-0.169,1.071-0.255,1.582-0.255c2.489,0.023,4.564,1.756,5.409,3.79c0.244,0.599,0.307,1.207,0.307,1.769
		c0,0.594-0.051,1.155-0.051,1.641c0,0.498,0.062,0.888,0.227,1.178c0.544,1.182,2.194,0.477,4.275,1.135
		c2.229,0.854,4.316,2.719,4.339,5.388c0,0,0.011,0.065-0.013,0.162c-0.09,1.947-1.116,2.734-1.502,4.047
		c-0.045,0.145-0.057,0.264-0.061,0.37c-0.087,0.551,0.843,1.148,1.988,1.884c1.43,0.96,2.535,2.366,2.535,4.124
		c0.012,0.349-0.033,0.726-0.141,1.112c-0.637,2.403-2.462,3.287-3.953,4.411c-0.647,0.495-0.765,0.83-0.765,1.062
		c-0.024,0.312,0.335,0.913,1.145,1.602c1.407,1.216,2.987,2.377,2.999,4.57c0.006,0.364-0.033,0.755-0.142,1.173
		c-0.726,2.919-3.108,2.387-4.174,3.233c-0.663,0.465-0.76,0.784-0.783,1.25c-0.084,1.174,1.578,3.05,1.652,5.117
		c0.027,0.936-0.478,1.907-1.516,2.588c-1.599,0.963-3.475,0.879-4.003,1.781c-0.879,1.004-0.215,3.233-1.939,5.125
		c-0.788,0.807-1.689,1.152-2.541,1.139c-1.003-0.007-1.871-0.372-2.801-0.623c-0.215-0.065-0.448-0.096-0.686-0.096
		C438.146,193.47,436.002,194.945,433.762,194.996 M453.043,149.469h-0.006H453.043z"/>
	<path clip-path="url(#SVGID_8_)" fill="#E3D8B4" d="M232.419,235.409c-0.141,0.168-0.334,0.255-0.532,0.255
		c-0.165,0-0.335-0.059-0.465-0.176c-0.301-0.25-0.34-0.704-0.086-0.998h0.007c1.202-1.415,2.358-2.903,3.453-4.441
		c0.222-0.325,0.67-0.392,0.987-0.173c0.323,0.229,0.396,0.671,0.17,0.993C234.842,232.445,233.662,233.962,232.419,235.409
		 M239.065,226.044c-0.13,0.223-0.363,0.345-0.606,0.345c-0.125,0-0.243-0.029-0.363-0.097c-0.34-0.199-0.453-0.635-0.255-0.974
		c0.942-1.614,1.82-3.278,2.625-4.976c0.172-0.35,0.591-0.499,0.947-0.334c0.363,0.17,0.512,0.594,0.335,0.944
		C240.938,222.687,240.035,224.384,239.065,226.044 M243.987,215.657c-0.113,0.284-0.38,0.463-0.668,0.463
		c-0.079,0-0.171-0.018-0.255-0.049c-0.364-0.133-0.556-0.543-0.414-0.907c0.653-1.77,1.224-3.555,1.706-5.362
		c0.103-0.384,0.489-0.607,0.869-0.503c0.379,0.099,0.606,0.496,0.504,0.87C245.231,212.019,244.645,213.852,243.987,215.657
		 M246.931,204.542c-0.044,0.348-0.351,0.596-0.703,0.596c-0.034,0-0.068-0.006-0.108-0.009c-0.386-0.062-0.647-0.429-0.577-0.822
		h-0.013c0.11-0.609,0.193-1.216,0.268-1.823c0.164-1.228,0.266-2.477,0.317-3.74c0.011-0.397,0.346-0.697,0.737-0.687
		c0.385,0.017,0.696,0.349,0.686,0.739c-0.051,1.305-0.164,2.599-0.329,3.878C247.136,203.291,247.039,203.919,246.931,204.542
		 M246.738,193.793h-0.056c-0.364,0-0.675-0.272-0.715-0.641c-0.158-1.855-0.437-3.708-0.822-5.543
		c-0.074-0.384,0.17-0.765,0.556-0.842c0.385-0.081,0.766,0.166,0.845,0.548c0.385,1.895,0.675,3.802,0.844,5.709
		C247.418,193.419,247.136,193.764,246.738,193.793 M244.578,182.647c-0.074,0.025-0.148,0.038-0.228,0.038
		c-0.294,0-0.572-0.187-0.674-0.487h0.006c-0.607-1.771-1.305-3.508-2.11-5.186c-0.175-0.352-0.028-0.776,0.323-0.95
		c0.359-0.171,0.784-0.024,0.948,0.335c0.839,1.73,1.571,3.515,2.183,5.352C245.157,182.119,244.952,182.523,244.578,182.647
		 M239.792,172.353c-0.119,0.074-0.25,0.109-0.381,0.109c-0.231,0-0.464-0.109-0.6-0.318c-1.038-1.561-2.177-3.042-3.424-4.406
		c-0.256-0.293-0.233-0.741,0.056-1.003c0.289-0.261,0.736-0.245,0.992,0.043c1.303,1.427,2.483,2.967,3.555,4.587
		C240.211,171.691,240.121,172.124,239.792,172.353 M232.322,163.82c-0.14,0.183-0.356,0.274-0.565,0.274
		c-0.152,0-0.3-0.046-0.437-0.148c-1.452-1.135-3.017-2.137-4.655-2.983c-0.358-0.178-0.495-0.603-0.312-0.952
		c0.175-0.354,0.607-0.493,0.953-0.317c1.74,0.894,3.368,1.943,4.893,3.133C232.51,163.066,232.566,163.511,232.322,163.82
		 M222.377,158.46c-0.085,0.316-0.374,0.519-0.687,0.519c-0.061,0-0.124-0.005-0.186-0.026h0.006
		c-1.741-0.486-3.556-0.808-5.461-0.951c-0.392-0.032-0.675-0.375-0.652-0.761c0.028-0.4,0.375-0.692,0.771-0.657
		c1.984,0.148,3.896,0.49,5.716,1.003C222.27,157.686,222.484,158.078,222.377,158.46"/>
	<path clip-path="url(#SVGID_8_)" fill="#E3D8B4" d="M278.721,291.205c4.43-0.205,5.325-5.184,8.364-5.785
		c0.351-0.098,0.67-0.137,1.009-0.137c2.622-0.096,5.167,2.91,8.403,3.023c0.53,0,1.074-0.096,1.599-0.307
		c3.472-1.695,2.502-6.311,5.123-7.361c0.367-0.176,0.708-0.242,1.1-0.248c1.043-0.018,2.336,0.6,3.867,0.629
		c0.974,0.012,2.053-0.328,3.005-1.27c1.202-1.141,1.401-2.602,1.384-3.908c0-0.732-0.056-1.447-0.056-2.094
		c0.01-1.135,0.147-2.053,0.799-2.828c1.65-2.244,5.33-0.438,8.505-2.615c2.343-1.87,3.455-6.104,3.488-8.932
		c0-0.225-0.012-0.43-0.018-0.611h-0.009c-0.03-0.393-0.37-0.688-0.762-0.654c-0.392,0.029-0.68,0.369-0.645,0.768
		c0.011,0.17,0.017,0.334,0.017,0.498c0.034,2.428-1.231,6.568-2.944,7.801c-1.995,1.771-5.96-0.174-8.72,2.832
		c-0.97,1.152-1.124,2.513-1.124,3.742c0,0.729,0.056,1.437,0.056,2.094c-0.011,1.205-0.164,2.121-0.958,2.887
		c-0.743,0.697-1.333,0.863-2.018,0.867c-1.084,0.023-2.371-0.594-3.867-0.623c-0.563,0-1.159,0.107-1.73,0.398
		c-3.578,2.045-2.762,6.713-5.018,7.309c-0.375,0.146-0.715,0.203-1.074,0.209c-2.256,0.107-4.899-2.932-8.403-3.027
		c-0.453,0-0.911,0.057-1.377,0.188c-4.071,1.303-4.98,5.947-7.996,5.738c0,0-0.062-0.006-0.092,0
		c-3.48,0.152-3.429-5.195-7.166-6.67c-0.432-0.129-0.857-0.191-1.264-0.191c-3.432,0.186-4.866,3.623-7.764,3.492
		c0,0-0.068-0.018-0.046,0c-5.483,0.006-9.538-5.822-9.821-10.992c-0.017-0.391-0.358-0.689-0.747-0.662
		c-0.387,0.016-0.694,0.352-0.664,0.742c0.329,5.701,4.637,12.16,11.278,12.318v0.01c0.006,0,0.006,0.008,0.035,0
		c3.906-0.164,5.573-3.672,7.729-3.49c0.259,0.01,0.543,0.043,0.861,0.135c2.41,0.357,2.593,6.379,7.628,6.727H278.721z"/>
	<g clip-path="url(#SVGID_8_)">
		<defs>
			<rect id="SVGID_9_" x="812" y="-69" width="422.153" height="283.75"/>
		</defs>
		<clipPath id="SVGID_10_">
			<use xlink:href="#SVGID_9_"  overflow="visible"/>
		</clipPath>
		<path clip-path="url(#SVGID_10_)" fill="#D1D3D4" d="M791.148,136.006c0.467-0.659,1.049-1.212,1.713-1.677
			c3.604-2.477,9.429-2.442,12.918-0.64c0.066,0.024,0.125,0.065,0.174,0.12c0.221,0.227,0.224,0.597,0.001,0.821l-0.005,0.004
			c-1.216,1.185-2.416,2.322-3.761,3.263c-1.216,0.855-2.552,1.546-4.1,1.963c-1.649,0.419-4.198,1.122-6.12,0.085
			c-0.447-0.245-0.809-0.548-1.064-0.913C790.26,138.137,790.443,136.966,791.148,136.006 M797.781,138.734
			c1.403-0.374,2.607-1.001,3.738-1.794c1.04-0.727,2.02-1.603,3.011-2.558c-3.124-1.263-8.168-1.126-11.004,0.9
			c-0.565,0.399-1.052,0.866-1.427,1.393c-0.529,0.794-0.533,1.257-0.242,1.686c0.131,0.185,0.34,0.383,0.679,0.562
			C793.779,139.672,796.184,139.191,797.781,138.734"/>
		<path clip-path="url(#SVGID_10_)" fill="#D1D3D4" d="M792.998,110.779c6.728,1.157,1.165,10.569-3.191,6.514
			C787,114.672,789.285,110.139,792.998,110.779"/>
		<path clip-path="url(#SVGID_10_)" fill="#D1D3D4" d="M840.428,67.016c-0.941,5.362,0.299,10.128-2.21,14.749
			c-1.706,3.172-3.726,5.352-5.994,6.941c-6.023,4.244-14.012,4.295-22.261,6.864c-2.917,0.926-8.254,2.946-12.426,5.866
			c-4.026,2.806-7.171,6.672-5.37,11.234l0.003-0.001c0.119,0.303,0.454,0.447,0.76,0.325c0.295-0.114,0.441-0.454,0.322-0.751
			c-1.511-3.761,1.025-7.077,4.953-9.859c3.996-2.801,9.266-4.81,12.109-5.701c8.012-2.539,16.128-2.53,22.576-7.023
			c2.414-1.691,4.564-4.031,6.351-7.347c2.718-5.109,1.4-10.08,2.332-15.087c0.845-4.754,4.466-8.759,8.561-11.619
			c0.934-0.652,1.886-1.243,2.838-1.782c8.535-4.79,18.729-3.74,28.372-3.191c10.035,0.555,20.271-0.067,29.643-4.312
			c2.969-1.354,5.718-3.058,8.366-4.914c3.993-2.798,7.751-5.917,11.665-8.66c4.996-3.5,10.223-6.365,16.503-7.199
			c6.944-0.92,14.98-0.053,21.774,1.666c7.887,1.977,15.723,7.086,24.527,6.61c0.312-0.022,0.563-0.294,0.538-0.614
			c-0.015-0.32-0.293-0.564-0.611-0.547c-8.292,0.482-16.019-4.492-24.167-6.578c-6.914-1.749-15.058-2.635-22.211-1.69
			c-6.557,0.868-11.968,3.849-17.026,7.392c-3.965,2.778-7.729,5.906-11.661,8.663c-2.611,1.829-5.3,3.501-8.181,4.81
			c-9.105,4.125-19.146,4.768-29.097,4.213c-9.585-0.529-20.029-1.677-29.004,3.342c-0.99,0.557-1.972,1.165-2.936,1.843
			C845.237,57.624,841.371,61.808,840.428,67.016"/>
	</g>
</g>
</svg>
