<?xml version="1.0" encoding="utf-8"?>
<!-- Generator: Adobe Illustrator 17.1.0, SVG Export Plug-In . SVG Version: 6.00 Build 0)  -->
<!DOCTYPE svg PUBLIC "-//W3C//DTD SVG 1.1//EN" "http://www.w3.org/Graphics/SVG/1.1/DTD/svg11.dtd">
<svg version="1.1" id="Layer_1" xmlns="http://www.w3.org/2000/svg" xmlns:xlink="http://www.w3.org/1999/xlink" x="0px" y="0px"
	 width="113.5px" height="112.8px" viewBox="0 0 113.5 112.8" style="enable-background:new 0 0 113.5 112.8;" xml:space="preserve"
	>
<style type="text/css">
	.st0{fill:none;stroke:#DCDBC7;stroke-miterlimit:10;}
	.st1{fill:none;stroke:#DCDBC7;stroke-width:2;stroke-miterlimit:10;}
	.st2{fill-rule:evenodd;clip-rule:evenodd;fill:#DCDBC7;}
</style>
<g>
	<g id="bg_copy_8_">
		<g>
			<circle class="st0" cx="56.8" cy="56.4" r="40.7"/>
		</g>
	</g>
	<path class="st1" d="M13,71.4L2.4,65.7l-0.9-7.7l9.1-7.9l2.6-10.8L8.8,28.2l4.3-6.4l12.1-0.2L34,15l3.8-11.5l7.4-2.2l9.4,7.6
		l11,0.7l10.3-6.4L83,6.4l2.3,11.9l8,7.6l12,1.7l3.4,6.9L102.8,45l1.2,11l8,9l-1.8,7.5L99,76.9l-6.1,9.2l0.4,12.1l-6.2,4.6
		l-11.4-3.9L65,101.9l-7.5,9.5l-7.7-0.5l-6.2-10.4l-10.1-4.4l-11.8,2.5L16,93.3l1.9-11.9L13,71.4z M19.3,56.4
		c0,20.7,16.8,37.5,37.5,37.5c20.7,0,37.5-16.8,37.5-37.5c0-20.7-16.8-37.5-37.5-37.5C36.1,18.8,19.3,35.6,19.3,56.4"/>
</g>
<g id="D4D8fP_2_">
	<g>
		<path class="st2" d="M52.1,30.1c0.7,0.7,1.9-0.1,2.7,0.5c-3,1.6-8.7,1.4-9.3,4.9c2.5-0.8,4.8-2.6,8.4-2.9c1.8-0.1,3.7,0.2,5.5-0.2
			c0.8-0.1,1.5-0.6,2.3-0.6c1.9,0,3.3,1.7,4.9,0.8c-0.7-3.2-5.3-1.8-8.5-2.3C56.1,29.9,53.2,27.7,52.1,30.1z M48.1,31.8
			c1.1,0.3,2.4-0.3,3-0.9C50.9,29.3,47.9,30.3,48.1,31.8z M39.5,48.9c1.2-1,1.5-2.5,2.4-3.8c0.8-1.3,2.3-2.2,2.7-3.3
			c0.3-0.8,0.2-1.9,0.6-2.6c1.2-2.3,6.1-4.1,9.7-4.4c2.8-0.2,4.9-0.2,7.3-0.8c-1.1,1.8-4.4,1.3-7.1,1.5c-3.9,0.3-8.8,1.8-9.3,5.2
			c2.9-1.2,5.7-3.5,9.7-3.8c1.7-0.1,3.7,0.2,5.2-0.2c0.7-0.2,1.6-0.9,2.4-0.9c4.4-0.2,6.2,5.1,10,4.7c0.2-2-2-2.3-3.5-3.2
			c-1.1-0.6-2.1-1.4-3.2-2.1c-1.6-1-2.6-2.8-5.3-2.6c-0.8,0.1-1.7,0.5-2.6,0.6c-1.4,0.2-2.9,0-4.4,0.2c-4.3,0.3-9.6,2.7-10.8,5.3
			c-0.3,0.7-0.1,1.5-0.5,2.3C42.2,43,38.1,45.1,39.5,48.9z M66.7,33.6c0.3,1.5,2.6,2.8,4.1,2.7C70.3,34.6,68.8,33.2,66.7,33.6z
			 M62.1,37.1c0.9,1.2,2.4,1.3,3.5,2c1,0.6,2.2,1.5,2.9,2.4c0.4,0.6,0.6,1.4,1.1,2c1,1.1,2.7,1.7,3.8,2.9c1.1,1.2,1.4,2.8,3,3.3
			c0.5-2.9-3-5-5-6.4c-1.7-2.2-3.8-5.7-7.1-6.5C63.5,36.6,62.7,36.5,62.1,37.1z M70.8,40.7c0,2.1,2.5,3.1,4.1,3.8
			C75,42.4,72.9,41.1,70.8,40.7z M62.9,46.6c-7.7-3-16.8,3.5-17,10.8c-0.1,1.7,0.8,3.9,0.9,6.1c0.4,6.3,2.2,11.8,6.8,13.8
			c1.4,0.6,3,0.7,4.3,1.4c1.2,0.6,2.3,1.7,3.5,2.1c1.3,0.5,3,0.2,4.6,0.6c1.2,0.3,2.1,1.5,3.3,0.8c-0.4-2.7-3.8-2-5.8-2.6
			c-2.4-0.7-5-2.4-6.7-3.8c-2.4-2-4.7-5.8-5.5-9.4c-0.3-1.3,0.3-2.9-0.9-4c-1.6,0.3-1,2.3-0.8,3.3c0.7,3.7,2.2,7.4,4.3,9.6
			c-4.4-1.6-5.1-7.3-5.5-12.8c-0.1-1.8-0.8-3.5-0.6-5.3c0.6-5.9,7-11.4,14.1-8.8c2.1,0.8,3.9,2.8,5.6,4.4c1.1,1,2,1.5,2.7,2.6
			c1.2,1.8,1.9,4.3,2.9,6.4c0.5,1,1,2.2,1.5,3.2c0.4,0.8,0.9,2.1,2.1,2.1c0.7-2.1-1.2-4.3-2.3-6.4c-1.1-2.1-1.7-4.4-2.9-6.4
			c-1.1-1.8-2.9-3.2-4.4-4.9c-2.6-2.9-3.4-5.6-7.7-6.5c-0.9-0.2-3.7-0.5-3.8,0.6c-0.1,1.2,1.9,0.9,3.2,1.1
			C60.5,44.9,62.2,45.5,62.9,46.6z M55.3,43.9c-0.3,0-0.1-0.5-0.5-0.5c-2.6,0.1-6,2.5-7.4,4.4c-2.8,3.6-5.6,8.6-5.2,14.9
			c0,0.4,0.3,3.5,1.4,3.3c1.2-0.2-0.1-4.2,0.2-5.8c0.1-0.7,0.6-1.3,0.8-2c0.7-2.5,1.1-4.6,2.4-6.7c1.1-1.7,2.6-3.6,4.3-4.9
			C52.6,45.7,54.5,45.9,55.3,43.9z M67.1,46.6c-0.6,1.6,1,2.2,1.8,2.9c2.5,2,4,4.7,5.3,8.1c0.7,1.9,1.4,4.1,3,5
			c0.4-2.1-0.9-4.2-1.7-6.1c-0.8-1.9-1.3-4-2.4-5.5c-1.3-1.7-3.9-3.3-5.8-4.4C67.3,46.6,67.2,46.6,67.1,46.6z M50.4,61.8
			c0.3-2.5,0-4.8,1.1-6.8c2.3-4.5,8.1-5.1,12.3-1.8c1.5,1.2,3.4,2.8,4.1,4.6c-3.3-1.2-4.8-5.2-9-5.8c-4.3-0.6-6.6,2.3-7,5.5
			c-0.4,3.1,0.1,7.2,0.9,10c1.1,4,3.9,7.4,6.8,9.3c0.9,0.6,1.9,0.7,2.9,1.2c0.9,0.4,1.7,1.5,2.7,1.1c-0.8-2.8-3.7-2.9-5.6-4.4
			c-3.1-2.4-4.9-6-5.5-11.4c-0.3-2.8-1.4-5.6,0.3-8.1c1.4-2,4.7-2.2,6.8-0.9c1,0.6,2,2.2,3,3.3c0.7,0.7,2,1.5,2.3,2
			c0.8,1.3,0.3,2.8,0.6,4.7c0.3,1.9,2,4.7,3.2,6.2c0.8,1,2.3,2.3,3.8,2.1c-0.2-2-1.8-3-2.7-4.3c-1.1-1.6-2.3-3.8-2-6.8
			c0.2-2.3,0.8-4.1-0.3-5.8c-1-1.5-3-2.9-4.6-4.1c-2-1.5-4.5-3-7.9-2.6c-4,0.4-7.6,4.5-7.9,9.4C48.9,59.5,48.6,61.6,50.4,61.8z
			 M55.1,56.8c1.2-0.6,2.2-0.6,3.3-1.1C58.5,53.3,54.1,55,55.1,56.8z M58.9,55.2c-0.2,1,0.6,1,1.2,1.2c1,0.6,1.3,1.8,2.1,2.6
			c0.6,0.6,1.4,0.8,1.8,1.4c0.8,1,0.7,2.5,2,3.2c1.3-2.5-1.6-4.7-3-6.4C62.1,56,61,53.7,58.9,55.2z M71.2,79.5
			c-1.1-1.2-2.5-1.8-3.8-2.9c-1.2-1-2.1-2.4-3.3-3.2c-0.7-0.4-1.7-0.5-2.4-0.9c-2.5-1.4-4.9-5.4-5-8.7c0-0.6,0.2-1.1,0.2-1.7
			c-0.1-1.5-0.7-3.6,1.2-3.8c1.5-0.1,1.8,1.4,2.4,2.4c0.5,0.8,1.4,1.4,2,2.3c2.9,4.5,5.1,11.5,10.6,12.3c-0.1-2.1-1.8-2-3.2-3.3
			c-2.7-2.7-3.5-7.4-5.9-10.3c-0.4-0.5-1.3-1-2-1.7c-1.2-1.4-1.9-3.6-4.9-3c-2.2,0.4-2.2,2.4-2,4.6c0.2,1.9-0.1,3.6,0.3,5.2
			c0.5,2.3,2.6,5.6,4.7,7c0.9,0.6,2,0.7,2.9,1.2C65.6,76.4,67.3,80.3,71.2,79.5z M58.2,62c-1.1,2.7,0.4,6.9,2.4,8.4
			c0.8,0.6,2,0.6,2.7,1.1c2.8,1.6,4.9,6.7,9.3,6.1c-0.3-1.5-2-1.6-2.9-2.3c-0.9-0.6-1.6-1.6-2.4-2.6c-0.8-0.9-1.9-1.7-2.4-2.6
			c-0.6-1-0.8-2.2-1.5-3.3c-1.2-2-1.8-4-3.8-5.2c-0.2-1.1-0.5-2.4-1.4-2.3C57,59.4,57.5,61.2,58.2,62z M44.8,59.9
			c-0.5,1.7-0.4,5.1,1.2,5.6C46.1,63.8,46.8,60.1,44.8,59.9z M70.9,60.6c-1.1,3.5,1.2,5.9,2.7,7.9c0.5,0.7,0.9,1.8,1.8,1.8
			c0.8-4-3.3-5.7-3.8-9.4c-0.1-0.2-0.3-0.2-0.3-0.5C71.2,60.4,71.1,60.6,70.9,60.6z M45.7,66.9c-1.3,0.6-0.4,2.2-0.2,3
			c0.8,2.9,2.2,5.8,4.1,7.7c2.4,2.4,5.9,2.3,8.4,4.3c-2.2,0.5-4.2-1.4-5.9-1.4c0,2.7,3.1,2.5,5.8,2.9c2.5,0.3,3.9,2.7,6.2,2.3
			c-0.1-1.2-1.6-1.5-2.3-2.1c-1.4-1.2-2.2-3.1-4.1-4c-3.6-1.6-5.6-1.3-7.7-4.1c-1.7-2.3-2.4-4.3-3.8-8.2c-0.1-0.1-0.2-0.2-0.2-0.5
			C45.9,66.9,45.8,66.9,45.7,66.9z M43.1,67.3c-0.8,2.2,1,4.2,1.5,6.1c-2.2-0.6-2.2-4.6-3.8-6.2c-1,0.2-0.8,1.4-0.8,2
			c0.1,1.7,1.8,4.5,2.7,5.3c0.8,0.7,2.1,1.1,2.9,1.8c1.7,1.6,2.8,4.9,5.6,4.1c0.1-1.4-1.2-1.5-2-2.1c-2.9-2.5-3.9-6.7-5.3-10.8
			c-0.1-0.1-0.4-0.1-0.5-0.3C43.5,67.2,43.3,67.3,43.1,67.3z M41.3,74.5c0.2,2.1,2,2.6,3,3.8c-0.4,0.5-0.9-0.8-1.4-0.3
			c-0.1,1.1,0.8,1.2,1.1,2c4,0.7,6,4.2,9.9,4.4c-0.5-1.2-2.2-2.1-3.5-2.9c-1.3-0.8-3-1.4-4.1-2.6c-0.5-0.5-0.7-1.4-1.2-2
			c-0.9-1-2.3-1.5-3.2-2.4C41.7,74.5,41.5,74.5,41.3,74.5z M62.1,82.1c0.1,2,5,3.4,5.2,1.7C67.4,82.1,63.6,82,62.1,82.1z"/>
		<path class="st2" d="M59.1,28.3c-0.6,0-1.1,0-1.7,0c-1.8,1.3,2.5,2.3,2.7,0.8C60,28.5,59.4,28.6,59.1,28.3z"/>
		<path class="st2" d="M52.1,30.1c0.7,0.7,1.9-0.1,2.7,0.5c-3,1.6-8.7,1.4-9.3,4.9c2.5-0.8,4.8-2.6,8.4-2.9c1.8-0.1,3.7,0.2,5.5-0.2
			c0.8-0.1,1.5-0.6,2.3-0.6c1.9,0,3.3,1.7,4.9,0.8c-0.7-3.2-5.3-1.8-8.5-2.3C56.1,29.9,53.2,27.7,52.1,30.1z"/>
		<path class="st2" d="M48.1,31.8c1.1,0.3,2.4-0.3,3-0.9C50.9,29.3,47.9,30.3,48.1,31.8z"/>
		<path class="st2" d="M39.5,48.9c1.2-1,1.5-2.5,2.4-3.8c0.8-1.3,2.3-2.2,2.7-3.3c0.3-0.8,0.2-1.9,0.6-2.6c1.2-2.3,6.1-4.1,9.7-4.4
			c2.8-0.2,4.9-0.2,7.3-0.8c-1.1,1.8-4.4,1.3-7.1,1.5c-3.9,0.3-8.8,1.8-9.3,5.2c2.9-1.2,5.7-3.5,9.7-3.8c1.7-0.1,3.7,0.2,5.2-0.2
			c0.7-0.2,1.6-0.9,2.4-0.9c4.4-0.2,6.2,5.1,10,4.7c0.2-2-2-2.3-3.5-3.2c-1.1-0.6-2.1-1.4-3.2-2.1c-1.6-1-2.6-2.8-5.3-2.6
			c-0.8,0.1-1.7,0.5-2.6,0.6c-1.4,0.2-2.9,0-4.4,0.2c-4.3,0.3-9.6,2.7-10.8,5.3c-0.3,0.7-0.1,1.5-0.5,2.3
			C42.2,43,38.1,45.1,39.5,48.9z"/>
		<path class="st2" d="M66.7,33.6c0.3,1.5,2.6,2.8,4.1,2.7C70.3,34.6,68.8,33.2,66.7,33.6z"/>
		<path class="st2" d="M62.1,37.1c0.9,1.2,2.4,1.3,3.5,2c1,0.6,2.2,1.5,2.9,2.4c0.4,0.6,0.6,1.4,1.1,2c1,1.1,2.7,1.7,3.8,2.9
			c1.1,1.2,1.4,2.8,3,3.3c0.5-2.9-3-5-5-6.4c-1.7-2.2-3.8-5.7-7.1-6.5C63.5,36.6,62.7,36.5,62.1,37.1z"/>
		<path class="st2" d="M37.1,59.6c0,1.2,0,2.4,0,3.6c0.7,1.5,0.4,3.9,2.1,4.3c0.2-1.7-0.5-3.1-0.6-4.7c-0.5-7.2,3.6-14.6,7.4-18.7
			c3.6-3.7,11.6-6.8,17.8-3.5c1.5,0.8,2.3,2.7,4.1,2.4c-0.1-1.7-2-2.5-3.2-3.3c-4.8-3.1-11.5-1.9-16,0.6
			C42.3,43.9,38.2,51.4,37.1,59.6z"/>
		<path class="st2" d="M78.1,57.7c0-0.4,0-0.8,0-1.2c-1.4-4.3-4.2-9.5-8.4-11.5c-0.8-0.4-2-0.6-2.9-1.1c-2-1.1-3.4-2.7-5.6-3.3
			c-3.2-0.9-6.5-0.7-9,0.2C46.1,43,39.7,52.4,39.6,60.5c0,2.1-0.3,5.1,1.5,5.6c0.6-1,0.2-1.9,0.2-2.9c-0.3-6.9,2.6-12.6,5.9-16.4
			c2.9-3.4,8.6-6.5,14.4-4.3c1.8,0.7,2.9,2.3,4.9,3.2c0.7,0.3,1.5,0.3,2.3,0.6c3.4,1.4,5.7,5.4,7.1,8.8
			C76.5,56.5,77.1,58.7,78.1,57.7z"/>
		<path class="st2" d="M70.8,40.7c0,2.1,2.5,3.1,4.1,3.8C75,42.4,72.9,41.1,70.8,40.7z"/>
		<path class="st2" d="M62.9,46.6c-7.7-3-16.8,3.5-17,10.8c-0.1,1.7,0.8,3.9,0.9,6.1c0.4,6.3,2.2,11.8,6.8,13.8
			c1.4,0.6,3,0.7,4.3,1.4c1.2,0.6,2.3,1.7,3.5,2.1c1.3,0.5,3,0.2,4.6,0.6c1.2,0.3,2.1,1.5,3.3,0.8c-0.4-2.7-3.8-2-5.8-2.6
			c-2.4-0.7-5-2.4-6.7-3.8c-2.4-2-4.7-5.8-5.5-9.4c-0.3-1.3,0.3-2.9-0.9-4c-1.6,0.3-1,2.3-0.8,3.3c0.7,3.7,2.2,7.4,4.3,9.6
			c-4.4-1.6-5.1-7.3-5.5-12.8c-0.1-1.8-0.8-3.5-0.6-5.3c0.6-5.9,7-11.4,14.1-8.8c2.1,0.8,3.9,2.8,5.6,4.4c1.1,1,2,1.5,2.7,2.6
			c1.2,1.8,1.9,4.3,2.9,6.4c0.5,1,1,2.2,1.5,3.2c0.4,0.8,0.9,2.1,2.1,2.1c0.7-2.1-1.2-4.3-2.3-6.4c-1.1-2.1-1.7-4.4-2.9-6.4
			c-1.1-1.8-2.9-3.2-4.4-4.9c-2.6-2.9-3.4-5.6-7.7-6.5c-0.9-0.2-3.7-0.5-3.8,0.6c-0.1,1.2,1.9,0.9,3.2,1.1
			C60.5,44.9,62.2,45.5,62.9,46.6z"/>
		<path class="st2" d="M55.3,43.9c-0.3,0-0.1-0.5-0.5-0.5c-2.6,0.1-6,2.5-7.4,4.4c-2.8,3.6-5.6,8.6-5.2,14.9c0,0.4,0.3,3.5,1.4,3.3
			c1.2-0.2-0.1-4.2,0.2-5.8c0.1-0.7,0.6-1.3,0.8-2c0.7-2.5,1.1-4.6,2.4-6.7c1.1-1.7,2.6-3.6,4.3-4.9C52.6,45.7,54.5,45.9,55.3,43.9z
			"/>
		<path class="st2" d="M67.1,46.6c-0.6,1.6,1,2.2,1.8,2.9c2.5,2,4,4.7,5.3,8.1c0.7,1.9,1.4,4.1,3,5c0.4-2.1-0.9-4.2-1.7-6.1
			c-0.8-1.9-1.3-4-2.4-5.5c-1.3-1.7-3.9-3.3-5.8-4.4C67.3,46.6,67.2,46.6,67.1,46.6z"/>
		<path class="st2" d="M50.4,61.8c0.3-2.5,0-4.8,1.1-6.8c2.3-4.5,8.1-5.1,12.3-1.8c1.5,1.2,3.4,2.8,4.1,4.6c-3.3-1.2-4.8-5.2-9-5.8
			c-4.3-0.6-6.6,2.3-7,5.5c-0.4,3.1,0.1,7.2,0.9,10c1.1,4,3.9,7.4,6.8,9.3c0.9,0.6,1.9,0.7,2.9,1.2c0.9,0.4,1.7,1.5,2.7,1.1
			c-0.8-2.8-3.7-2.9-5.6-4.4c-3.1-2.4-4.9-6-5.5-11.4c-0.3-2.8-1.4-5.6,0.3-8.1c1.4-2,4.7-2.2,6.8-0.9c1,0.6,2,2.2,3,3.3
			c0.7,0.7,2,1.5,2.3,2c0.8,1.3,0.3,2.8,0.6,4.7c0.3,1.9,2,4.7,3.2,6.2c0.8,1,2.3,2.3,3.8,2.1c-0.2-2-1.8-3-2.7-4.3
			c-1.1-1.6-2.3-3.8-2-6.8c0.2-2.3,0.8-4.1-0.3-5.8c-1-1.5-3-2.9-4.6-4.1c-2-1.5-4.5-3-7.9-2.6c-4,0.4-7.6,4.5-7.9,9.4
			C48.9,59.5,48.6,61.6,50.4,61.8z"/>
		<path class="st2" d="M55.1,56.8c1.2-0.6,2.2-0.6,3.3-1.1C58.5,53.3,54.1,55,55.1,56.8z"/>
		<path class="st2" d="M58.9,55.2c-0.2,1,0.6,1,1.2,1.2c1,0.6,1.3,1.8,2.1,2.6c0.6,0.6,1.4,0.8,1.8,1.4c0.8,1,0.7,2.5,2,3.2
			c1.3-2.5-1.6-4.7-3-6.4C62.1,56,61,53.7,58.9,55.2z"/>
		<path class="st2" d="M71.2,79.5c-1.1-1.2-2.5-1.8-3.8-2.9c-1.2-1-2.1-2.4-3.3-3.2c-0.7-0.4-1.7-0.5-2.4-0.9
			c-2.5-1.4-4.9-5.4-5-8.7c0-0.6,0.2-1.1,0.2-1.7c-0.1-1.5-0.7-3.6,1.2-3.8c1.5-0.1,1.8,1.4,2.4,2.4c0.5,0.8,1.4,1.4,2,2.3
			c2.9,4.5,5.1,11.5,10.6,12.3c-0.1-2.1-1.8-2-3.2-3.3c-2.7-2.7-3.5-7.4-5.9-10.3c-0.4-0.5-1.3-1-2-1.7c-1.2-1.4-1.9-3.6-4.9-3
			c-2.2,0.4-2.2,2.4-2,4.6c0.2,1.9-0.1,3.6,0.3,5.2c0.5,2.3,2.6,5.6,4.7,7c0.9,0.6,2,0.7,2.9,1.2C65.6,76.4,67.3,80.3,71.2,79.5z"/>
		<path class="st2" d="M58.2,59.3c0.9-0.1,1.1,1.2,1.4,2.3c2,1.1,2.6,3.2,3.8,5.2c0.7,1.1,0.9,2.3,1.5,3.3c0.5,0.9,1.6,1.7,2.4,2.6
			c0.9,1,1.6,2,2.4,2.6c0.9,0.7,2.6,0.8,2.9,2.3c-4.4,0.6-6.5-4.4-9.3-6.1c-0.8-0.5-1.9-0.5-2.7-1.1c-2.1-1.4-3.5-5.7-2.4-8.4
			C57.5,61.2,57,59.4,58.2,59.3z M60,63.7c-0.2,0-0.3,0.1-0.5,0.2c-0.1,2.1,0.9,5,3.2,5.5C61.9,67.4,60.8,65.7,60,63.7z"/>
		<path class="st2" d="M44.8,59.9c-0.5,1.7-0.4,5.1,1.2,5.6C46.1,63.8,46.8,60.1,44.8,59.9z"/>
		<path class="st2" d="M70.9,60.6c-1.1,3.5,1.2,5.9,2.7,7.9c0.5,0.7,0.9,1.8,1.8,1.8c0.8-4-3.3-5.7-3.8-9.4
			c-0.1-0.2-0.3-0.2-0.3-0.5C71.2,60.4,71.1,60.6,70.9,60.6z"/>
		<path class="st2" d="M60,63.7c-0.2,0-0.3,0.1-0.5,0.2c-0.1,2.1,0.9,5,3.2,5.5C61.9,67.4,60.8,65.7,60,63.7z"/>
		<path class="st2" d="M45.7,66.9c-1.3,0.6-0.4,2.2-0.2,3c0.8,2.9,2.2,5.8,4.1,7.7c2.4,2.4,5.9,2.3,8.4,4.3
			c-2.2,0.5-4.2-1.4-5.9-1.4c0,2.7,3.1,2.5,5.8,2.9c2.5,0.3,3.9,2.7,6.2,2.3c-0.1-1.2-1.6-1.5-2.3-2.1c-1.4-1.2-2.2-3.1-4.1-4
			c-3.6-1.6-5.6-1.3-7.7-4.1c-1.7-2.3-2.4-4.3-3.8-8.2c-0.1-0.1-0.2-0.2-0.2-0.5C45.9,66.9,45.8,66.9,45.7,66.9z"/>
		<path class="st2" d="M43.1,67.3c-0.8,2.2,1,4.2,1.5,6.1c-2.2-0.6-2.2-4.6-3.8-6.2c-1,0.2-0.8,1.4-0.8,2c0.1,1.7,1.8,4.5,2.7,5.3
			c0.8,0.7,2.1,1.1,2.9,1.8c1.7,1.6,2.8,4.9,5.6,4.1c0.1-1.4-1.2-1.5-2-2.1c-2.9-2.5-3.9-6.7-5.3-10.8c-0.1-0.1-0.4-0.1-0.5-0.3
			C43.5,67.2,43.3,67.3,43.1,67.3z"/>
		<path class="st2" d="M41.3,74.5c0.2,2.1,2,2.6,3,3.8c-0.4,0.5-0.9-0.8-1.4-0.3c-0.1,1.1,0.8,1.2,1.1,2c4,0.7,6,4.2,9.9,4.4
			c-0.5-1.2-2.2-2.1-3.5-2.9c-1.3-0.8-3-1.4-4.1-2.6c-0.5-0.5-0.7-1.4-1.2-2c-0.9-1-2.3-1.5-3.2-2.4C41.7,74.5,41.5,74.5,41.3,74.5z
			"/>
		<path class="st2" d="M62.1,82.1c0.1,2,5,3.4,5.2,1.7C67.4,82.1,63.6,82,62.1,82.1z"/>
		<path class="st2" d="M58.3,86c0.6,0,1.1,0,1.7,0c1.4-1.5-3.1-2.5-4.1-1.5C56.3,85.4,57.4,85.6,58.3,86z"/>
	</g>
</g>
</svg>
