<?xml version="1.0" encoding="utf-8"?>
<!-- Generator: Adobe Illustrator 17.1.0, SVG Export Plug-In . SVG Version: 6.00 Build 0)  -->
<!DOCTYPE svg PUBLIC "-//W3C//DTD SVG 1.1//EN" "http://www.w3.org/Graphics/SVG/1.1/DTD/svg11.dtd">
<svg version="1.1"
	 id="Layer_1" xmlns:sodipodi="http://sodipodi.sourceforge.net/DTD/sodipodi-0.dtd" xmlns:svg="http://www.w3.org/2000/svg" xmlns:cc="http://creativecommons.org/ns#" xmlns:dc="http://purl.org/dc/elements/1.1/" xmlns:inkscape="http://www.inkscape.org/namespaces/inkscape" xmlns:rdf="http://www.w3.org/1999/02/22-rdf-syntax-ns#" inkscape:version="0.48.0 r9654" sodipodi:docname="FuturaSP.svg"
	 xmlns="http://www.w3.org/2000/svg" xmlns:xlink="http://www.w3.org/1999/xlink" x="0px" y="0px" width="198px" height="234px"
	 viewBox="0 0 198 234" enable-background="new 0 0 198 234" xml:space="preserve">
<sodipodi:namedview  id="namedview3016" pagecolor="#ffffff" inkscape:cx="99" objecttolerance="10" showgrid="false" inkscape:zoom="2.2307692" inkscape:cy="117" guidetolerance="10" gridtolerance="10" borderopacity="1" bordercolor="#666666" inkscape:window-y="-8" inkscape:pageopacity="0" inkscape:window-maximized="1" inkscape:current-layer="Layer_1" inkscape:window-height="706" inkscape:pageshadow="2" inkscape:window-width="1024" inkscape:window-x="-8">
	</sodipodi:namedview>
<rect id="rect3165" fill="#FFFFFF" width="198" height="234"/>
<rect id="rect3169" y="156" fill="#FF5F56" width="198" height="78"/>
<g id="text3343">
	<path id="path3019" fill="#29292A" d="M25.3,17.6v-1.7H18v15.1h1.9v-7.4h5.2v-1.7h-5.2v-4.2H25.3z"/>
	<path id="path3021" fill="#29292A" d="M27.2,21.6V27c0,1.3,0.3,2.3,0.9,3.1c0.6,0.8,1.6,1.2,3,1.2c1.4,0,2.4-0.4,3-1.2
		c0.6-0.8,1-1.8,0.9-3.1v-5.4h-1.8v5.2c0,0.8-0.1,1.4-0.4,2c-0.3,0.5-0.9,0.8-1.7,0.8c-0.9,0-1.5-0.3-1.7-0.8
		c-0.3-0.5-0.4-1.2-0.4-2v-5.2H27.2z"/>
	<path id="path3023" fill="#29292A" d="M39.6,23.3h1.8v-1.7h-1.8V18h-1.8v3.6h-1v1.7h1v7.7h1.8V23.3z"/>
	<path id="path3025" fill="#29292A" d="M42.3,21.6V27c0,1.3,0.3,2.3,0.9,3.1c0.6,0.8,1.6,1.2,3,1.2c1.4,0,2.4-0.4,3-1.2
		c0.6-0.8,1-1.8,0.9-3.1v-5.4h-1.8v5.2c0,0.8-0.1,1.4-0.4,2c-0.3,0.5-0.9,0.8-1.7,0.8c-0.9,0-1.5-0.3-1.7-0.8
		c-0.3-0.5-0.4-1.2-0.4-2v-5.2H42.3z"/>
	<path id="path3027" fill="#29292A" d="M54.5,21.6h-1.8v9.4h1.8v-4.6c0-0.8,0.1-1.5,0.4-2.2c0.3-0.7,0.9-1,1.8-1.1
		c0.2,0,0.4,0,0.6,0.1c0.2,0.1,0.4,0.2,0.5,0.3l0.8-1.6c-0.2-0.1-0.5-0.3-0.7-0.3c-0.3-0.1-0.5-0.1-0.8-0.1c-0.6,0-1.1,0.2-1.6,0.5
		c-0.4,0.3-0.8,0.8-1,1.3h-0.1V21.6z"/>
	<path id="path3029" fill="#29292A" d="M63.7,29.7c-1,0-1.7-0.4-2.2-1c-0.5-0.7-0.8-1.4-0.8-2.4c0-0.9,0.3-1.7,0.8-2.3
		c0.5-0.7,1.2-1,2.2-1c1,0,1.7,0.4,2.2,1c0.5,0.6,0.8,1.4,0.8,2.4c0,0.9-0.3,1.7-0.8,2.4C65.4,29.3,64.6,29.6,63.7,29.7z M68.4,21.6
		h-1.8v1.6h0c-0.4-0.6-0.8-1-1.4-1.3c-0.5-0.3-1.2-0.5-1.9-0.5c-1.4,0-2.5,0.5-3.2,1.5c-0.8,0.9-1.2,2.1-1.2,3.4
		c0,1.4,0.4,2.6,1.2,3.5c0.8,1,1.9,1.5,3.3,1.5c0.7,0,1.3-0.2,1.8-0.5c0.5-0.3,1-0.7,1.4-1.3h0v1.5h1.8V21.6z"/>
</g>
<g id="text4239">
	<path id="path3066" fill="#FFFFFF" d="M156,94.5c-5.6-0.2-9.9-2.2-12.9-6.1c-3-3.9-4.5-8.5-4.5-13.9c0-5.3,1.6-9.9,4.6-13.8
		c3-3.9,7.3-5.9,12.8-6.1c5.8,0.2,10.2,2.1,13.3,5.9c3.1,3.8,4.6,8.4,4.7,13.9c0,5.6-1.6,10.3-4.6,14.1
		C166.2,92.3,161.8,94.3,156,94.5L156,94.5z M184,46.8h-10.6V56h-0.2c-2.2-3.3-4.9-6-8.1-7.9c-3.2-1.9-6.9-2.9-11-2.9
		c-8.1,0.3-14.5,3.2-19.1,8.8c-4.6,5.6-6.9,12.3-7,20.1c0,8.2,2.3,15.1,6.9,20.9c4.5,5.7,11.1,8.7,19.5,9c4,0,7.6-1,10.8-2.9
		c3.2-1.9,5.9-4.4,8-7.6h0.2v8.6H184L184,46.8z"/>
</g>
<g id="text4251">
	<path id="path3132" d="M19,178.1c-0.8,0-1.4-0.3-1.9-0.9c-0.4-0.6-0.6-1.2-0.7-2c0-0.8,0.2-1.4,0.7-2c0.4-0.6,1.1-0.8,1.9-0.9
		c0.8,0,1.5,0.3,1.9,0.8c0.4,0.5,0.7,1.2,0.7,2c0,0.8-0.2,1.5-0.7,2C20.5,177.8,19.9,178.1,19,178.1z M23.1,171.3h-1.5v1.3h0
		c-0.3-0.5-0.7-0.9-1.2-1.1c-0.5-0.3-1-0.4-1.6-0.4c-1.2,0-2.1,0.5-2.7,1.3c-0.7,0.8-1,1.8-1,2.9c0,1.2,0.3,2.2,1,3
		c0.7,0.8,1.6,1.3,2.8,1.3c0.6,0,1.1-0.1,1.5-0.4c0.5-0.3,0.8-0.6,1.2-1.1h0v1.2h1.5V171.3z"/>
	<path id="path3134" d="M33.8,178.1c-0.8,0-1.4-0.3-1.9-0.9c-0.4-0.6-0.6-1.2-0.7-2c0-0.8,0.2-1.4,0.7-2c0.4-0.6,1.1-0.8,1.9-0.9
		c0.8,0,1.5,0.3,1.9,0.8c0.4,0.5,0.7,1.2,0.7,2c0,0.8-0.2,1.5-0.7,2C35.3,177.8,34.7,178.1,33.8,178.1z M29.9,179.2h1.5V178h0
		c0.3,0.5,0.7,0.8,1.2,1.1c0.5,0.3,1,0.4,1.5,0.4c1.2,0,2.2-0.5,2.8-1.3c0.7-0.8,1-1.8,1-3c0-1.1-0.3-2.1-1-2.9
		c-0.7-0.8-1.6-1.2-2.7-1.3c-0.6,0-1.1,0.1-1.6,0.4c-0.5,0.3-0.9,0.7-1.2,1.1h0v-8.1h-1.5L29.9,179.2z"/>
	<path id="path3136" d="M50.2,171.6c-0.3-0.2-0.6-0.3-1-0.4c-0.4-0.1-0.7-0.1-1.1-0.1c-1.3,0-2.3,0.4-3.1,1.2
		c-0.8,0.8-1.2,1.8-1.3,3.1c0,1.2,0.4,2.2,1.3,3c0.8,0.8,1.8,1.2,3,1.2c0.4,0,0.8,0,1.1-0.1c0.4-0.1,0.7-0.2,1.1-0.4v-2
		c-0.3,0.3-0.6,0.6-1,0.8c-0.4,0.2-0.8,0.3-1.2,0.3c-0.8,0-1.5-0.3-2-0.8c-0.5-0.5-0.8-1.2-0.8-2c0-0.8,0.3-1.4,0.8-1.9
		c0.5-0.5,1.1-0.8,1.9-0.8c0.5,0,0.9,0.1,1.3,0.3c0.4,0.2,0.7,0.4,1,0.8V171.6z"/>
	<path id="path3138" d="M60.2,178.1c-0.8,0-1.4-0.3-1.9-0.9c-0.4-0.6-0.6-1.2-0.7-2c0-0.8,0.2-1.4,0.7-2c0.4-0.6,1.1-0.8,1.9-0.9
		c0.8,0,1.5,0.3,1.9,0.8c0.4,0.5,0.7,1.2,0.7,2c0,0.8-0.2,1.5-0.7,2C61.7,177.8,61.1,178.1,60.2,178.1z M62.7,179.2h1.5v-14.8h-1.5
		v8.1h0c-0.3-0.5-0.7-0.9-1.2-1.1c-0.5-0.3-1-0.4-1.6-0.4c-1.2,0-2.1,0.5-2.7,1.3c-0.7,0.8-1,1.8-1,2.9c0,1.2,0.3,2.2,1,3
		c0.7,0.8,1.6,1.3,2.8,1.3c0.6,0,1.1-0.1,1.5-0.4c0.5-0.3,0.8-0.6,1.2-1.1h0L62.7,179.2z"/>
	<path id="path3140" d="M78.1,175.5v-0.2c0-1.2-0.3-2.2-0.9-3c-0.6-0.8-1.5-1.2-2.8-1.2c-1.3,0-2.3,0.4-2.9,1.2
		c-0.6,0.8-1,1.8-1,3.1c0,1.2,0.4,2.2,1,3c0.7,0.8,1.6,1.2,2.9,1.2c0.8,0,1.5-0.2,2.1-0.6c0.6-0.4,1.2-0.9,1.5-1.6l-1.3-0.7
		c-0.3,0.5-0.6,0.9-1,1.1c-0.4,0.3-0.8,0.4-1.4,0.4c-0.7,0-1.3-0.3-1.7-0.8c-0.4-0.5-0.6-1.1-0.7-1.8L78.1,175.5z M72.2,174.3
		c0.1-0.6,0.4-1.1,0.8-1.4c0.4-0.4,0.9-0.6,1.5-0.6c0.6,0,1.1,0.2,1.5,0.5c0.4,0.4,0.6,0.8,0.7,1.4H72.2z"/>
	<path id="path3142" d="M88.3,164.5c-0.3-0.1-0.7-0.2-1.1-0.2c-1,0-1.6,0.3-2,0.9c-0.4,0.6-0.6,1.3-0.5,2.2v3.9H84v1.4h0.7v6.5h1.5
		v-6.5h2.1v-1.4h-2.1v-3.4c0-0.4,0-0.9,0.1-1.4c0.1-0.5,0.4-0.7,1-0.8c0.2,0,0.3,0,0.5,0.1c0.2,0.1,0.3,0.1,0.5,0.2L88.3,164.5z"/>
	<path id="path3144" d="M97.4,178.1c-0.8,0-1.4-0.3-1.9-0.9s-0.6-1.2-0.7-2c0-0.8,0.2-1.4,0.7-2c0.4-0.6,1.1-0.8,1.9-0.9
		c0.8,0,1.5,0.3,1.9,0.8c0.4,0.5,0.7,1.2,0.7,2c0,0.8-0.2,1.5-0.7,2C98.9,177.8,98.2,178.1,97.4,178.1z M101.4,171.3h-1.5v1.4h0
		c-0.3-0.5-0.7-0.9-1.2-1.2c-0.5-0.3-1-0.4-1.6-0.4c-1.2,0-2.1,0.5-2.7,1.3c-0.7,0.8-1,1.8-1,2.9c0,1.2,0.3,2.2,1,3
		c0.7,0.8,1.6,1.3,2.8,1.3c0.6,0,1.1-0.1,1.5-0.4c0.5-0.3,0.8-0.6,1.2-1.1h0v1.5c0,0.8-0.1,1.5-0.4,2.1c-0.3,0.5-0.9,0.8-1.8,0.8
		c-0.7,0-1.3-0.2-1.7-0.6c-0.4-0.4-0.7-0.9-0.7-1.7h-1.5c0,1.1,0.4,2,1.1,2.6c0.7,0.6,1.6,1,2.7,1c1.5,0,2.5-0.5,3.1-1.3
		c0.6-0.9,0.8-2,0.8-3.4L101.4,171.3z"/>
	<path id="path3146" d="M108.3,164.5v14.8h1.5v-3.7c0-0.8,0-1.5,0.2-2.1c0.2-0.7,0.8-1,1.7-1c0.8,0,1.2,0.2,1.5,0.6
		c0.2,0.4,0.3,1,0.3,1.6v4.6h1.5v-4.7c0-1-0.2-1.8-0.6-2.5c-0.4-0.6-1.2-1-2.3-1c-0.5,0-1,0.1-1.4,0.3c-0.4,0.2-0.8,0.5-1,1h0v-7.9
		L108.3,164.5z"/>
	<path id="path3148" d="M124,171.3h-1.5v8h1.5V171.3z M123.2,166.6c-0.3,0-0.5,0.1-0.7,0.3c-0.2,0.2-0.3,0.5-0.3,0.8
		c0,0.3,0.1,0.5,0.3,0.7c0.2,0.2,0.4,0.3,0.7,0.3c0.3,0,0.5-0.1,0.7-0.3c0.2-0.2,0.3-0.4,0.3-0.7c0-0.3-0.1-0.6-0.3-0.8
		C123.8,166.7,123.5,166.6,123.2,166.6z"/>
	<path id="path3150" d="M133.2,171.3h-1.5v12.5h1.5V171.3z M132.5,166.6c-0.3,0-0.5,0.1-0.7,0.3c-0.2,0.2-0.3,0.5-0.3,0.8
		c0,0.3,0.1,0.5,0.3,0.7c0.2,0.2,0.4,0.3,0.7,0.3c0.3,0,0.5-0.1,0.7-0.3c0.2-0.2,0.3-0.4,0.3-0.7c0-0.3-0.1-0.6-0.3-0.8
		C133,166.7,132.8,166.6,132.5,166.6z"/>
	<path id="path3152" d="M142.2,164.5h-1.5v14.8h1.5v-3.1l0.5-0.5l2.8,3.6h2l-3.7-4.7l3.4-3.3h-2l-3,3V164.5z"/>
	<path id="path3154" d="M155,164.5h-1.5v14.8h1.5V164.5z"/>
	<path id="path3156" d="M163.5,171.3H162v8h1.5v-3.9c0-0.7,0.1-1.3,0.3-1.9c0.2-0.6,0.7-1,1.5-1c0.7,0,1.1,0.4,1.3,0.9
		s0.2,1.1,0.2,1.7v4.2h1.5v-3.9c0-0.7,0.1-1.3,0.3-1.9c0.2-0.6,0.7-1,1.5-1c0.6,0,1.1,0.3,1.2,0.8c0.2,0.5,0.3,1,0.2,1.5v4.5h1.5
		v-4.8c0-0.9-0.2-1.7-0.5-2.4c-0.4-0.7-1.1-1-2.1-1c-0.5,0-1,0.1-1.4,0.4c-0.4,0.3-0.8,0.6-1,1c-0.3-0.4-0.6-0.8-0.9-1
		c-0.4-0.2-0.8-0.4-1.3-0.4c-0.4,0-0.8,0.1-1.2,0.4c-0.4,0.2-0.7,0.5-0.9,0.9h0V171.3z"/>
</g>
<g id="text4291">
	<path id="path3105" d="M16.5,191.3H15v8h1.5v-3.7c0-0.8,0-1.5,0.2-2.1c0.2-0.7,0.8-1,1.7-1c0.8,0,1.2,0.2,1.5,0.6
		c0.2,0.4,0.3,1,0.3,1.6v4.6h1.5v-4.7c0-1-0.2-1.8-0.6-2.5c-0.4-0.6-1.2-1-2.3-1c-0.5,0-1,0.1-1.4,0.3c-0.4,0.2-0.8,0.5-1,1h0V191.3
		z"/>
	<path id="path3107" d="M32.3,191.1c-1.2,0-2.2,0.4-3,1.2c-0.8,0.8-1.2,1.8-1.2,3c0,1.2,0.4,2.2,1.2,3c0.8,0.8,1.8,1.2,3,1.2
		c1.2,0,2.2-0.4,3-1.2c0.8-0.8,1.2-1.8,1.2-3c0-1.2-0.4-2.2-1.2-3C34.6,191.5,33.6,191.1,32.3,191.1z M32.3,192.5
		c0.8,0,1.4,0.3,1.9,0.8c0.5,0.5,0.8,1.2,0.8,2c0,0.8-0.3,1.4-0.8,1.9c-0.5,0.5-1.2,0.8-1.9,0.8c-0.8,0-1.4-0.3-1.9-0.8
		c-0.5-0.5-0.8-1.2-0.8-1.9c0-0.8,0.3-1.4,0.8-2C30.9,192.8,31.6,192.5,32.3,192.5z"/>
	<path id="path3109" d="M46.7,198.2c-0.8,0-1.4-0.3-1.9-0.9c-0.4-0.6-0.6-1.2-0.7-2c0-0.8,0.2-1.4,0.7-2c0.4-0.6,1.1-0.8,1.9-0.9
		c0.8,0,1.5,0.3,1.9,0.8c0.4,0.5,0.7,1.2,0.7,2c0,0.8-0.2,1.5-0.7,2C48.2,197.9,47.6,198.1,46.7,198.2L46.7,198.2z M44.3,191.3h-1.5
		v12.5h1.5V198h0c0.3,0.5,0.7,0.8,1.2,1.1c0.5,0.3,1,0.4,1.5,0.4c1.2,0,2.2-0.5,2.8-1.3c0.7-0.8,1-1.8,1-3c0-1.1-0.3-2.1-1-2.9
		c-0.7-0.8-1.6-1.2-2.7-1.3c-0.6,0-1.1,0.1-1.6,0.4c-0.5,0.3-0.9,0.7-1.2,1.1h0L44.3,191.3z"/>
	<path id="path3111" d="M60.7,198.2c-0.8,0-1.4-0.3-1.9-0.9c-0.4-0.6-0.6-1.2-0.7-2c0-0.8,0.2-1.4,0.7-2c0.4-0.6,1.1-0.8,1.9-0.9
		c0.8,0,1.5,0.3,1.9,0.8c0.4,0.5,0.7,1.2,0.7,2c0,0.8-0.2,1.5-0.7,2C62.2,197.9,61.5,198.1,60.7,198.2L60.7,198.2z M64.7,191.3h-1.5
		v1.3h0c-0.3-0.5-0.7-0.9-1.2-1.1c-0.5-0.3-1-0.4-1.6-0.4c-1.2,0-2.1,0.5-2.7,1.3c-0.7,0.8-1,1.8-1,2.9c0,1.2,0.3,2.2,1,3
		c0.7,0.8,1.6,1.3,2.8,1.3c0.6,0,1.1-0.1,1.5-0.4c0.5-0.3,0.8-0.6,1.2-1.1h0v5.8h1.5V191.3z"/>
	<path id="path3113" d="M73.3,191.3h-1.5v8h1.5v-3.9c0-0.7,0.1-1.3,0.3-1.9c0.2-0.6,0.7-0.9,1.5-0.9c0.2,0,0.3,0,0.5,0.1
		c0.2,0,0.3,0.1,0.4,0.3l0.7-1.4c-0.2-0.1-0.4-0.2-0.6-0.3c-0.2-0.1-0.4-0.1-0.7-0.1c-0.5,0-1,0.1-1.3,0.4c-0.4,0.3-0.7,0.6-0.8,1.1
		h-0.1L73.3,191.3z"/>
	<path id="path3115" d="M87,192.5c-0.2-0.4-0.5-0.8-0.9-1c-0.4-0.2-0.8-0.4-1.3-0.4c-0.7,0-1.2,0.2-1.7,0.7c-0.4,0.4-0.7,1-0.7,1.6
		c0,0.5,0.2,0.9,0.4,1.2s0.6,0.5,1.1,0.8l1.5,0.8c0.2,0.1,0.3,0.2,0.4,0.4c0.1,0.1,0.1,0.3,0.1,0.5c0,0.3-0.1,0.6-0.4,0.8
		c-0.2,0.2-0.5,0.3-0.8,0.3c-0.4,0-0.7-0.1-0.9-0.3c-0.2-0.2-0.4-0.4-0.6-0.7l-1.3,0.6c0.2,0.6,0.6,1,1.1,1.3
		c0.5,0.3,1.1,0.5,1.7,0.5c0.8,0,1.4-0.3,1.9-0.8c0.5-0.5,0.8-1.1,0.8-1.9c0-0.6-0.2-1.1-0.6-1.4c-0.4-0.3-0.8-0.6-1.3-0.8
		c-0.5-0.2-0.9-0.4-1.3-0.6c-0.4-0.2-0.6-0.5-0.6-0.8c0-0.2,0.1-0.4,0.3-0.6c0.2-0.1,0.4-0.2,0.6-0.2c0.2,0,0.4,0.1,0.6,0.2
		c0.2,0.1,0.3,0.3,0.4,0.5L87,192.5z"/>
	<path id="path3117" d="M95.7,192.7h1.5v-1.4h-1.5v-3h-1.5v3h-0.8v1.4h0.8v6.5h1.5V192.7z"/>
	<path id="path3119" d="M102.9,191.3v4.6c0,1.1,0.3,2,0.8,2.6c0.5,0.7,1.4,1,2.6,1c1.2,0,2-0.4,2.6-1c0.5-0.7,0.8-1.5,0.8-2.6v-4.6
		h-1.5v4.4c0,0.7-0.1,1.2-0.4,1.7c-0.3,0.5-0.7,0.7-1.5,0.7c-0.7,0-1.2-0.3-1.5-0.7s-0.4-1-0.4-1.7v-4.4H102.9z"/>
	<path id="path3121" d="M117,191.3h-1.7l4,8.2l4-8.2h-1.7l-2.3,5L117,191.3z"/>
	<path id="path3123" d="M129.5,191.3h-1.7l4,8.2l2.3-5.3l2.3,5.3l4-8.2h-1.7l-2.3,5.1l-2.3-5.5l-2.3,5.5L129.5,191.3z"/>
	<path id="path3125" d="M148.5,194.9l-3.6,4.3h1.9l2.5-3.2l2.6,3.2h1.8l-3.4-4.3l2.9-3.6h-1.9l-2.1,2.6l-1.9-2.6h-1.8L148.5,194.9z"
		/>
	<path id="path3127" d="M161.8,197.9l-3.1,5.9h1.7l6.4-12.5h-1.7l-2.5,5l-2.7-5h-1.8L161.8,197.9z"/>
	<path id="path3129" d="M174.5,197.8l5.4-6.5h-7.4v1.4h4.5l-5.4,6.5h8.1v-1.4H174.5z"/>
</g>
<g id="text4295">
	<path id="path3084" fill="#FFFFFF" d="M36.9,219.3c1.1,0,2-0.4,2.6-1.2c0.7-0.7,1.1-1.6,1.4-2.6c0.3-1,0.4-2,0.4-2.9
		c0-0.9-0.1-1.9-0.4-2.9c-0.3-1-0.8-1.9-1.4-2.6c-0.7-0.7-1.5-1.1-2.6-1.1c-1.1,0-2,0.4-2.6,1.1c-0.7,0.7-1.1,1.6-1.4,2.6
		c-0.3,1-0.4,2-0.4,2.9c0,0.9,0.1,1.9,0.4,2.9c0.3,1,0.8,1.9,1.4,2.6C34.9,218.8,35.8,219.2,36.9,219.3z M36.9,207.3
		c0.8,0,1.4,0.4,1.8,1c0.4,0.6,0.7,1.3,0.9,2.2c0.2,0.8,0.3,1.5,0.3,2.2c0,0.6-0.1,1.3-0.3,2.2c-0.2,0.8-0.5,1.5-0.9,2.1
		c-0.4,0.6-1,0.9-1.8,1c-0.8,0-1.4-0.4-1.8-1c-0.4-0.6-0.7-1.3-0.9-2.1c-0.2-0.8-0.3-1.5-0.3-2.2c0-0.6,0.1-1.3,0.3-2.2
		c0.2-0.8,0.5-1.5,0.9-2.2C35.5,207.6,36.1,207.3,36.9,207.3z"/>
	<path id="path3086" fill="#FFFFFF" d="M51,207.6V219h1.5v-12.8h-2.9l-0.9,1.5H51z"/>
	<path id="path3088" fill="#FFFFFF" d="M65.3,217.5l4.2-5.2c0.3-0.4,0.5-0.8,0.7-1.2c0.2-0.5,0.3-0.9,0.3-1.4c0-1.1-0.4-2.1-1.2-2.8
		c-0.8-0.7-1.7-1.1-2.8-1.1c-1.2,0-2.1,0.4-2.8,1c-0.7,0.7-1.1,1.6-1.3,2.8H64c0.1-0.7,0.3-1.2,0.8-1.7c0.5-0.4,1-0.7,1.7-0.7
		c0.7,0,1.3,0.3,1.8,0.7c0.5,0.5,0.7,1,0.8,1.7c0,0.4-0.1,0.8-0.4,1.2c-0.2,0.4-0.5,0.7-0.8,1.1l-5.6,6.9h8.3v-1.5L65.3,217.5z"/>
	<path id="path3090" fill="#FFFFFF" d="M80.9,212.9c0.8-0.1,1.5,0.1,1.9,0.6c0.5,0.4,0.7,1.1,0.8,1.9c0,0.7-0.2,1.3-0.7,1.8
		c-0.4,0.5-1,0.7-1.8,0.7c-0.6,0-1.2-0.2-1.6-0.5c-0.5-0.4-0.7-0.9-0.8-1.5h-1.5c0.1,1.1,0.5,1.9,1.2,2.5c0.7,0.6,1.6,0.9,2.7,0.9
		c1.2,0,2.1-0.4,2.9-1c0.8-0.7,1.2-1.6,1.2-2.8c0-0.7-0.1-1.3-0.4-1.9c-0.3-0.6-0.8-1-1.4-1.3c0.5-0.3,1-0.7,1.2-1.2
		c0.3-0.5,0.4-1.1,0.4-1.7c0-1.1-0.4-1.9-1.1-2.5c-0.7-0.6-1.6-0.9-2.6-0.9c-1.1,0-1.9,0.3-2.6,0.8c-0.6,0.5-1,1.3-1.2,2.4H79
		c0.1-0.6,0.3-1,0.7-1.3c0.4-0.3,0.8-0.5,1.4-0.5c0.7,0,1.2,0.2,1.6,0.6c0.4,0.4,0.6,0.9,0.6,1.6c0,0.8-0.3,1.3-0.7,1.6
		c-0.5,0.3-1.1,0.5-1.8,0.4V212.9z"/>
	<path id="path3092" fill="#FFFFFF" d="M98.9,215.7v-10.1l-7.9,11.5h6.3v1.9h1.5v-1.9h1.5v-1.4H98.9z M97.4,215.7h-3.6l3.6-5.3h0
		L97.4,215.7z"/>
	<path id="path3094" fill="#FFFFFF" d="M114.7,207.6v-1.5h-5.1l-2,6.6h0.3c0.3-0.4,0.6-0.6,1.1-0.8s0.9-0.3,1.3-0.3
		c0.8,0,1.6,0.3,2.1,0.9c0.6,0.6,0.9,1.3,0.9,2.1c0,0.9-0.3,1.6-0.9,2.2c-0.6,0.6-1.3,0.9-2.2,0.9c-0.6,0-1.2-0.2-1.7-0.5
		c-0.5-0.4-0.9-0.8-1.1-1.4l-1.2,1.1c0.4,0.7,0.9,1.3,1.6,1.7c0.7,0.4,1.5,0.6,2.3,0.6c1.4,0,2.5-0.4,3.4-1.3
		c0.9-0.8,1.4-1.9,1.4-3.3c0-1.2-0.4-2.3-1.1-3.1c-0.7-0.9-1.7-1.3-3-1.4l-0.9,0.1l0.8-2.6L114.7,207.6z"/>
	<path id="path3096" fill="#FFFFFF" d="M126.9,205.9l-4.4,5.9c-0.4,0.5-0.7,1-1,1.6c-0.3,0.6-0.4,1.2-0.4,1.8c0,1.2,0.5,2.1,1.3,2.9
		c0.8,0.8,1.8,1.2,3,1.2c1.2,0,2.2-0.4,3-1.2c0.8-0.8,1.2-1.8,1.2-3c0-1.1-0.4-2-1.1-2.8c-0.7-0.8-1.6-1.2-2.6-1.2
		c-0.2,0-0.5,0-0.7,0.1c-0.2,0.1-0.4,0.1-0.6,0.2l0,0l3.4-4.6L126.9,205.9z M125.4,217.8c-0.8,0-1.4-0.3-1.9-0.8s-0.8-1.1-0.8-1.9
		c0-0.7,0.3-1.3,0.8-1.9s1.2-0.8,1.9-0.8c0.7,0,1.3,0.3,1.9,0.8c0.5,0.5,0.8,1.2,0.8,2c0,0.7-0.3,1.3-0.8,1.8
		C126.7,217.5,126.1,217.8,125.4,217.8z"/>
	<path id="path3098" fill="#FFFFFF" d="M142.6,207.6l-6.6,10.9l1.2,0.8l8-13.1H136v1.5L142.6,207.6z"/>
	<path id="path3100" fill="#FFFFFF" d="M154.8,213c0.7,0,1.2,0.2,1.7,0.7s0.7,1,0.8,1.7c0,0.7-0.3,1.2-0.8,1.7s-1.1,0.7-1.7,0.7
		c-0.7,0-1.2-0.3-1.7-0.7s-0.7-1-0.8-1.7c0-0.7,0.3-1.3,0.8-1.7C153.6,213.2,154.2,213,154.8,213L154.8,213z M150.8,215.4
		c0,1.2,0.4,2.1,1.2,2.8c0.8,0.7,1.7,1,2.8,1c1.1,0,2.1-0.4,2.8-1c0.8-0.7,1.2-1.6,1.2-2.8c0-0.7-0.2-1.3-0.5-1.9
		c-0.3-0.6-0.8-1-1.5-1.2c0.5-0.3,0.9-0.7,1.2-1.2c0.3-0.5,0.4-1.1,0.4-1.7c0-1.1-0.4-1.9-1.1-2.6c-0.7-0.6-1.6-1-2.6-1
		c-1,0-1.9,0.4-2.6,1c-0.7,0.6-1,1.5-1.1,2.6c0,0.6,0.2,1.2,0.4,1.7c0.3,0.5,0.7,0.9,1.2,1.2c-0.7,0.2-1.2,0.6-1.5,1.2
		S150.8,214.7,150.8,215.4L150.8,215.4z M154.8,207.3c0.6,0,1.1,0.2,1.5,0.6c0.4,0.4,0.6,0.9,0.7,1.6c0,0.5-0.3,1-0.7,1.5
		c-0.4,0.4-0.9,0.7-1.5,0.7c-0.6,0-1.1-0.3-1.5-0.7c-0.4-0.4-0.7-0.9-0.7-1.5c0-0.6,0.2-1.1,0.7-1.6
		C153.7,207.5,154.2,207.3,154.8,207.3L154.8,207.3z"/>
	<path id="path3102" fill="#FFFFFF" d="M168.3,219.3l4.4-5.9c0.4-0.5,0.7-1,1-1.6c0.3-0.6,0.4-1.2,0.4-1.8c0-1.2-0.5-2.1-1.3-2.9
		c-0.8-0.8-1.8-1.2-3-1.2c-1.2,0-2.2,0.4-3,1.2c-0.8,0.8-1.2,1.8-1.2,3c0,1.1,0.4,2,1.1,2.7c0.7,0.8,1.6,1.2,2.7,1.2
		c0.2,0,0.4,0,0.6,0c0.2,0,0.4-0.1,0.6-0.2l0,0l-3.4,4.6L168.3,219.3z M169.8,212.7c-0.7,0-1.3-0.3-1.9-0.8s-0.8-1.1-0.9-1.9
		c0-0.8,0.3-1.4,0.8-1.9c0.5-0.5,1.2-0.8,2-0.8c0.7,0,1.3,0.3,1.8,0.8c0.5,0.5,0.8,1.1,0.8,1.9c0,0.7-0.3,1.3-0.7,1.9
		C171.3,212.4,170.6,212.7,169.8,212.7L169.8,212.7z"/>
</g>
</svg>
