<?xml version="1.0" encoding="utf-8"?>
<!-- Generator: Adobe Illustrator 17.1.0, SVG Export Plug-In . SVG Version: 6.00 Build 0)  -->
<!DOCTYPE svg PUBLIC "-//W3C//DTD SVG 1.1//EN" "http://www.w3.org/Graphics/SVG/1.1/DTD/svg11.dtd">
<svg version="1.1" id="Layer_1" xmlns="http://www.w3.org/2000/svg" xmlns:xlink="http://www.w3.org/1999/xlink" x="0px" y="0px"
	 width="113.5px" height="112.8px" viewBox="0 0 113.5 112.8" style="enable-background:new 0 0 113.5 112.8;" xml:space="preserve"
	>
<style type="text/css">
	.st0{fill:#FFFFFF;stroke:#DCDBC7;stroke-miterlimit:10;}
	.st1{fill:none;stroke:#DCDBC7;stroke-miterlimit:10;}
	.st2{fill:none;stroke:#DCDBC7;stroke-width:2;stroke-miterlimit:10;}
</style>
<g>
	<path class="st0" d="M52,60.6h4L53.3,68c-0.4,1.2-0.9,2.5-1.3,3.9c-0.4,1.4-0.8,2.7-1.2,4c-0.3,1.3-0.6,2.4-0.8,3.5
		c-0.2,1.1-0.3,1.8-0.3,2.4c0,0.9,0.3,1.4,0.9,1.4c0.4,0,1.1-0.5,1.9-1.4c0.8-0.9,1.8-2.1,2.9-3.6l1.2,1c-1.3,2.4-2.8,4.2-4.3,5.5
		c-1.6,1.3-3,1.9-4.5,1.9c-0.7,0-1.3-0.3-1.7-0.8c-0.4-0.6-0.6-1.5-0.6-2.8c0-0.3,0-0.6,0-1s0.1-0.9,0.1-1.5l-0.2,0
		c-0.5,0.9-1,1.7-1.7,2.5c-0.7,0.8-1.4,1.4-2.1,2c-0.8,0.6-1.6,1-2.4,1.3c-0.8,0.3-1.6,0.5-2.4,0.5c-1.6,0-2.9-0.6-3.8-1.8
		c-0.9-1.2-1.4-2.9-1.4-5.1c0-2.2,0.5-4.5,1.4-6.8c0.9-2.3,2.1-4.4,3.6-6.3c1.5-1.9,3.1-3.4,4.9-4.6c1.8-1.2,3.6-1.8,5.3-1.8
		c1.1,0,1.9,0.2,2.6,0.7c0.7,0.5,1.2,1.3,1.6,2.4L52,60.6z M47.1,62.7c-1.2,0-2.5,0.6-3.8,1.7c-1.3,1.1-2.5,2.5-3.5,4.2
		c-1.1,1.7-1.9,3.5-2.6,5.4c-0.7,1.9-1,3.7-1,5.4c0,1.2,0.2,2.1,0.7,2.8c0.5,0.7,1.1,1,2,1c0.7,0,1.5-0.3,2.3-0.9
		c0.8-0.6,1.6-1.4,2.3-2.4c0.8-1,1.5-2.1,2.1-3.3s1.3-2.5,1.8-3.9c0.5-1.3,0.9-2.6,1.2-3.9c0.3-1.3,0.4-2.4,0.4-3.5
		c0-0.8-0.2-1.5-0.5-2C48.2,62.9,47.7,62.7,47.1,62.7z"/>
	<path class="st0" d="M68.7,64.8l0.1,0.1c0.9-1.5,2.1-2.6,3.5-3.4c1.4-0.8,2.9-1.2,4.4-1.2c2,0,3.5,0.6,4.5,1.8
		c1.1,1.2,1.6,2.9,1.6,5c0,1.5-0.2,3-0.7,4.6c-0.4,1.6-1.1,3.1-1.8,4.5c-0.8,1.4-1.7,2.8-2.8,4.1c-1.1,1.3-2.2,2.4-3.4,3.3
		c-1.2,0.9-2.5,1.7-3.8,2.2c-1.3,0.5-2.6,0.8-3.9,0.8c-1.8,0-3.3-0.6-4.5-1.7c-1.2-1.1-1.8-2.5-1.8-4.3c0-0.8,0.2-2,0.5-3.5
		c0.4-1.5,0.9-3.3,1.5-5.4l5.8-18.7c0.2-0.6,0.3-1.2,0.5-1.8c0.2-0.6,0.2-1,0.2-1.3c0-1.1-1.2-1.7-3.7-1.7l0.4-1.4l9.2-0.4
		L68.7,64.8z M67.2,84.1c0.7,0,1.5-0.3,2.4-0.8c0.8-0.5,1.6-1.2,2.4-2.1c0.8-0.9,1.6-1.9,2.3-3.1s1.4-2.4,1.9-3.7s1-2.6,1.3-3.9
		c0.3-1.3,0.5-2.6,0.5-3.8c0-1.1-0.3-2-0.8-2.8c-0.5-0.7-1.1-1.1-1.9-1.1c-0.7,0-1.5,0.3-2.3,0.8c-0.8,0.5-1.6,1.2-2.4,2.2
		c-0.8,0.9-1.5,2-2.3,3.1c-0.7,1.2-1.4,2.4-1.9,3.7c-0.6,1.3-1,2.6-1.3,3.9c-0.3,1.3-0.5,2.6-0.5,3.7C64.8,82.8,65.6,84.1,67.2,84.1
		z"/>
	<path class="st0" d="M103.5,78.3c-1.3,2.7-2.9,4.7-4.7,6.1s-3.7,2.1-5.7,2.1c-2.1,0-3.7-0.7-5-2.1c-1.2-1.4-1.9-3.3-1.9-5.7
		c0-1.4,0.2-2.8,0.6-4.3c0.4-1.5,1-2.9,1.7-4.3c0.7-1.4,1.5-2.7,2.5-3.9c1-1.2,2-2.3,3.1-3.2c1.1-0.9,2.2-1.6,3.4-2.1
		c1.2-0.5,2.3-0.8,3.4-0.8c1.5,0,2.8,0.4,3.8,1.2c1,0.8,1.5,1.9,1.5,3.1c0,0.8-0.2,1.4-0.7,1.9c-0.5,0.5-1.1,0.7-1.8,0.7
		c-0.7,0-1.3-0.2-1.8-0.7c-0.5-0.5-0.7-1-0.7-1.7c0-0.4,0.1-0.8,0.2-1c0.1-0.3,0.2-0.5,0.2-0.7c0-0.4-0.4-0.7-1.2-0.7
		c-1.1,0-2.1,0.5-3.2,1.5c-1.1,1-2.1,2.3-3,3.8c-0.9,1.6-1.6,3.3-2.2,5.3c-0.6,1.9-0.8,3.9-0.8,5.8c0,1.5,0.3,2.7,0.9,3.6
		c0.6,0.9,1.4,1.3,2.5,1.3c0.6,0,1.2-0.2,1.8-0.5c0.6-0.3,1.3-0.8,1.9-1.3c0.6-0.6,1.3-1.2,1.8-2c0.6-0.8,1.1-1.6,1.6-2.5
		L103.5,78.3z"/>
	<path class="st0" d="M110.6,86.6c-0.9,0-1.7-0.3-2.3-0.9s-1-1.4-1-2.4s0.3-1.8,1-2.4c0.6-0.7,1.4-1,2.4-1c1,0,1.8,0.3,2.4,1
		c0.6,0.7,1,1.5,1,2.4c0,0.9-0.3,1.7-1,2.4C112.3,86.2,111.5,86.6,110.6,86.6z"/>
</g>
<g>
	<g id="bg_copy">
		<g>
			<circle class="st1" cx="72.6" cy="72" r="52.3"/>
		</g>
	</g>
	<path class="st2" d="M16.4,91.4L2.7,84l-1.1-9.8L13.3,64l3.4-13.8l-5.8-14.4l5.5-8.2l15.5-0.3l11.4-8.4l4.8-14.7l9.5-2.8l12.1,9.8
		L84,12l13.2-8.2l9.1,4l3,15.2l10.3,9.8l15.4,2.2l4.4,8.9l-7.5,13.6l1.6,14.1l10.3,11.6l-2.3,9.6l-14.5,5.6l-7.9,11.8l0.5,15.5
		l-8,5.9l-14.7-5l-13.6,4l-9.6,12.2l-9.9-0.6l-8-13.3l-13-5.7l-15.2,3.2l-7.2-6.8l2.4-15.3L16.4,91.4z M24.4,72
		c0,26.6,21.6,48.2,48.2,48.2c26.6,0,48.2-21.6,48.2-48.2c0-26.6-21.6-48.2-48.2-48.2C46,23.8,24.4,45.4,24.4,72"/>
</g>
</svg>
