<?xml version="1.0" encoding="utf-8"?>
<!-- Generator: Adobe Illustrator 17.1.0, SVG Export Plug-In . SVG Version: 6.00 Build 0)  -->
<!DOCTYPE svg PUBLIC "-//W3C//DTD SVG 1.1//EN" "http://www.w3.org/Graphics/SVG/1.1/DTD/svg11.dtd"> 
<svg version="1.1" id="print-icon" xmlns="http://www.w3.org/2000/svg" xmlns:xlink="http://www.w3.org/1999/xlink" x="0px" y="0px"
	 width="113px" height="113.2px" viewBox="0 0 113 113.2" style="enable-background:new 0 0 113 113.2;" xml:space="preserve">
<style type="text/css">
	.st0{fill-rule:evenodd;clip-rule:evenodd;fill:none;}
	.st1{fill:none;stroke:#DCDBC7;stroke-miterlimit:10;}
	.st2{fill:#0D1023;stroke:#DCDBC7;stroke-miterlimit:10;}
	.st3{font-family:'LibreBaskerville-Italic';}
	.st4{font-size:10.8172;}
</style>
<g id="Shape_6_4_">
	<g>
		
			<rect x="45.5" y="40.4" transform="matrix(0.9659 -0.2588 0.2588 0.9659 -12.4038 16.7417)" class="st0" width="23.7" height="30.3"/>
	</g>
	<g>
		
			<rect x="45.5" y="40.4" transform="matrix(0.9659 -0.2588 0.2588 0.9659 -12.4038 16.7417)" class="st1" width="23.7" height="30.3"/>
	</g>
</g>
<g id="Shape_6_copy_4_">
	<g>
		<polygon class="st0" points="40.3,44.9 33.6,55.6 41.4,84.8 48.1,74.2 		"/>
	</g>
	<g>
		<polygon class="st1" points="40.3,44.9 33.6,55.6 41.4,84.8 48.1,74.2 		"/>
	</g>
</g>
<g id="Shape_6_copy_2_4_">
	<g>
		<polygon class="st0" points="73.3,26.8 66.6,37.5 74.5,66.7 81.2,56 		"/>
	</g>
	<g>
		<polygon class="st1" points="73.3,26.8 66.6,37.5 74.5,66.7 81.2,56 		"/>
	</g>
</g>
<text transform="matrix(0.9632 -0.2686 0.2686 0.9632 49.5838 60.6611)"><tspan x="0" y="0" class="st2 st3 st4">a</tspan><tspan x="6.3" y="0" class="st2 st3 st4">b</tspan><tspan x="12.5" y="0" class="st2 st3 st4">c</tspan><tspan x="17.8" y="0" class="st2 st3 st4">.</tspan></text>
<g>
	<g id="bg_copy_6_">
		<g>
			<circle class="st1" cx="56.5" cy="56.4" r="40.7"/>
		</g>
	</g>
	<path class="st1" d="M12.7,71.5L2.1,65.8l-0.9-7.7l9.1-7.9l2.6-10.8L8.5,28.2l4.3-6.4l12.1-0.2l8.9-6.6l3.8-11.5l7.4-2.2L54.3,9
		l11,0.7l10.3-6.4l7.1,3.1L85,18.3l8,7.6l12,1.7l3.4,6.9l-5.9,10.6l1.2,11l8,9l-1.8,7.5L98.7,77l-6.1,9.2l0.4,12.1l-6.2,4.6
		l-11.4-3.9L64.7,102l-7.5,9.5l-7.7-0.5l-6.2-10.4l-10.1-4.4l-11.8,2.5l-5.6-5.3l1.9-11.9L12.7,71.5z M19,56.4
		c0,20.7,16.8,37.5,37.5,37.5C77.2,93.9,94,77.2,94,56.4c0-20.7-16.8-37.5-37.5-37.5C35.8,18.9,19,35.7,19,56.4"/>
</g>
</svg>
