<?xml version="1.0" encoding="utf-8"?>
<!-- Generator: Adobe Illustrator 17.1.0, SVG Export Plug-In . SVG Version: 6.00 Build 0)  -->
<!DOCTYPE svg PUBLIC "-//W3C//DTD SVG 1.1//EN" "http://www.w3.org/Graphics/SVG/1.1/DTD/svg11.dtd">
<svg version="1.1" id="Layer_1" xmlns="http://www.w3.org/2000/svg" xmlns:xlink="http://www.w3.org/1999/xlink" x="0px" y="0px"
	 width="113.2px" height="112.8px" viewBox="0 0 113.2 112.8" style="enable-background:new 0 0 113.2 112.8;" xml:space="preserve"
	>
<style type="text/css">
	.st0{fill:none;stroke:#F1F1EB;stroke-miterlimit:10;}
	.st1{fill:none;stroke:#F1F1EB;stroke-width:2;stroke-miterlimit:10;}
	.st2{fill:#FFFFFF;stroke:#F1F1EB;stroke-miterlimit:10;}
</style>
<g>
	<g id="bg_copy_2_">
		<g>
			<circle class="st0" cx="56.9" cy="56.5" r="40.7"/>
		</g>
	</g>
	<path class="st1" d="M13.1,71.5L2.5,65.8l-0.9-7.7l9.1-7.9l2.6-10.8L8.9,28.3l4.3-6.4l12.1-0.2l8.9-6.6l3.8-11.5l7.4-2.2L54.7,9
		l11,0.7L76,3.4L83,6.5l2.3,11.9l8,7.6l12,1.7l3.4,6.9l-5.9,10.6l1.2,11l8,9l-1.8,7.5L99.1,77l-6.1,9.2l0.4,12.1l-6.2,4.6l-11.4-3.9
		L65.1,102l-7.5,9.5l-7.7-0.5l-6.2-10.4l-10.1-4.4l-11.8,2.5l-5.6-5.3L18,81.4L13.1,71.5z M19.4,56.4C19.4,77.2,36.2,94,56.9,94
		c20.7,0,37.5-16.8,37.5-37.5c0-20.7-16.8-37.5-37.5-37.5C36.2,18.9,19.4,35.7,19.4,56.4"/>
</g>
<g>
	<g>
		<path class="st2" d="M39.5,30.9H42v2.5h2.3v-2.5h2.5v7.5h-2.5v-2.5H42v2.5h-2.5V30.9L39.5,30.9z"/>
		<path class="st2" d="M50.1,33.4h-2.2v-2.5h6.9v2.5h-2.2v5h-2.5L50.1,33.4L50.1,33.4z"/>
		<path class="st2" d="M56,30.9h2.6l1.6,2.6l1.6-2.6h2.6v7.5h-2.5v-3.7l-1.7,2.7h0l-1.7-2.7v3.7H56V30.9z"/>
		<path class="st2" d="M65.7,30.9h2.5v5h3.5v2.5h-6V30.9z"/>
		<path class="st2" d="M35.9,41.9l3.6,40.2l16.1,4.5l16.1-4.5l3.6-40.2H35.9z M67.8,51.4l-0.2,2.5L67.5,55h0H55.6h0h-7l0.5,5.1h6.5
			h0h10.1H67l-0.1,1.3l-1.2,13l-0.1,0.8L55.6,78l0,0l0,0l-10.1-2.8l-0.7-7.7H47h2.7l0.4,3.9l5.5,1.5l0,0l0,0l5.5-1.5l0.6-6.4h-6.1h0
			h-11l-1.2-13.6l-0.1-1.3h12.4h0h12.3L67.8,51.4z"/>
	</g>
</g>
</svg>
